<svg xmlns="http://www.w3.org/2000/svg" xmlns:xlink="http://www.w3.org/1999/xlink" width="20" height="16" viewBox="0 0 20 16">
  <defs>
    <clipPath id="clip-path">
      <path id="Path_1795" data-name="Path 1795" d="M347-114h2v10h-2Zm1-4,3,4h-6Zm-8,9a1,1,0,0,1,1-1h14a1.006,1.006,0,0,1,1,1v10a1,1,0,0,1-1,1H341a1.006,1.006,0,0,1-1-1Z" fill="#6adaf7" clip-rule="evenodd"/>
    </clipPath>
    <clipPath id="clip-path-2">
      <path id="Path_1794" data-name="Path 1794" d="M-171,145H629V-455H-171Z" transform="translate(171 455)" fill="#6adaf7"/>
    </clipPath>
  </defs>
  <g id="Group_789" data-name="Group 789" transform="translate(118 356) rotate(-90)" clip-path="url(#clip-path)">
    <g id="Group_788" data-name="Group 788" transform="translate(-171 -455)" clip-path="url(#clip-path-2)">
      <path id="Path_1793" data-name="Path 1793" d="M335-123h26v30H335Z" transform="translate(171 455)" fill="#6adaf7"/>
    </g>
  </g>
</svg>
