<svg xmlns="http://www.w3.org/2000/svg" xmlns:xlink="http://www.w3.org/1999/xlink" width="1672.833" height="2051.744" viewBox="0 0 1672.833 2051.744">
  <defs>
    <linearGradient id="linear-gradient" x1="0.953" y1="0.541" x2="-0.814" y2="-0.088" gradientUnits="objectBoundingBox">
      <stop offset="0" stop-color="#152b42"/>
      <stop offset="1" stop-color="#15395f"/>
    </linearGradient>
  </defs>
  <path id="Path_944" data-name="Path 944" d="M1117.579,231.576c-114.664-4.165-219.76-33.134-323.969-75.7S585.955,66.238,474.039,43.692c-71.978-14.5-165.788,5.508-223.785,46.043-55.82,39.009-78.579,89.085-99.421,137.814-18.975,44.361-35.508,112.808-15.513,156.81,13.825,30.527-1.6,56.37,15.436,85.633,59.276,101.851,68.676,220.135,4.423,319.565-2.923,4.524,34.232,8.894,30.861,13.941-27.548,41.248-58.093,81.885-79.1,126.719-23.261,49.65-33.976,106.583-13.67,157.171,20.168,50.151,68.228,87.9,120.3,114.432,105.746,53.858,230.364,69.274,351.871,78.018,268.971,19.319,539.394,10.9,809.091,2.573,99.8-3.1,200.052-6.236,298.246-22.459,54.523-9.005,110.81-23.288,150.35-57.783,50.255-43.784,62.7-117.943,29.033-172.848-56.476-92.1-122.869,27.423-162.427-71.419-21.74-54.4-58.166-36.7-26.592-87.16,67.744-108.24,150.36-423.92,156.34-547.641,4.1-85.039-50.48-170.079-134.883-210.287-88.465-42.149-210.289-34.57-283.968,31.691C1328.152,221.881,1218.815,235.349,1117.579,231.576Z" transform="matrix(-0.259, 0.966, -0.966, -0.259, 1731.851, 254.567)" fill="url(#linear-gradient)"/>
</svg>
