<svg xmlns="http://www.w3.org/2000/svg" xmlns:xlink="http://www.w3.org/1999/xlink" width="889.539" height="747.616" viewBox="0 0 889.539 747.616">
  <defs>
    <linearGradient id="linear-gradient" x1="0.5" y1="1" x2="0.5" gradientUnits="objectBoundingBox">
      <stop offset="0" stop-color="gray" stop-opacity="0.251"/>
      <stop offset="0.54" stop-color="gray" stop-opacity="0.122"/>
      <stop offset="1" stop-color="gray" stop-opacity="0.102"/>
    </linearGradient>
  </defs>
  <g id="Group_790" data-name="Group 790" transform="translate(-21.367 -216)">
    <text id="Contacteer_Bloomford" data-name="Contacteer Bloomford" transform="translate(200 267)" fill="#152b42" font-size="47" font-family="SegoeUI, Segoe UI" letter-spacing="0.054em"><tspan x="0" y="0">Contacteer Bloomford</tspan></text>
    <g id="Group_208" data-name="Group 208" transform="translate(37 -3)">
      <path id="Path_719" data-name="Path 719" d="M599.379,115.915c-57.03-1.642-111.344-16.976-163.174-33.754S332.923,46.826,277.259,37.938c-35.8-5.716-76.739-6.524-105.585,9.455-27.763,15.377-36.728,41.928-41.55,66.571-3.636,18.532-5.767,38.043,4.177,55.389,6.876,12.034-.8,22.221,7.677,33.756,29.482,40.149,8.647,89.649-23.311,128.844-1.454,1.783,17.026,3.506,15.349,5.5-13.7,16.26-28.894,32.279-39.341,49.952-11.569,19.572-16.9,42.014-6.8,61.955C97.908,469.125,121.812,484,147.71,494.464c52.6,21.231,114.576,27.307,175.01,30.754,133.778,7.615,268.279,4.3,402.418,1.014,49.638-1.221,99.5-2.458,148.339-8.853,27.118-3.55,55.114-9.18,74.78-22.778,25-17.259,31.184-46.492,14.44-68.135-28.09-36.307-105.723-45.323-125.4-84.286-10.813-21.445.292-45.341,16-65.23,33.694-42.667,90.174-80.1,93.148-128.87,2.037-33.522-25.107-67.044-67.087-82.894-44-16.615-105.018-14.526-137.526,12.979C708.471,106.478,649.731,117.4,599.379,115.915Z" transform="translate(-98.171 282.806)" fill="#6adaf7" opacity="0.1"/>
      <g id="undraw_envelope_n8lc" transform="translate(39.175 339.134)">
        <ellipse id="Ellipse_1923" data-name="Ellipse 1923" cx="229.172" cy="23.11" rx="229.172" ry="23.11" transform="translate(89.056 581.261)" fill="#6c63ff" opacity="0.1"/>
        <path id="Path_625" data-name="Path 625" d="M229.175,790.355s-10.168-57.61-47.907-86.159c-15.835-11.981-27.422-28.273-32.482-46.828a141.287,141.287,0,0,1-4.556-26.878" transform="translate(-101.596 -188.49)" fill="none" stroke="#535461" stroke-miterlimit="10" stroke-width="2"/>
        <path id="Path_626" data-name="Path 626" d="M113.853,602.69c3.153,6.172,24.222,18.665,24.222,18.665s2.648-23.339-.528-29.518a13.521,13.521,0,0,0-17.593-5.762A12.12,12.12,0,0,0,113.853,602.69Z" transform="translate(-94.881 -178.818)" fill="#6c63ff"/>
        <path id="Path_627" data-name="Path 627" d="M109.96,656.083c6.227,3.555,31.087,3.24,31.087,3.24s-11.216-20.951-17.419-24.505a13.623,13.623,0,0,0-18.082,4.193A12.035,12.035,0,0,0,109.96,656.083Z" transform="translate(-92.997 -189.025)" fill="#6c63ff"/>
        <path id="Path_628" data-name="Path 628" d="M147.377,729.318c7.267.1,28.557-12.02,28.557-12.02s-20.88-12.737-28.155-12.848-13.258,5.376-13.4,12.241S140.1,729.192,147.377,729.318Z" transform="translate(-99.509 -204.153)" fill="#6c63ff"/>
        <path id="Path_629" data-name="Path 629" d="M190.946,778.806c7.141,1.269,30.3-7.291,30.3-7.291s-18.3-15.906-25.436-17.151-14.03,3.153-15.37,9.931S183.8,777.545,190.946,778.806Z" transform="translate(-109.216 -214.68)" fill="#6c63ff"/>
        <path id="Path_630" data-name="Path 630" d="M176.6,648.969c-2.483,6.455-22.07,20.927-22.07,20.927s-5.186-22.953-2.7-29.408,10.042-9.79,16.876-7.449S179.085,642.521,176.6,648.969Z" transform="translate(-103.063 -188.871)" fill="#6c63ff"/>
        <path id="Path_631" data-name="Path 631" d="M225.472,706.517c-4.414,5.462-27.682,13.739-27.682,13.739s2.365-23.37,6.747-28.825A13.7,13.7,0,0,1,223,689.066a11.981,11.981,0,0,1,2.475,17.451Z" transform="translate(-112.939 -200.356)" fill="#6c63ff"/>
        <path id="Path_632" data-name="Path 632" d="M265.92,770.029c-3.374,6.085-24.821,17.955-24.821,17.955s-1.884-23.4,1.49-29.487a13.559,13.559,0,0,1,17.774-5.249A12.1,12.1,0,0,1,265.92,770.029Z" transform="translate(-122.001 -214.188)" fill="#6c63ff"/>
        <path id="Path_633" data-name="Path 633" d="M113.853,602.69c3.153,6.172,24.222,18.665,24.222,18.665s2.648-23.339-.528-29.518a13.521,13.521,0,0,0-17.593-5.762A12.12,12.12,0,0,0,113.853,602.69Z" transform="translate(-94.881 -178.818)" fill="#21455c"/>
        <path id="Path_634" data-name="Path 634" d="M109.96,656.083c6.227,3.555,31.087,3.24,31.087,3.24s-11.216-20.951-17.419-24.505a13.623,13.623,0,0,0-18.082,4.193A12.035,12.035,0,0,0,109.96,656.083Z" transform="translate(-92.997 -189.025)" fill="#21455c"/>
        <path id="Path_635" data-name="Path 635" d="M147.377,729.318c7.267.1,28.557-12.02,28.557-12.02s-20.88-12.737-28.155-12.848-13.258,5.376-13.4,12.241S140.1,729.192,147.377,729.318Z" transform="translate(-99.509 -204.153)" fill="#21455c"/>
        <path id="Path_636" data-name="Path 636" d="M190.946,778.806c7.141,1.269,30.3-7.291,30.3-7.291s-18.3-15.906-25.436-17.151-14.03,3.153-15.37,9.931S183.8,777.545,190.946,778.806Z" transform="translate(-109.216 -214.68)" fill="#21455c"/>
        <path id="Path_637" data-name="Path 637" d="M176.6,648.969c-2.483,6.455-22.07,20.927-22.07,20.927s-5.186-22.953-2.7-29.408,10.042-9.79,16.876-7.449S179.085,642.521,176.6,648.969Z" transform="translate(-103.063 -188.871)" fill="#21455c"/>
        <path id="Path_638" data-name="Path 638" d="M225.472,706.517c-4.414,5.462-27.682,13.739-27.682,13.739s2.365-23.37,6.747-28.825A13.7,13.7,0,0,1,223,689.066a11.981,11.981,0,0,1,2.475,17.451Z" transform="translate(-112.939 -200.356)" fill="#21455c"/>
        <path id="Path_639" data-name="Path 639" d="M265.92,770.029c-3.374,6.085-24.821,17.955-24.821,17.955s-1.884-23.4,1.49-29.487a13.559,13.559,0,0,1,17.774-5.249A12.1,12.1,0,0,1,265.92,770.029Z" transform="translate(-122.001 -214.188)" fill="#21455c"/>
        <path id="Path_640" data-name="Path 640" d="M245.642,783.386s15.425-56.562-6.818-97.107c-9.332-17.01-12.935-36.336-9.593-55.238a141.875,141.875,0,0,1,7.37-26.31" transform="translate(-119.339 -183.034)" fill="none" stroke="#535461" stroke-miterlimit="10" stroke-width="2"/>
        <path id="Path_641" data-name="Path 641" d="M221.328,568.764c.252,6.857,14.133,26.334,14.133,26.334S247.9,574.77,247.646,567.9s-6.345-12.233-13.612-12S221.068,561.9,221.328,568.764Z" transform="translate(-117.922 -172.692)" fill="#6adaf7"/>
        <path id="Path_642" data-name="Path 642" d="M194.857,616.086c4.162,5.628,27.02,14.85,27.02,14.85s-1.261-23.441-5.423-29.077a13.675,13.675,0,0,0-18.334-3.082,12,12,0,0,0-3.263,17.309Z" transform="translate(-111.819 -181.298)" fill="#6adaf7"/>
        <path id="Path_643" data-name="Path 643" d="M197.635,697.336c6.605,2.877,31.276-.055,31.276-.055s-13.628-19.642-20.233-22.519-14.424-.158-17.475,6.077S191.038,694.459,197.635,697.336Z" transform="translate(-111.287 -197.623)" fill="#6adaf7"/>
        <path id="Path_644" data-name="Path 644" d="M216.2,759.26c6,3.894,30.835,4.926,30.835,4.926s-9.916-21.526-15.906-25.412a13.66,13.66,0,0,0-18.31,3.153A12,12,0,0,0,216.2,759.26Z" transform="translate(-115.629 -210.954)" fill="#6adaf7"/>
        <path id="Path_645" data-name="Path 645" d="M257.064,635.074c-5.045,4.95-29.164,10.7-29.164,10.7s5.115-22.976,10.152-27.926a13.731,13.731,0,0,1,18.625-.347,11.949,11.949,0,0,1,.386,17.577Z" transform="translate(-119.316 -185.003)" fill="#6adaf7"/>
        <path id="Path_647" data-name="Path 647" d="M286.221,779.982c-5.7,4.272-30.4,6.92-30.4,6.92s8.323-22.125,14.022-26.4a13.7,13.7,0,0,1,18.5,2.01,11.973,11.973,0,0,1-2.12,17.467Z" transform="translate(-125.229 -215.454)" fill="#6adaf7"/>
        <path id="Path_648" data-name="Path 648" d="M1010.352,371c.473-1.293-3.074-8.457-3.074-8.812s-3.665-4.351-3.665-6.582-4.855-7.047-4.855-7.047-6.5-2.7-7.212-8.576-7.8-6-7.811-6h0s0-.536.047-1.348c0-1.829-.055-5.092-.875-6.873a6.976,6.976,0,0,0-4.028-3.413s-.709-4.579-2.128-5.99a6.747,6.747,0,0,1-1.663-6.337c.709-2.231-.946-7.882-4.383-8.67s-7.33-2.112-7.33-2.112-.386.071-.946.15l-.473-.15a21.113,21.113,0,0,1-2.491.307,3.034,3.034,0,0,1-2-.662c-1.19-1.293-10.775-3.76-12.548-3.76s-6.865-2.365-6.865-2.365l-5.076-3.878c-1.427-1.088-4.067-5.517-4.453-6.14l-.047-.087h0a21.29,21.29,0,0,1-1.072-3.09h0a27.938,27.938,0,0,0,4.4-6.046c.126-.229.237-.465.347-.694a2.83,2.83,0,0,0,.788-.126.99.99,0,0,0,.307-.118,5.163,5.163,0,0,0,2.514-3h0a7.643,7.643,0,0,0,.229-.788.471.471,0,0,1,.055-.268,2.339,2.339,0,0,0,.11-.536c.032-.181.039-.2.055-.3s.055-.355.079-.536a1.145,1.145,0,0,0,0-.292,4.724,4.724,0,0,1,.087-.67h0a23.853,23.853,0,0,1,.37-2.483h0c.709-3.153,2.625-5.88,3.988-8.828h0c.2-.418.378-.851.544-1.285s.331-.946.465-1.427l.118-.441c.087-.347.166-.7.236-1.056a3.321,3.321,0,0,1,.087-.473c.079-.489.15-.977.189-1.474a18.271,18.271,0,0,0-1.174-8.284c-.891-2.207-2.207-4.193-3.106-6.4-1.364-3.342-1.718-7.094-3.381-10.31-2.782-5.344-9.34-8.016-14.732-6.006-2.577.954-4.808,2.814-7.417,3.649-3.5,1.111-7.236.276-10.854-.229s-7.622-.544-10.53,1.821c-3.35,2.719-4.272,7.835-7.417,10.822-1.316,1.253-2.964,2.057-4.359,3.216a7.094,7.094,0,0,0-2.183,2.987,1.033,1.033,0,0,1-.079.252c-.024.087-.055.2-.079.3s-.047.236-.063.355a1.243,1.243,0,0,0,0,.244,4.182,4.182,0,0,0,0,.631h0a5.117,5.117,0,0,0,.1.591q0,.083,0,.165a4.133,4.133,0,0,0,.15.489.441.441,0,0,0,0,.095c.063.181.134.355.2.536l.118.268.095.221a13.7,13.7,0,0,1,1.1,2.727,3.082,3.082,0,0,1-.1,1.8,5.517,5.517,0,0,1-1.316,1.718,24.435,24.435,0,0,0-5.336,8.552c-.134.363-.268.725-.386,1.1h0l.166.039a6.715,6.715,0,0,0,1.033.229c.2,0,.394.047.6.063a9.264,9.264,0,0,0,2.412-.189c.2-.039.4-.087.6-.142a14.875,14.875,0,0,0,2.365-.875v1.119a27.958,27.958,0,0,0,15.52,24.994,7.456,7.456,0,0,0,.1.788c.031.276.055.426.079.638l-.315-.307s-2.136-1.056-4.146,1.994a13.428,13.428,0,0,1-5.793,4.469s-21.534,3.405-22.362,6.227l-10.058.583s-3.555.473-3.941,7.882-2.246,8.111-2.246,8.111-4.138,7.283-3.783,11.035-3.153,5.644-3.153,5.644l-.473,6.692s-3.941-.583-4.974,4a15.64,15.64,0,0,1-2.956,6.7s-6.511,5.407-6.865,9.987l-4.02,2.467s-9.348-2.112-11.476-5.872l-.654-.615a.587.587,0,0,1-.055-.095.222.222,0,0,0,0,.047c-1.4-1.324-4.367-4.083-3.941-3.452a2.869,2.869,0,0,1,.189,1.892l-.694-.788-1.86-2.065s-15.11-14.188-23.985-15.276h0c-.118-.229-.686-2.459-2.2-1.064a12.335,12.335,0,0,0-.087,18.129l14.148,13.218.363.268,3.042,3.941c-.512,1.23-.946,2.42-1.3,3.508a.149.149,0,0,1-.039.1c-.071.236-.15.457-.221.678l-.071.236c-.063.221-.134.441-.2.646s-.071.26-.11.386,0,.15-.063.221c-.331,1.182-.552,2.089-.662,2.593l-.788-.244.788.331v.126l-.047.244.725.315c4.146,1.8,24.836,10.877,25.9,12.257,1.182,1.521,8.986,5.99,16.087,2.231s8.67-9.522,8.67-9.522,6.857-9.514,7.094-10.925,5.565-3.058,5.565-3.058.473,15.764-2.246,21.5-7.811,31.26-7.811,31.26a3.75,3.75,0,0,1,1.009-.063c-.189.922-.3,1.474-.3,1.474a3.515,3.515,0,0,1,1.253,0c-.378,2.9-2.554,16.363-2.554,16.363s-.709,6.109-1.892,8.221-1.3,13.163-1.3,13.163l-1.892,7.985a15.434,15.434,0,0,0,.717,1.379h0a20.492,20.492,0,0,0,5.447,7.039,14.426,14.426,0,0,1-.954,3.657,12.667,12.667,0,0,0-.946,5.636s-2.01,9.049-1.774,11.634-1.3,8.93-1.3,8.93l-2.2,20.383s-1.419,17.743-.709,22.566-.481,11.39-.481,11.39,1.419,13.983,1.064,15.512-2.128,8.1-1.064,11.752.481,13.628.481,13.628.709,13.155,1.529,17.388a30.183,30.183,0,0,1-.236,9.64s-.788,9.041-1.182,9.041-3.429,6.227,2.838,12.343,2.365,5.163,2.365,5.163-4.966-2.467-4.382,2.585c.568,4.808,1.348,3.555,1.419,3.421l-1.182,3.862.788.118-.686.788a18.361,18.361,0,0,1-2.365,2.475c-1.427,1.056-1.576,3.405-1.576,3.405s-8.749,9.522-16.915,14.338c-4.3,2.538-8,4.682-9.616,6.455-1.458,1.576-1.222,2.885,1.8,3.886,6.392,2.112,17.624,3.153,25.672.473a30,30,0,0,0,12.54-8.111s5.092-2.585,10.065-1.647,14.905-5.517,14.905-5.517l-.181-1.671-.528-4.8a3.775,3.775,0,0,1-.828-2.932,15.221,15.221,0,0,0-.418-4.225c-.079-.465-.173-.93-.26-1.364l.906-.166s-1.174-6,.954-7.173,1.529-16.552,1.529-16.552-2.711-3.523-4.138-4.107-.118-7.882.126-8.82,2.128-19.154,2.128-19.154-.709-5.754.236-8.221-1.135-11.926-1.135-11.926a2.18,2.18,0,0,1,.6-2.585c1.308-1.411.788-13.983.788-13.983s-.11-6.345-.11-7.992,1.419-7.638,2.719-9.632.473-8.229.473-8.229h0l.071-.465a4.672,4.672,0,0,1,.11-.67l.1-.623a88.752,88.752,0,0,1,2.341-10.255c1.576-4.934,3.31-13.628,3.31-13.628l11.035-28.691.126-.339s5.084,9.4,5.084,18.129c0,0,1.3,10.46.946,13.281S898.9,543.33,898.9,543.33s1.537,19.035,1.537,19.863,1.892,15.512,3.082,17.743-1.19,9.049-1.9,9.75.236,17.979.236,17.979-1.773,13.628-2.128,16.45-1.773,13.636-.591,17.861.709,4.816.709,4.816,4.264,4.351,1.773,4.729a6.5,6.5,0,0,0-4.729,8.568A109.761,109.761,0,0,0,902.1,673.7s.733-.166,1.955-.41v1.4l.142,7s.788,6.7.355,8.229c-.347,1.119-.788,6.384-1.048,9.135-.087,1-.134,1.671-.134,1.671s0,6.227,13.132,4.351,15.5-7.047,15.5-7.047a3.132,3.132,0,0,1,.095-.646c.2-1.19.623-3.713.969-5.115.473-1.884-3.783-10.341-3.783-10.341s-.709-5.754-1.9-7.047a6.243,6.243,0,0,1-.946-2.467c-.11-.473-.2-.969-.284-1.45a8.694,8.694,0,0,1,.875.158s-.709-4.115,2.018-5.407,2.01-3.988,1.655-5.171,1.064-7.756,1.064-7.756a3.823,3.823,0,0,1,.946-3.752c1.663-1.655,2.956-13.163,2.956-13.163l.236-44.416s.836-7.882-.11-11.035-1.9-9.277-.6-10.925.118-9.277.118-9.277,0-16.1,1.781-20.091,1.182-29.258,1.182-29.258l.465-16.552s3.87-3.657,2.956-22.724c4.122-.26,8.773-.41,9.458.158,1.3,1.064,9.7,6.463,14.669,3.058a66.293,66.293,0,0,0,5.912-4.579l-2.081-35.233c1.3,1.963,2.089,3.271,2.089,3.271,0-4.934,13.959-20.919,13.959-20.919s13.013-16.8,15.851-18.8,8.4-12.572,8.4-12.572a50.936,50.936,0,0,1,2.845-5.872C1014.143,377.932,1009.879,372.288,1010.352,371Zm-30.535,12.328c-3.547.355-11.035,8.465-11.122,10.247a7.152,7.152,0,0,1-1.576,3.153c-.055-.709-.118-1.435-.173-2.168-.836-10.381-1.742-23.032-1.332-24.261.717-2.112.473-11.626.473-11.626h0l.126-.181c2.365,7.37,9.8,16.064,9.8,16.064s1.3,3.76,2.838,3.878S979.816,383.323,979.816,383.323Z" transform="translate(-253.28 -100.927)" fill="url(#linear-gradient)"/>
        <path id="Path_649" data-name="Path 649" d="M795.34,418.5s4.311-22.622,18.192-22.74l10.144,20.872-6.763,4.666S802.221,421.763,795.34,418.5Z" transform="translate(-258.494 -138.776)" fill="#65617d"/>
        <path id="Path_650" data-name="Path 650" d="M823.676,416.638l-6.763,4.666s-10.341.331-17.735-1.49a21.22,21.22,0,0,1-3.839-1.308,1.292,1.292,0,0,1,.079-.363v-.087a51.04,51.04,0,0,1,2.625-8.308c.434-1.017.914-2.065,1.435-3.113,2.034-3.941,4.887-7.74,8.8-9.64a11.957,11.957,0,0,1,4.627-1.206h.615l.221.465,3.429,7.047Z" transform="translate(-258.494 -138.782)" opacity="0.1"/>
        <path id="Path_651" data-name="Path 651" d="M974.6,524.09s14.582-1.4,15.859-.347,9.561,6.408,14.464,3.027,1.632-15.157,1.632-15.622S1006.09,494,1006.09,494l-8.749-11.776-10.956-20.635L964,459.37l.583,32.774-.118,16.789Z" transform="translate(-294.215 -152.248)" fill="#65617d"/>
        <path id="Path_652" data-name="Path 652" d="M974.6,524.09s14.582-1.4,15.859-.347,9.561,6.408,14.464,3.027,1.632-15.157,1.632-15.622S1006.09,494,1006.09,494l-8.749-11.776-10.956-20.635L964,459.37l.583,32.774-.118,16.789Z" transform="translate(-294.215 -152.248)" opacity="0.1"/>
        <path id="Path_653" data-name="Path 653" d="M805.791,389.234s-1.167,14.227-10.026,14.456c0,0-2.514-1.513-5.9-4.036-7.788-5.825-20.139-17.025-16.726-27.445,4.895-14.921,28.683,12.611,28.683,12.611l1.821,2.049Z" transform="translate(-253.67 -132.849)" fill="#fbbebe"/>
        <path id="Path_654" data-name="Path 654" d="M810.241,394.365s-1.167,14.227-10.026,14.456c0,0-2.514-1.513-5.9-4.036l-.749-.97a11.658,11.658,0,0,0,4.855,1.308,6.566,6.566,0,0,0,6.306-4,50.047,50.047,0,0,0,2.451-5.644A16.448,16.448,0,0,0,808.1,392Z" transform="translate(-258.12 -137.98)" opacity="0.1"/>
        <path id="Path_655" data-name="Path 655" d="M806.581,419.826l-1.994-2.57-6.715-8.67-3.421-4.422a11.523,11.523,0,0,0,4.855,1.308,6.5,6.5,0,0,0,6.306-3.988,50.913,50.913,0,0,0,2.451-5.651c1.1-3.153,1.088-4.729.694-5.3s2.475,2.112,3.854,3.421l.047.047.646.607.236.473,3.381,6.755v.284C817.253,404.283,818.4,417.9,806.581,419.826Z" transform="translate(-258.306 -137.651)" fill="#e7effd"/>
        <path id="Path_656" data-name="Path 656" d="M881.019,803.518s-9.8,6.416-14.692,5.518-9.916,1.639-9.916,1.639a29.542,29.542,0,0,1-12.367,8.048c-7.882,2.68-19,1.624-25.294-.473-2.979-.993-3.224-2.27-1.789-3.854,1.576-1.766,5.249-3.886,9.459-6.408,8.048-4.777,16.671-14.188,16.671-14.188s.118-2.365,1.521-3.374a18.171,18.171,0,0,0,2.365-2.459c1.253-1.482,2.428-3.027,2.428-3.027l28.817.836s.489,2.073.875,4.193a15.19,15.19,0,0,1,.4,4.2,3.8,3.8,0,0,0,.788,2.908l.52,4.729Z" transform="translate(-262.894 -221.2)" fill="#65617d"/>
        <path id="Path_657" data-name="Path 657" d="M967.076,812.14c-.347,1.4-.788,3.894-.954,5.068l-.1.646s-2.365,5.131-15.268,7-12.942-4.319-12.942-4.319.047-.662.126-1.663a90.452,90.452,0,0,1,1.04-9.064c.457-1.513-.355-8.166-.355-8.166l-.134-6.944-.1-4.824,21.463-2.223a38.945,38.945,0,0,0,.694,4.776,6.108,6.108,0,0,0,.938,2.451c1.167,1.285,1.86,7,1.86,7S967.541,810.272,967.076,812.14Z" transform="translate(-288.668 -221.774)" fill="#65617d"/>
        <path id="Path_658" data-name="Path 658" d="M886.481,785.748s.489,2.073.875,4.193c-3.113.575-16.718,2.932-20.115,1.285-3.854-1.868-12.131-2.916-12.131-2.916l.134-.473c1.253-1.482,2.428-3.027,2.428-3.027Z" transform="translate(-271.153 -221.173)" opacity="0.1"/>
        <path id="Path_659" data-name="Path 659" d="M960.692,792.427c-5.439-.922-17.341,1.308-22.07,2.27l-.1-4.824,21.463-2.223A38.939,38.939,0,0,0,960.692,792.427Z" transform="translate(-288.818 -221.774)" opacity="0.1"/>
        <path id="Path_660" data-name="Path 660" d="M954.558,550.453l-.465,16.442s.583,25.073-1.167,29.038-1.75,19.942-1.75,19.942,1.167,7.575-.118,9.206-.347,7.693.583,10.846.118,10.964.118,10.964l-.236,44.077s-1.277,11.421-2.916,13.061a3.823,3.823,0,0,0-.93,3.728s-1.4,6.526-1.048,7.7,1.048,3.846-1.632,5.123-1.986,5.368-1.986,5.368c-6.408-1.521-24.6,2.57-24.6,2.57a109.431,109.431,0,0,1-5.131-12.485,6.455,6.455,0,0,1,4.666-8.5c2.443-.355-1.75-4.666-1.75-4.666s.465-.583-.7-4.777.229-14.976.583-17.735,2.1-16.324,2.1-16.324-.93-17.136-.229-17.837,3.027-7.464,1.868-9.679-3.042-16.789-3.042-17.609-1.505-19.705-1.505-19.705-1.4-13.179-1.048-15.977-.938-13.171-.938-13.171c0-8.67-5.013-17.963-5.013-17.963l-.126.339-10.806,28.47s-1.75,8.623-3.263,13.518a88.428,88.428,0,0,0-2.278,10.128l-.1.623a3.944,3.944,0,0,1-.1.654l-.071.473h0s.788,6.18-.473,8.166-2.68,7.929-2.68,9.561.118,7.929.118,7.929.465,12.477-.788,13.88a2.238,2.238,0,0,0-.591,2.562s2.1,9.459,1.167,11.894-.229,8.158-.229,8.158-1.868,18.082-2.1,19.012-1.521,8.166-.118,8.749,4.075,4.075,4.075,4.075.591,15.283-1.513,16.442-.938,7.094-.938,7.094-16.9,3.263-20.746,1.4-12.131-2.916-12.131-2.916l1.159-3.831c-.071.134-.843,1.379-1.4-3.4-.575-5.013,4.319-2.57,4.319-2.57s3.846.938-2.365-5.123-3.153-12.249-2.8-12.249,1.174-8.97,1.174-8.97a29.851,29.851,0,0,0,.229-9.569c-.82-4.2-1.513-17.262-1.513-17.262s.583-9.908-.465-13.518.694-10.152,1.048-11.665-1.088-15.354-1.088-15.354,1.167-6.526.465-11.3.7-22.393.7-22.393l2.1-20.289s1.513-6.306,1.285-8.867,1.758-11.539,1.758-11.539a12.611,12.611,0,0,1,.93-5.6c1.167-2.365,1.632-10.026,1.632-10.026l11.2-25.656,5.517-22.622,74.037-.7s.276,1.963.725,5.517,1.08,8.836,1.781,15.354c.646,5.919,1.356,12.879,2.041,20.627C959.288,546.023,954.558,550.453,954.558,550.453Z" transform="translate(-270.585 -156.573)" fill="#21455c"/>
        <path id="Path_661" data-name="Path 661" d="M962.72,305.279l-17.262,18.428s-22.149-8.867-19.816-11.894c.9-1.174.788-4.879.236-8.962-.788-6.463-2.57-13.9-2.57-13.9s38.709-6.306,35.469.229c-1.19,2.365-.985,5.171-.244,7.748A29.161,29.161,0,0,0,962.72,305.279Z" transform="translate(-285.597 -115.576)" fill="#fbbebe"/>
        <path id="Path_662" data-name="Path 662" d="M958.756,289.2c-1.19,2.365-1.758,2.617-1.017,5.194-5.06,5.415-11.5,11.358-19.508,11.358a27.634,27.634,0,0,1-12.351-2.893c-.788-6.463-2.57-13.9-2.57-13.9S962.019,282.66,958.756,289.2Z" transform="translate(-285.597 -115.579)" opacity="0.1"/>
        <path id="Path_663" data-name="Path 663" d="M962.543,267.38a27.759,27.759,0,1,1-55.518,0c0-.134,0-.268,0-.394a27.754,27.754,0,1,1,55.506.394Z" transform="translate(-282.148 -105.667)" fill="#fbbebe"/>
        <path id="Path_664" data-name="Path 664" d="M961.578,503.05c-3.673,0-15.914.134-29.6.347h-.166l-4.516.079h-.142c-16.221.26-32.214-2.909-38.622-2.309-13.636,1.277,4.9-12.611,4.9-12.611a114.116,114.116,0,0,0,31.079,3.153l3.941-.2c12.391-.7,24.852-1.868,31.363-3.823C960.254,491.29,960.877,496.532,961.578,503.05Z" transform="translate(-277.172 -158.244)" opacity="0.1"/>
        <path id="Path_665" data-name="Path 665" d="M961.578,502.162c-3.673,0-15.914.134-29.6.347h-.166l-4.516.079h-.142c-16.221.26-32.214-2.908-38.622-2.309-13.636,1.285,4.9-12.611,4.9-12.611a114.117,114.117,0,0,0,31.079,3.153l3.941-.2c12.391-.7,24.852-1.868,31.363-3.815C960.254,490.41,960.877,495.628,961.578,502.162Z" transform="translate(-277.172 -158.057)" fill="#5f5d7e"/>
        <path id="Path_666" data-name="Path 666" d="M922.568,319.033l-21.455,10.034L884.56,457.1s9.79-4.43,15.394-1.632,22.858.236,22.858.236,12.611-.7,14.464.7,23.772-5.864,23.772-5.864,3.941-8.859.93-10.247.962-15.142.962-15.142L961.048,332.8,957.312,320.9l-10.026-6.061L937.039,323l-4.895.7Z" transform="translate(-277.39 -121.638)" opacity="0.1"/>
        <path id="Path_667" data-name="Path 667" d="M922.568,317.261l-21.455,10.026L884.56,455.324s9.79-4.43,15.394-1.632,22.858.229,22.858.229,12.611-.694,14.464.7,23.788-5.833,23.788-5.833,3.941-8.859.93-10.247.946-15.181.946-15.181l-1.892-92.347-3.736-11.886-10.026-6.069-10.247,8.166-4.895.7Z" transform="translate(-277.39 -121.261)" fill="#e7effd"/>
        <path id="Path_668" data-name="Path 668" d="M927.846,325.415s6.18,7.346,6.069,8.867-.355,5.131-.355,5.131l-4.666,9.458s-2.562,11.776-2.562,14.227-4.083,23.646-4.083,23.646L917.34,419.4l-6.18,42.8,6.306,10.838,7.456-6.306,9.916-76.267,2.1-15.039s2.215-27.051,2.215-29.85a95.653,95.653,0,0,0-1.277-10.144s1.513-7,7.811-8.67-.465-.355-.465-.355L941.6,323.5l-3.153,1.277S929.714,322.152,927.846,325.415Z" transform="translate(-283.024 -123.472)" opacity="0.1"/>
        <path id="Path_669" data-name="Path 669" d="M926.961,324.548s6.187,7.346,6.069,8.859-.355,5.131-.355,5.131L928.017,348s-2.57,11.776-2.57,14.227-4.083,23.646-4.083,23.646l-4.895,32.648-6.18,42.8,6.306,10.846,7.464-6.306,9.908-76.259,2.1-15.031s2.215-27.051,2.215-29.85a95.649,95.649,0,0,0-1.277-10.144s1.513-7,7.811-8.631-.465-.347-.465-.347l-3.618-2.916-3.153,1.285S928.829,321.277,926.961,324.548Z" transform="translate(-282.84 -123.298)" fill="#6adaf7"/>
        <path id="Path_670" data-name="Path 670" d="M925.016,309.51s-.938.7-1.167,5.368-3.5,15.157-3.5,15.157,12.131-8.394,18.192-7.464Z" transform="translate(-284.97 -120.509)" opacity="0.1"/>
        <path id="Path_671" data-name="Path 671" d="M925.016,307.74s-.938.694-1.167,5.36-3.5,15.157-3.5,15.157,12.131-8.394,18.192-7.456Z" transform="translate(-284.97 -120.134)" fill="#e7effd"/>
        <path id="Path_672" data-name="Path 672" d="M963.138,304.78,944,321.569s16.1,9.561,18.192,11.894,4.193-22.858,4.193-22.858Z" transform="translate(-289.979 -119.507)" opacity="0.1"/>
        <path id="Path_673" data-name="Path 673" d="M964.032,303,944.91,319.8s16.087,9.561,18.2,11.894,4.193-22.858,4.193-22.858Z" transform="translate(-290.172 -119.13)" fill="#e7effd"/>
        <path id="Path_674" data-name="Path 674" d="M912.217,309.463s-2.1-1.048-4.075,1.986a13.242,13.242,0,0,1-5.715,4.43s-21.227,3.381-22.07,6.18l-9.916.583s-3.5.465-3.846,7.811-2.215,8.048-2.215,8.048-4.083,7.228-3.728,10.956-3.153,5.6-3.153,5.6l14.574,37.9s.473,15.622-2.215,21.337-7.693,31.016-7.693,31.016,2.1-.465,1.978.93-2.491,16.679-2.491,16.679-.7,6.061-1.868,8.166-1.285,13.053-1.285,13.053l-1.86,7.929s4.43,9.916,11.193,8.513,19-27.863,19-27.863l7.819-28.573,6.061-28.218,1.75-19.122,2.8-42.327,4.083-27.989S913.856,311.426,912.217,309.463Z" transform="translate(-271.477 -120.462)" opacity="0.1"/>
        <path id="Path_675" data-name="Path 675" d="M911.316,307.693s-2.1-1.048-4.083,1.978a13.171,13.171,0,0,1-5.714,4.43s-21.219,3.381-22.07,6.18l-9.916.583s-3.492.473-3.846,7.819-2.215,8.04-2.215,8.04-4.083,7.236-3.728,10.964-3.153,5.6-3.153,5.6l14.582,37.9s.465,15.622-2.215,21.337-7.7,31.024-7.7,31.024,2.1-.473,1.986.93-2.57,16.671-2.57,16.671-.7,6.069-1.868,8.166-1.277,13.061-1.277,13.061L855.66,490.3s4.43,9.908,11.193,8.513,19.027-27.871,19.027-27.871l7.811-28.565,6.061-28.218,1.75-19.13,2.8-42.327,4.083-27.981S912.947,309.671,911.316,307.693Z" transform="translate(-271.27 -120.087)" fill="#21455c"/>
        <path id="Path_676" data-name="Path 676" d="M823.486,416.443l-6.763,4.666s-10.341.331-17.735-1.49l-3.76-1.671-.788-.331.788.244c3.9,1.159,6.952,1.135,9.34.331,9.569-3.224,8.513-19.027,8.142-22.6a2.986,2.986,0,0,0-.079-.678.227.227,0,0,1,0-.047l.055.095a5.217,5.217,0,0,0,.441.615c.134.15.276.307.426.457h0l3.381,6.755v.284Z" transform="translate(-258.304 -138.588)" opacity="0.1"/>
        <path id="Path_677" data-name="Path 677" d="M847.094,364.4l-3.271.93-.465,6.645s-3.846-.583-4.895,3.941a16.226,16.226,0,0,1-2.916,6.652s-6.416,5.36-6.763,9.908l-3.941,2.451s-9.214-2.1-11.311-5.833c0,0,4.2,30.086-18.192,22.74,0,0,25.073,10.956,26.24,12.477s8.859,5.943,15.859,2.215,8.513-9.459,8.513-9.459,6.763-9.459,6.991-10.846,5.517-3.035,5.517-3.035l10.026-24.253Z" transform="translate(-258.494 -132.134)" fill="#21455c"/>
        <path id="Path_678" data-name="Path 678" d="M964.249,318.394,967.63,303s1.513,5.013,3.035,6.18l5.013,3.854s5.013,2.325,6.763,2.325,11.193,2.451,12.359,3.736,5.833.347,5.833.347,3.846,1.285,7.228,2.1,5.013,6.416,4.312,8.67a6.724,6.724,0,0,0,1.631,6.306c1.4,1.4,2.1,5.951,2.1,5.951a6.826,6.826,0,0,1,3.941,3.381c1.167,2.562.788,8.158.788,8.158l-17.341,24.49s.229,9.459-.465,11.547,2.443,37.779,2.443,37.779l3.618,61.331a64.841,64.841,0,0,1-5.833,4.548c-1.048.465-2.1-21.684-2.1-22.5s-26.933-40.348-26.933-40.348-3.618-5.825-3.618-7.094-3.381-13.061-3.381-13.061l-5.131-22.74Z" transform="translate(-293.77 -119.13)" opacity="0.1"/>
        <path id="Path_679" data-name="Path 679" d="M1022.53,352.657V354l-17.341,24.435h0s.236,9.458-.457,11.539c-.41,1.222.481,13.77,1.308,24.08.583,7.433,1.135,13.7,1.135,13.7l1.537,26.011,2.073,35.312a64.562,64.562,0,0,1-5.825,4.548c-1.048.465-2.1-21.684-2.1-22.5s-26.941-40.341-26.941-40.341-3.618-5.841-3.618-7.094-3.381-13.061-3.381-13.061l-5.123-22.74,2.325-69.5L968.033,303s2.916,5.021,4.43,6.18l5.013,3.846s5.013,2.365,6.763,2.365,11.2,2.443,12.367,3.728,5.825.347,5.825.347,3.846,1.285,7.228,2.1,5.021,6.416,4.319,8.67a6.708,6.708,0,0,0,1.632,6.306c1.4,1.4,2.1,5.943,2.1,5.943a6.857,6.857,0,0,1,3.941,3.389C1022.482,347.565,1022.561,350.8,1022.53,352.657Z" transform="translate(-294.173 -119.13)" fill="#21455c"/>
        <path id="Path_680" data-name="Path 680" d="M857.48,760.14c.575,0,25.065.93,24.6,4.895S857.48,760.14,857.48,760.14Z" transform="translate(-271.655 -215.948)" opacity="0.1"/>
        <path id="Path_681" data-name="Path 681" d="M864.43,768.57s16.442,2.68,12.123,5.131S864.43,768.57,864.43,768.57Z" transform="translate(-273.127 -217.733)" opacity="0.1"/>
        <path id="Path_682" data-name="Path 682" d="M942,756.88s27.288,2.365,23.2,5.368-13.762,3.492-14.188,3.61S942,756.88,942,756.88Z" transform="translate(-289.556 -215.258)" opacity="0.1"/>
        <path id="Path_683" data-name="Path 683" d="M937.81,772.12s15.157,2.562,15.622,5.518S937.81,772.12,937.81,772.12Z" transform="translate(-288.668 -218.485)" opacity="0.1"/>
        <path id="Path_684" data-name="Path 684" d="M948.46,683.06s13.873,3.263,14.692,5.517Z" transform="translate(-290.924 -199.623)" opacity="0.1"/>
        <path id="Path_685" data-name="Path 685" d="M879.668,695.78s-7.228,2.1-.229,6.306S879.668,695.78,879.668,695.78Z" transform="translate(-275.659 -202.317)" opacity="0.1"/>
        <path id="Path_686" data-name="Path 686" d="M921.24,552.851c.788,0,13.526-4.193,17.955-2.365a29.548,29.548,0,0,0,9.908,1.884Z" transform="translate(-285.159 -171.448)" opacity="0.1"/>
        <path id="Path_687" data-name="Path 687" d="M918.875,568.748l-.126,1.159-10.838,28.47s-1.75,8.623-3.263,13.518a88.428,88.428,0,0,0-2.278,10.128l9.624-59.683Z" transform="translate(-281.162 -174.056)" opacity="0.1"/>
        <path id="Path_688" data-name="Path 688" d="M942.827,503.536l-4.516.079h-.142l-2.648-11.752,3.941-.213Z" transform="translate(-288.183 -159.085)" fill="#3f3d56"/>
        <path id="Path_689" data-name="Path 689" d="M1001.974,485.656l-2.909,2.365-9.687,7.985s-26.24,14-33.467.7c-6.369-11.713,23.378-20.076,30.543-21.9.969-.244,1.521-.37,1.521-.37Z" transform="translate(-292.314 -155.44)" fill="#fbbebe"/>
        <path id="Path_690" data-name="Path 690" d="M872.42,343.24s5.131,2.365,6.306,5.6S872.42,343.24,872.42,343.24Z" transform="translate(-274.819 -127.653)" opacity="0.1"/>
        <path id="Path_691" data-name="Path 691" d="M850.915,387.62s-7.464,9.1-4.43,12.611S850.915,387.62,850.915,387.62Z" transform="translate(-269.173 -137.052)" opacity="0.1"/>
        <path id="Path_692" data-name="Path 692" d="M1019.6,349.75s-7,.7-7.228,6.763Z" transform="translate(-304.459 -129.032)" opacity="0.1"/>
        <path id="Path_693" data-name="Path 693" d="M939.29,465.01c.694-.7,16.789-24.49,20.493-22.385Z" transform="translate(-288.982 -148.674)" opacity="0.1"/>
        <path id="Path_694" data-name="Path 694" d="M962.544,267.38a27.587,27.587,0,0,1-3.287,13.1l-.2-.039c-1.758-.37-2.672-2.42-4.02-3.7a5.462,5.462,0,0,0-6.306-.883,6.408,6.408,0,0,0-3.09,5.983c-.891-3.736-.607-7.7-1.474-11.445s-3.476-7.527-7.055-7.59c-1.576,0-3.334.56-4.453-.591-.67-.694-.788-1.789-1.308-2.641-2.554-4.13-10.333-2.042-13.51.079s-6.857,5.517-10.806,7.33a27.754,27.754,0,1,1,55.506.394Z" transform="translate(-282.149 -105.667)" opacity="0.1"/>
        <path id="Path_695" data-name="Path 695" d="M929.471,254.861c.5.843.638,1.939,1.308,2.633,1.111,1.159,2.916.56,4.453.591,3.578.063,6.187,3.846,7.055,7.59s.583,7.709,1.474,11.445a6.393,6.393,0,0,1,3.1-5.983,5.462,5.462,0,0,1,6.306.883c1.348,1.277,2.262,3.326,4.02,3.7s3.452-1.316,4.091-3.153.591-3.886,1.009-5.809c.788-3.634,3.153-6.621,4.477-10.081a18.263,18.263,0,0,0-.118-13.021c-.875-2.191-2.176-4.162-3.066-6.345-1.34-3.326-1.687-7.094-3.326-10.247-2.743-5.3-9.206-7.953-14.527-5.959-2.53.946-4.729,2.79-7.307,3.618-3.444,1.111-7.133.276-10.7-.221s-7.512-.544-10.381,1.8c-3.3,2.7-4.2,7.78-7.307,10.743-1.3,1.245-2.916,2.041-4.288,3.153a5.678,5.678,0,0,0-2.365,4.729c.2,2.412,2.57,4.6,1.695,6.842a5.516,5.516,0,0,1-1.293,1.71,24.379,24.379,0,0,0-5.644,9.6c6.235,1.955,12.99-4.926,17.877-8.182C919.146,252.819,926.918,250.723,929.471,254.861Z" transform="translate(-280.266 -101.645)" fill="#7c5c5c"/>
        <path id="Path_696" data-name="Path 696" d="M1010.3,485.656l-2.909,2.365c-2.562-4.256-13.068-12.769-13.068-12.769l.457-.441c.969-.244,1.521-.37,1.521-.37Z" transform="translate(-300.636 -155.44)" opacity="0.1"/>
        <path id="Path_697" data-name="Path 697" d="M1013.284,480.339s-1.048,2.6-2.12,4.84-2.254,4.288-2.309,2.625c-.118-3.263-13.644-14.227-13.644-14.227l1.837-1.781,2.12-2.065Z" transform="translate(-300.825 -154.442)" fill="#e7effd"/>
        <path id="Path_698" data-name="Path 698" d="M1013.778,457.609l1.537,26.011c-3.626-5.636-13.573-20.076-19.965-19.611l15.488-17.821a21.126,21.126,0,0,0,1.781-2.278C1013.2,451.343,1013.778,457.609,1013.778,457.609Z" transform="translate(-300.854 -148.974)" opacity="0.1"/>
        <path id="Path_699" data-name="Path 699" d="M1013.777,480.335s-1.048,2.6-2.12,4.84c-4.067-5.573-9.656-12.154-14.117-13.4l2.12-2.065Z" transform="translate(-301.318 -154.438)" opacity="0.1"/>
        <path id="Path_700" data-name="Path 700" d="M1025.153,363.51l4.2,3.263s6.991.118,7.693,5.951,7.094,8.513,7.094,8.513,4.776,4.777,4.776,6.991,3.618,6.18,3.618,6.534,3.5,7.464,3.027,8.741,3.736,6.881,2.451,8.978a51.726,51.726,0,0,0-2.8,5.833s-5.478,10.5-8.276,12.477-15.63,18.657-15.63,18.657-13.754,15.859-13.754,20.754c0,0-13.4-22.385-21.345-21.8l15.512-17.845s2.68-2.909,2.8-4.658,7.464-9.8,10.964-10.144c0,0,.575-4.784-.938-4.9s-2.8-3.846-2.8-3.846-10.247-12.123-10.381-19.823S1025.153,363.51,1025.153,363.51Z" transform="translate(-301.037 -131.946)" fill="#21455c"/>
        <path id="Path_701" data-name="Path 701" d="M1038.624,377.56s-9.79,7.236-7.693,9.561S1038.624,377.56,1038.624,377.56Z" transform="translate(-289.328 -134.921)" opacity="0.1"/>
        <path id="Path_702" data-name="Path 702" d="M1041.36,414.743s18.192-5.833,20.06,0Z" transform="translate(-291.599 -142.248)" opacity="0.1"/>
        <path id="Path_703" data-name="Path 703" d="M881.019,808.078s-9.8,6.416-14.692,5.518-9.916,1.639-9.916,1.639a29.542,29.542,0,0,1-12.367,8.048c-7.882,2.68-19,1.624-25.294-.473-2.979-.993-3.224-2.27-1.789-3.854,6.85,1.364,22.149,4.083,26.271,2.1,5.36-2.57,13.061-8.166,13.061-8.166s10.034-1.4,11.429-1.4c.993,0,8.741-3.2,13.116-5.029Z" transform="translate(-262.894 -225.76)" opacity="0.1"/>
        <path id="Path_704" data-name="Path 704" d="M966.122,825.15l-.1.646s-2.365,5.131-15.268,7-12.942-4.319-12.942-4.319.047-.662.126-1.663C942.035,828.366,950.973,830.1,966.122,825.15Z" transform="translate(-288.668 -229.717)" opacity="0.1"/>
        <path id="Path_705" data-name="Path 705" d="M877.776,375.79s0,26.586-2.278,29.211S877.776,375.79,877.776,375.79Z" transform="translate(-275.336 -134.547)" opacity="0.1"/>
        <path id="Path_706" data-name="Path 706" d="M1011.92,386.66l3.381,9.506S1016.649,386.833,1011.92,386.66Z" transform="translate(-304.364 -136.849)" opacity="0.1"/>
        <g id="Group_163" data-name="Group 163" transform="translate(617.818 141.204)" opacity="0.1">
          <path id="Path_707" data-name="Path 707" d="M906.766,255.554c.851-2.191-1.387-4.335-1.679-6.684a4.383,4.383,0,0,0-.37,2.112c.15,1.766,1.45,3.413,1.8,5.052A3.159,3.159,0,0,0,906.766,255.554Z" transform="translate(-899.475 -248.87)"/>
          <path id="Path_708" data-name="Path 708" d="M944.062,282.644c-.835-3.673-.591-7.567-1.442-11.248s-3.476-7.527-7.047-7.59c-1.576,0-3.342.568-4.453-.583-.678-.694-.788-1.8-1.316-2.641-2.554-4.138-10.325-2.041-13.51.079-4.729,3.153-11.319,9.8-17.435,8.3-.292.7-.56,1.419-.788,2.152,6.235,1.955,12.99-4.926,17.877-8.182,3.153-2.112,10.956-4.209,13.51-.071.5.843.638,1.939,1.308,2.633,1.111,1.159,2.916.56,4.453.591,3.578.063,6.187,3.846,7.054,7.59s.583,7.709,1.474,11.445A6.431,6.431,0,0,1,944.062,282.644Z" transform="translate(-898.07 -250.848)"/>
          <path id="Path_709" data-name="Path 709" d="M973.955,283.121c-.63,1.844-2.294,3.547-4.091,3.153s-2.672-2.42-4.012-3.7a5.517,5.517,0,0,0-6.306-.875,6.353,6.353,0,0,0-3.1,5.644,6.117,6.117,0,0,1,2.751-3.374,5.462,5.462,0,0,1,6.306.883c1.348,1.277,2.262,3.326,4.02,3.7s3.452-1.316,4.091-3.153a15.929,15.929,0,0,0,.638-3.35,8.728,8.728,0,0,1-.3,1.08Z" transform="translate(-910.433 -255.691)"/>
          <path id="Path_710" data-name="Path 710" d="M984.326,262.822c-1.308,3.46-3.689,6.44-4.477,10.081-.158.733-.252,1.482-.339,2.239.788-3.626,3.153-6.6,4.469-10.05a17.977,17.977,0,0,0,1.08-4.832,17.65,17.65,0,0,1-.733,2.562Z" transform="translate(-915.318 -251.282)"/>
        </g>
        <circle id="Ellipse_1924" data-name="Ellipse 1924" cx="0.284" cy="0.284" r="0.284" transform="translate(518.031 236.609)" fill="#e6e8ec"/>
        <ellipse id="Ellipse_1925" data-name="Ellipse 1925" cx="68.054" cy="6.944" rx="68.054" ry="6.944" transform="translate(550.947 589.538)" fill="#6c63ff" opacity="0.1"/>
        <path id="Path_711" data-name="Path 711" d="M526.695,247.388,320.57,381.116,455.086,623.727a9.388,9.388,0,0,0,5.99,4.572L582.957,658.03a9.4,9.4,0,0,0,10.672-5.052l60.456-125.6L720.342,438.8,563.11,252.787a27.863,27.863,0,0,0-36.415-5.4Z" transform="translate(-157.943 -106.405)" fill="#dcdfed"/>
        <path id="Path_712" data-name="Path 712" d="M723,440.132l-.583.788-38.811,51.888-.7.938-26.161,34.973L605.037,636.159l-1.45,3-7.3,15.157a9.4,9.4,0,0,1-10.688,5.052L463.718,629.625a9.372,9.372,0,0,1-5.99-4.572l-11.721-21.1-2.1-3.8L359.3,447.509l-.725-1.3L323.22,382.443l4.272-2.774,32.388-21.006.749-.489,68.2-44.25,4.3-2.79,96.2-62.418a27.855,27.855,0,0,1,36.431,5.391L637.5,339l3.153,3.783,52.061,61.591.284.339,26.177,30.961,3.295,3.9Z" transform="translate(-158.504 -106.683)" opacity="0.1"/>
        <path id="Path_713" data-name="Path 713" d="M699.576,421.356l-6.353,44.14-1.915,13.321-1.1,28.376-.087,2.215-5.7,148.262a9.4,9.4,0,0,1-11.437,8.8l-61.433-13.715-.662-.15L453.339,617.447l-2.893-.646L363.83,597.458l1.986-133.3.063-4.453.6-40.348.662-44.534,68.2-44.25,4.3-2.79c63.262,6.487,147.4,18.964,204.391,27.863l3.153,3.783,52.022,61.591Z" transform="translate(-167.105 -124.379)" opacity="0.1"/>
        <path id="Path_714" data-name="Path 714" d="M706.56,368.7l-7.48,52.022-6.857,47.639-1.915,13.289-1.1,28.376L683.426,660.5a9.4,9.4,0,0,1-11.437,8.8l-62.1-13.865L452.339,620.282,362.83,600.293l2.049-137.755.6-40.348.7-47.2.717-48.546c14.8-.7,39.158.883,68.235,3.807,65.106,6.534,153.859,19.753,211.887,28.856C682.552,364.682,706.56,368.7,706.56,368.7Z" transform="translate(-166.893 -124.061)" fill="#6adaf7"/>
        <path id="Path_715" data-name="Path 715" d="M716.592,470.732l-33.318,16.34L513.234,570.465,356.53,440.954,324.852,414.73,320.58,417.5l35.359,63.766L353.89,619.026,443.4,639.015l11.7,21.1a9.372,9.372,0,0,0,5.99,4.572l121.881,29.731a9.4,9.4,0,0,0,10.664-5.052l7.3-15.157,62.1,13.865a9.4,9.4,0,0,0,11.437-8.8l5.785-150.477,39.513-52.81.11-1.332Z" transform="translate(-157.945 -142.794)" opacity="0.1"/>
        <path id="Path_716" data-name="Path 716" d="M316.789,418.25,302.736,658.914a9.4,9.4,0,0,0,7.338,9.719l373.233,82.88a9.4,9.4,0,0,0,11.374-8.41l21.873-267.164-207.1,101.577Z" transform="translate(-154.162 -143.539)" fill="#dcdfed"/>
        <path id="Path_717" data-name="Path 717" d="M305.792,697.872l193.9-119.627a14.235,14.235,0,0,1,18.129,2.838l173.548,202.4c.631.725.938.2,0,0L305.792,697.872C304.688,697.628,304.83,698.447,305.792,697.872Z" transform="translate(-154.649 -176.987)" opacity="0.1"/>
        <path id="Path_718" data-name="Path 718" d="M307.49,698.59l191.9-115.922a15.047,15.047,0,0,1,19.138,3.011L690.5,783.464a2.073,2.073,0,0,1-2.01,3.381L308.112,702.381a2.065,2.065,0,0,1-.623-3.791Z" transform="translate(-154.959 -177.902)" fill="#e3e5f1"/>
        <path id="Path_646" data-name="Path 646" d="M276.617,706.813c-6.377,3.3-31.2,1.971-31.2,1.971s12.162-20.493,18.539-23.772,14.385-1.1,17.877,4.926A12.058,12.058,0,0,1,276.617,706.813Z" transform="translate(-123.027 -199.714)" fill="#6adaf7"/>
      </g>
      <g id="Group_164" data-name="Group 164" transform="translate(312.26 590.134) rotate(9)">
        <g id="Group_147" data-name="Group 147" transform="translate(2.892)">
          <path id="Path_611" data-name="Path 611" d="M4.5,19.076V2.447A1.527,1.527,0,0,1,6.047.9H9.979a5.336,5.336,0,0,1,5.35,5.35,5.127,5.127,0,0,1-1.1,3.223,6.128,6.128,0,0,1,2.836,5.092,6.052,6.052,0,0,1-6.059,6.059h-4.9A1.583,1.583,0,0,1,4.5,19.076ZM7.658,8.505h2.449A2.284,2.284,0,0,0,12.363,6.25a2.242,2.242,0,0,0-2.256-2.256H7.658Zm0,8.959H11.2a2.9,2.9,0,1,0,0-5.8H7.658Z" transform="translate(-4.5 -0.32)" fill="#fff"/>
          <path id="Path_612" data-name="Path 612" d="M30.5,19.076V2.447a1.547,1.547,0,0,1,3.094,0V17.529h7.67a1.547,1.547,0,1,1,0,3.094H32.111A1.583,1.583,0,0,1,30.5,19.076Z" transform="translate(-13.742 -0.32)" fill="#fff"/>
          <path id="Path_613" data-name="Path 613" d="M68.436,3.029a10.365,10.365,0,0,1,2.836,7.154,10.485,10.485,0,0,1-2.836,7.154,9.218,9.218,0,0,1-13.664,0A10.78,10.78,0,0,1,52,10.119a10.431,10.431,0,0,1,2.771-7.154A9.737,9.737,0,0,1,61.732,0,8.976,8.976,0,0,1,68.436,3.029Zm-.322,7.09A7.433,7.433,0,0,0,66.18,5.156a5.972,5.972,0,0,0-4.447-2,6.145,6.145,0,0,0-4.576,2,7.309,7.309,0,0,0-1.934,4.963,6.863,6.863,0,0,0,1.934,4.9,6.044,6.044,0,0,0,4.576,2,6.214,6.214,0,0,0,4.447-2A7.026,7.026,0,0,0,68.113,10.119Z" transform="translate(-21.385 0)" fill="#fff"/>
          <path id="Path_614" data-name="Path 614" d="M105.236,3.029a10.365,10.365,0,0,1,2.836,7.154,10.485,10.485,0,0,1-2.836,7.154,9.218,9.218,0,0,1-13.664,0A10.2,10.2,0,0,1,88.8,10.184a10.431,10.431,0,0,1,2.771-7.154A9.4,9.4,0,0,1,98.468,0,9.115,9.115,0,0,1,105.236,3.029Zm-.387,7.09a7.433,7.433,0,0,0-1.934-4.963,5.972,5.972,0,0,0-4.447-2,6.145,6.145,0,0,0-4.576,2,7.309,7.309,0,0,0-1.934,4.963,6.863,6.863,0,0,0,1.934,4.9,6.044,6.044,0,0,0,4.576,2,6.214,6.214,0,0,0,4.447-2A7.026,7.026,0,0,0,104.849,10.119Z" transform="translate(-34.466 0)" fill="#fff"/>
          <path id="Path_615" data-name="Path 615" d="M142.587,2.447V19.076a1.568,1.568,0,0,1-1.547,1.547,1.527,1.527,0,0,1-1.547-1.547V7.216l-4.061,5.607a1.5,1.5,0,0,1-1.289.645h0a1.682,1.682,0,0,1-1.289-.645l-4.061-5.607V19.076a1.547,1.547,0,1,1-3.094,0V2.447A1.568,1.568,0,0,1,127.247.9h.064a1.4,1.4,0,0,1,1.225.645l5.607,7.8,5.607-7.8A1.5,1.5,0,0,1,141.04.9h0A1.568,1.568,0,0,1,142.587,2.447Z" transform="translate(-47.583 -0.32)" fill="#fff"/>
          <path id="Path_616" data-name="Path 616" d="M162.5,19.076V2.447A1.527,1.527,0,0,1,164.047.9h9.217a1.568,1.568,0,0,1,1.547,1.547,1.527,1.527,0,0,1-1.547,1.547h-7.67V9.15h6.574a1.568,1.568,0,0,1,1.547,1.547,1.527,1.527,0,0,1-1.547,1.547h-6.574v6.768a1.568,1.568,0,0,1-1.547,1.547A1.438,1.438,0,0,1,162.5,19.076Z" transform="translate(-60.664 -0.32)" fill="#fff"/>
          <path id="Path_617" data-name="Path 617" d="M203.136,3.029a10.365,10.365,0,0,1,2.836,7.154,10.485,10.485,0,0,1-2.836,7.154,9.218,9.218,0,0,1-13.664,0,10.2,10.2,0,0,1-2.771-7.154,10.431,10.431,0,0,1,2.771-7.154A9.4,9.4,0,0,1,196.368,0,9.115,9.115,0,0,1,203.136,3.029Zm-.387,7.09a7.434,7.434,0,0,0-1.934-4.963,5.972,5.972,0,0,0-4.447-2,6.145,6.145,0,0,0-4.576,2,7.309,7.309,0,0,0-1.934,4.963,6.863,6.863,0,0,0,1.934,4.9,6.044,6.044,0,0,0,4.576,2,6.214,6.214,0,0,0,4.447-2A6.754,6.754,0,0,0,202.749,10.119Z" transform="translate(-69.266 0)" fill="#fff"/>
          <path id="Path_618" data-name="Path 618" d="M238.142,18.3a1.641,1.641,0,0,1-.967,2c-.129,0-.322.064-.645.064h0a2.068,2.068,0,0,1-1.1-.322,2.618,2.618,0,0,1-.9-.967,7.631,7.631,0,0,1-.58-3.352,2.293,2.293,0,0,0-.322-1.225,3.446,3.446,0,0,0-.838-.838,4.309,4.309,0,0,0-1.547-.645h-3.352V19.14a1.547,1.547,0,1,1-3.094,0V2.447A1.489,1.489,0,0,1,226.347.9h5.027a6.043,6.043,0,0,1,3.867,10.7,3.69,3.69,0,0,1,.967,1.031,5.256,5.256,0,0,1,.9,3.029,8.622,8.622,0,0,0,.129,1.676A1.505,1.505,0,0,1,238.142,18.3ZM234.21,6.959a2.888,2.888,0,0,0-2.9-2.9h-3.48v5.8h3.48A2.973,2.973,0,0,0,234.21,6.959Z" transform="translate(-82.81 -0.32)" fill="#fff"/>
          <path id="Path_619" data-name="Path 619" d="M252.6,19.076V2.447A1.489,1.489,0,0,1,254.147.9H257.5a9.861,9.861,0,1,1,0,19.723h-3.352A1.527,1.527,0,0,1,252.6,19.076Zm3.094-1.611h1.74a6.735,6.735,0,0,0,0-13.471h-1.74Z" transform="translate(-92.692 -0.32)" fill="#fff"/>
        </g>
        <g id="Group_148" data-name="Group 148" transform="translate(-0.024 29.182)">
          <path id="Path_620" data-name="Path 620" d="M90.87,45.291a615.077,615.077,0,0,1,80.631,5.93,9.639,9.639,0,0,1,2.514.516c1.16.58,2.9,1.418,2.9,2.127-.064.773-1.74,1.869-2.965,2.063a26.513,26.513,0,0,1-7.8.322A439.685,439.685,0,0,0,81.2,51.995c-20.3.838-40.412,2.707-59.877,6.9A27.946,27.946,0,0,1,3.794,57.215a13.394,13.394,0,0,1-2.836-1.8C-.718,53.928-.266,52.7,2.441,52.188c8.057-1.418,16.049-3.029,24.234-4C46.849,45.807,67.28,45.162,90.87,45.291Z" transform="translate(0.024 -45.276)" fill="#fff"/>
        </g>
      </g>
    </g>
  </g>
</svg>
