<svg xmlns="http://www.w3.org/2000/svg" xmlns:xlink="http://www.w3.org/1999/xlink" width="245.883" height="245.883" viewBox="0 0 245.883 245.883">
  <defs>
    <filter id="Ellipse_1960" x="0" y="0" width="245.883" height="245.883" filterUnits="userSpaceOnUse">
      <feOffset dx="6" dy="6" input="SourceAlpha"/>
      <feGaussianBlur stdDeviation="10" result="blur"/>
      <feFlood flood-color="#333" flood-opacity="0.09"/>
      <feComposite operator="in" in2="blur"/>
      <feComposite in="SourceGraphic"/>
    </filter>
  </defs>
  <g id="Group_182" data-name="Group 182" transform="translate(-1225 -1182)">
    <g transform="matrix(1, 0, 0, 1, 1225, 1182)" filter="url(#Ellipse_1960)">
      <circle id="Ellipse_1960-2" data-name="Ellipse 1960" cx="92.942" cy="92.942" r="92.942" transform="translate(24 24)" fill="#fff"/>
    </g>
    <g id="clock" transform="translate(1294.358 1251.611)">
      <path id="Path_1319" data-name="Path 1319" d="M97.37,46.544H90.025a.748.748,0,0,1-.727-.584,36.06,36.06,0,0,0-4.615-11.134.747.747,0,0,1,.1-.928l5.2-5.2a2.688,2.688,0,0,0,0-3.8l-6.856-6.856a2.687,2.687,0,0,0-3.8,0l-5.2,5.2a.748.748,0,0,1-.928.1,36.062,36.062,0,0,0-11.134-4.616A.746.746,0,0,1,61.482,18V10.656a2.687,2.687,0,0,0-2.687-2.687H49.1a2.687,2.687,0,0,0-2.687,2.687V18a.748.748,0,0,1-.585.727,36.042,36.042,0,0,0-11.134,4.615.746.746,0,0,1-.927-.1l-5.2-5.2a2.688,2.688,0,0,0-3.8,0L17.913,24.9a2.688,2.688,0,0,0,0,3.8l5.2,5.2a.747.747,0,0,1,.1.928A36.06,36.06,0,0,0,18.6,45.96a.748.748,0,0,1-.727.584H10.523a2.687,2.687,0,0,0-2.687,2.688v9.7a2.687,2.687,0,0,0,2.687,2.687h7.345a.748.748,0,0,1,.727.585,36.044,36.044,0,0,0,4.616,11.134.746.746,0,0,1-.1.927l-5.2,5.2a2.687,2.687,0,0,0,0,3.8L25.3,90.64a1.942,1.942,0,0,0,2.746,0l5.723-5.723a.747.747,0,0,1,.927-.1,36.06,36.06,0,0,0,11.134,4.615.748.748,0,0,1,.585.727V97.5A2.687,2.687,0,0,0,49.1,100.19h9.7A2.687,2.687,0,0,0,61.482,97.5V90.158a.748.748,0,0,1,.584-.727A36.06,36.06,0,0,0,73.2,84.816a.747.747,0,0,1,.928.1L79.85,90.64a1.942,1.942,0,0,0,2.746,0l7.383-7.383a2.688,2.688,0,0,0,0-3.8l-5.2-5.2a.747.747,0,0,1-.1-.928A36.06,36.06,0,0,0,89.3,62.2a.748.748,0,0,1,.727-.584H97.37a2.687,2.687,0,0,0,2.687-2.687v-9.7A2.687,2.687,0,0,0,97.37,46.544Zm0,0" transform="translate(-6.382 -6.49)" fill="#f8cf26"/>
      <path id="Path_1320" data-name="Path 1320" d="M165.392,130.348a25.872,25.872,0,1,0-9.469,35.341A25.872,25.872,0,0,0,165.392,130.348Zm0,0" transform="translate(-95.38 -95.622)" fill="#e4eaf8"/>
      <path id="Path_1321" data-name="Path 1321" d="M127.643,156.225A25.883,25.883,0,0,1,146.5,117.657a25.874,25.874,0,1,0,.037,51.264A25.829,25.829,0,0,1,127.643,156.225Zm0,0" transform="translate(-95.38 -95.627)" fill="#d8dce5"/>
      <path id="Path_1322" data-name="Path 1322" d="M221.263,206.278l-6.747,5.219a2.984,2.984,0,1,1-2.828-4.9h0l7.893-3.233a10.528,10.528,0,1,0,1.682,2.912Zm0,0" transform="translate(-163.614 -162.472)" fill="#6adaf7"/>
      <path id="Path_1323" data-name="Path 1323" d="M207.87,215.285a10.529,10.529,0,0,1,6.331-15.417,10.528,10.528,0,1,0,.009,20.307A10.494,10.494,0,0,1,207.87,215.285Zm0,0" transform="translate(-163.614 -162.475)" fill="#21455c"/>
      <path id="Path_1324" data-name="Path 1324" d="M275.225,204.189a.571.571,0,0,0-.565-.981l-15.577,6.381a2.982,2.982,0,0,1,2.828,4.9Zm0,0" transform="translate(-211.008 -165.464)" fill="#ff6b6b"/>
      <path id="Path_1325" data-name="Path 1325" d="M250.43,238.6a3.146,3.146,0,1,0-1.151,4.3A3.145,3.145,0,0,0,250.43,238.6Zm0,0" transform="translate(-199.18 -193.047)" fill="#ee5253"/>
      <path id="Path_1326" data-name="Path 1326" d="M249.208,241.756a3.148,3.148,0,0,1,.614-3.906,3.149,3.149,0,1,0,0,4.665A3.136,3.136,0,0,1,249.208,241.756Zm0,0" transform="translate(-199.184 -193.053)" fill="#d83941"/>
      <g id="Group_343" data-name="Group 343" transform="translate(1.454 1.479)">
        <path id="Path_1327" data-name="Path 1327" d="M63.888,74.675a.747.747,0,0,1,.1.928,36.06,36.06,0,0,0-4.615,11.134.748.748,0,0,1-.727.584h5.567a.746.746,0,0,0,.726-.584A36.044,36.044,0,0,1,69.556,75.6a.747.747,0,0,0-.1-.928l-5.2-5.2a2.687,2.687,0,0,1,0-3.8l5.973-5.973-.884-.884a2.688,2.688,0,0,0-3.8,0L58.692,65.68a2.688,2.688,0,0,0,0,3.8Zm0,0" transform="translate(-48.615 -48.746)" fill="#f4b537"/>
        <path id="Path_1328" data-name="Path 1328" d="M64.259,318.717a2.687,2.687,0,0,1,0-3.8l5.2-5.2a.747.747,0,0,0,.1-.927,36.061,36.061,0,0,1-4.616-11.134.747.747,0,0,0-.726-.585H58.647a.748.748,0,0,1,.727.585,36.06,36.06,0,0,0,4.615,11.134.746.746,0,0,1-.1.927l-5.2,5.2a2.688,2.688,0,0,0,0,3.8l7.383,7.383a1.942,1.942,0,0,0,2.746,0l1.411-1.411Zm0,0" transform="translate(-48.615 -243.429)" fill="#f4b537"/>
        <path id="Path_1329" data-name="Path 1329" d="M13.4,228.242v-9.7a2.687,2.687,0,0,1,2.687-2.688H10.523a2.687,2.687,0,0,0-2.687,2.688v9.7a2.687,2.687,0,0,0,2.687,2.687H16.09A2.686,2.686,0,0,1,13.4,228.242Zm0,0" transform="translate(-7.836 -177.284)" fill="#f4b537"/>
        <path id="Path_1330" data-name="Path 1330" d="M215.849,7.969a2.687,2.687,0,0,0-2.687,2.687V18a.748.748,0,0,1-.584.727l4.87-.576a1.452,1.452,0,0,0,1.281-1.442V10.656a2.687,2.687,0,0,1,2.687-2.687Zm0,0" transform="translate(-174.587 -7.969)" fill="#f4b537"/>
        <path id="Path_1331" data-name="Path 1331" d="M218.73,455.057v-5.643a1.915,1.915,0,0,0-1.691-1.9l-4.461-.527a.747.747,0,0,1,.584.727v7.345a2.687,2.687,0,0,0,2.687,2.687h5.567A2.687,2.687,0,0,1,218.73,455.057Zm0,0" transform="translate(-174.587 -365.523)" fill="#f4b537"/>
      </g>
      <path id="Path_1332" data-name="Path 1332" d="M160.117,123.217c-10.448-18.1-36.676-18.147-47.159-.1-.022.032-.043.064-.063.1a1.374,1.374,0,0,0-.066.13,27.282,27.282,0,0,0,23.721,40.777C157.569,164.124,170.489,141.181,160.117,123.217Zm-44.08,27.057.96-.554a1.392,1.392,0,0,0-1.392-2.411l-.96.554a24.308,24.308,0,0,1-2.575-9.623h1.105a1.392,1.392,0,1,0,0-2.783h-1.1a24.668,24.668,0,0,1,2.577-9.618l.953.55A1.392,1.392,0,1,0,117,123.978l-.957-.552a24.289,24.289,0,0,1,7.042-7.046l.554.96a1.392,1.392,0,1,0,2.41-1.392l-.553-.958a24.3,24.3,0,0,1,9.622-2.576v1.1a1.392,1.392,0,1,0,2.783,0v-1.1A24.67,24.67,0,0,1,147.516,115l-.549.951a1.392,1.392,0,0,0,2.411,1.392l.553-.958a24.314,24.314,0,0,1,7.044,7.043l-.958.554a1.391,1.391,0,1,0,1.392,2.41l.96-.554a24.294,24.294,0,0,1,2.575,9.623h-1.105a1.392,1.392,0,0,0,0,2.783h1.1a24.683,24.683,0,0,1-2.577,9.618l-.953-.55a1.392,1.392,0,1,0-1.392,2.411l.957.552A24.486,24.486,0,0,1,116.037,150.274Zm0,0" transform="translate(-88.962 -89.274)" fill="#21455c"/>
      <path id="Path_1333" data-name="Path 1333" d="M222.257,195.724a1.963,1.963,0,0,0-1.945-3.368l-6.773,2.775a11.916,11.916,0,1,0,2.929,5.072Zm-12.693,15.633a9.145,9.145,0,1,1,1.131-15.062l-5.843,2.394a4.375,4.375,0,1,0,4.191,7.257l4.994-3.863A9.091,9.091,0,0,1,209.564,211.357Zm-2.123-8.27a1.591,1.591,0,1,1-1.879-1.7A1.593,1.593,0,0,1,207.441,203.087Zm2.6-1.43a4.45,4.45,0,0,0-.973-1.686l6.7-2.746Zm0,0" transform="translate(-157.251 -155.986)" fill="#21455c"/>
      <path id="Path_1334" data-name="Path 1334" d="M310.255,265a1.392,1.392,0,0,0-1.392,1.392v1.786a1.3,1.3,0,0,1-1.3,1.3h-7.345a2.13,2.13,0,0,0-2.084,1.666,34.6,34.6,0,0,1-4.437,10.7,2.129,2.129,0,0,0,.3,2.651l5.2,5.2a1.3,1.3,0,0,1,0,1.832l-7.383,7.383a.55.55,0,0,1-.778,0l-5.723-5.723a2.129,2.129,0,0,0-2.652-.3,34.6,34.6,0,0,1-10.7,4.437,2.13,2.13,0,0,0-1.666,2.084v7.345a1.3,1.3,0,0,1-1.3,1.3h-1.6a1.392,1.392,0,0,0,0,2.783h1.6a4.083,4.083,0,0,0,4.079-4.079v-6.833a37.359,37.359,0,0,0,10.633-4.407l5.361,5.36a3.332,3.332,0,0,0,4.715,0l7.382-7.382a4.083,4.083,0,0,0,0-5.768l-4.834-4.834a37.37,37.37,0,0,0,4.408-10.632h6.833a4.084,4.084,0,0,0,4.079-4.079v-1.787A1.392,1.392,0,0,0,310.255,265Zm0,0" transform="translate(-216.642 -215.828)" fill="#21455c"/>
      <path id="Path_1335" data-name="Path 1335" d="M90.926,38.575H84.093a37.368,37.368,0,0,0-4.407-10.632L84.52,23.11a4.085,4.085,0,0,0,0-5.768l-6.856-6.856a4.076,4.076,0,0,0-5.769,0l-4.833,4.833a37.378,37.378,0,0,0-10.632-4.407V4.079A4.083,4.083,0,0,0,52.351,0h-9.7a4.083,4.083,0,0,0-4.079,4.079v6.833a37.373,37.373,0,0,0-10.633,4.407L23.11,10.485a4.084,4.084,0,0,0-5.769,0l-6.855,6.856a4.083,4.083,0,0,0,0,5.768l4.834,4.833a37.359,37.359,0,0,0-4.408,10.632H4.079A4.083,4.083,0,0,0,0,42.654v9.7a4.083,4.083,0,0,0,4.079,4.079h6.833a37.348,37.348,0,0,0,4.407,10.632l-4.834,4.834a4.085,4.085,0,0,0,0,5.768l7.383,7.383a3.332,3.332,0,0,0,4.715,0l5.36-5.361a37.371,37.371,0,0,0,10.632,4.408v6.833A4.084,4.084,0,0,0,42.654,95h1.6a1.392,1.392,0,1,0,0-2.783h-1.6a1.3,1.3,0,0,1-1.3-1.3V83.581A2.129,2.129,0,0,0,39.693,81.5a34.58,34.58,0,0,1-10.7-4.437,2.129,2.129,0,0,0-2.651.3l-5.723,5.723a.55.55,0,0,1-.778,0L12.453,75.7a1.3,1.3,0,0,1,0-1.832l5.2-5.2a2.129,2.129,0,0,0,.3-2.651,34.6,34.6,0,0,1-4.437-10.7,2.13,2.13,0,0,0-2.084-1.666H4.079a1.3,1.3,0,0,1-1.3-1.3v-9.7a1.3,1.3,0,0,1,1.3-1.3h7.345a2.13,2.13,0,0,0,2.084-1.666,34.6,34.6,0,0,1,4.437-10.7,2.13,2.13,0,0,0-.3-2.651l-5.2-5.2a1.3,1.3,0,0,1,0-1.832l6.856-6.856a1.3,1.3,0,0,1,1.832,0l5.2,5.2a2.129,2.129,0,0,0,2.652.3,34.6,34.6,0,0,1,10.7-4.437,2.13,2.13,0,0,0,1.666-2.084V4.079a1.3,1.3,0,0,1,1.3-1.3h9.7a1.3,1.3,0,0,1,1.3,1.3v7.345a2.13,2.13,0,0,0,1.666,2.084,34.61,34.61,0,0,1,10.7,4.437,2.13,2.13,0,0,0,2.651-.3l5.2-5.2a1.3,1.3,0,0,1,1.832,0l6.856,6.856a1.3,1.3,0,0,1,0,1.832l-5.2,5.2a2.128,2.128,0,0,0-.3,2.651,34.6,34.6,0,0,1,4.437,10.7,2.129,2.129,0,0,0,2.084,1.666h7.345a1.3,1.3,0,0,1,1.3,1.3v1.416a1.392,1.392,0,1,0,2.783,0V42.654A4.084,4.084,0,0,0,90.926,38.575Zm0,0" transform="translate(0 0)" fill="#21455c"/>
    </g>
  </g>
</svg>
