<svg id="home" xmlns="http://www.w3.org/2000/svg" width="19.06" height="15.168" viewBox="0 0 19.06 15.168">
  <g id="Group_136" data-name="Group 136" transform="translate(0 0)">
    <path id="Path_599" data-name="Path 599" d="M72.507,120.939l-6.8,5.6a.16.16,0,0,1-.006.035.162.162,0,0,0-.006.035v5.674a.768.768,0,0,0,.757.757h4.539v-4.54h3.027v4.54H78.56a.768.768,0,0,0,.757-.757v-5.674a.166.166,0,0,0-.012-.071Z" transform="translate(-62.978 -117.877)" fill="#6adaf7"/>
    <path id="Path_600" data-name="Path 600" d="M18.928,54.383l-2.589-2.152V47.408a.364.364,0,0,0-.378-.378h-2.27a.364.364,0,0,0-.378.378v2.305L10.428,47.3a1.467,1.467,0,0,0-1.8,0l-8.5,7.081a.343.343,0,0,0-.13.254.383.383,0,0,0,.083.278l.733.875a.4.4,0,0,0,.248.13.439.439,0,0,0,.284-.083l8.181-6.821,8.181,6.821a.364.364,0,0,0,.248.082h.036a.4.4,0,0,0,.248-.13l.733-.875a.383.383,0,0,0,.082-.278A.344.344,0,0,0,18.928,54.383Z" transform="translate(0.001 -46.994)" fill="#6adaf7"/>
  </g>
</svg>
