<svg id="telephone" xmlns="http://www.w3.org/2000/svg" width="17.688" height="17.688" viewBox="0 0 17.688 17.688">
  <g id="Group_137" data-name="Group 137" transform="translate(0)">
    <path id="Path_603" data-name="Path 603" d="M13.453,56.14a1.239,1.239,0,0,0-1.873,0c-.438.434-.876.869-1.307,1.31a.258.258,0,0,1-.361.066c-.283-.155-.585-.28-.858-.449a13.588,13.588,0,0,1-3.276-2.981A7.761,7.761,0,0,1,4.6,52.206a.269.269,0,0,1,.066-.346c.438-.423.865-.858,1.3-1.292a1.244,1.244,0,0,0,0-1.918c-.342-.346-.685-.685-1.027-1.031s-.7-.71-1.06-1.06a1.247,1.247,0,0,0-1.873,0c-.442.434-.865.88-1.314,1.307a2.133,2.133,0,0,0-.67,1.439A6.1,6.1,0,0,0,.49,51.933a15.947,15.947,0,0,0,2.83,4.715,17.516,17.516,0,0,0,5.8,4.538,8.39,8.39,0,0,0,3.213.935,2.355,2.355,0,0,0,2.021-.769c.375-.42.8-.8,1.2-1.2a1.252,1.252,0,0,0,.007-1.907Q14.51,57.187,13.453,56.14Z" transform="translate(-0.006 -44.439)" fill="#6adaf7"/>
    <path id="Path_604" data-name="Path 604" d="M241.844,101.234,243.2,101a6.1,6.1,0,0,0-5.157-5l-.191,1.366a4.712,4.712,0,0,1,3.99,3.868Z" transform="translate(-229.099 -92.466)" fill="#6adaf7"/>
    <path id="Path_605" data-name="Path 605" d="M248.687,2.864A10.015,10.015,0,0,0,242.945,0l-.191,1.366a8.739,8.739,0,0,1,7.395,7.166l1.358-.232A10.088,10.088,0,0,0,248.687,2.864Z" transform="translate(-233.819)" fill="#6adaf7"/>
  </g>
</svg>
