<svg xmlns="http://www.w3.org/2000/svg" width="27.398" height="17.531" viewBox="0 0 27.398 17.531">
  <g id="google-plus" transform="translate(0 -82.519)">
    <path id="Path_606" data-name="Path 606" d="M9.613,93.093h4.281a5.442,5.442,0,1,1-1.477-5.835.59.59,0,0,0,.8,0l1.572-1.48a.588.588,0,0,0,0-.854,8.733,8.733,0,0,0-5.852-2.4,8.765,8.765,0,1,0,8.576,9.257c.007-.058.011-2.012.011-2.012H9.613a.587.587,0,0,0-.587.587v2.152A.587.587,0,0,0,9.613,93.093Z" transform="translate(0)" fill="#fff"/>
    <path id="Path_607" data-name="Path 607" d="M329.277,165.826v-2.1a.515.515,0,0,0-.515-.515h-1.77a.515.515,0,0,0-.515.515v2.1h-2.1a.515.515,0,0,0-.515.515v1.77a.515.515,0,0,0,.515.515h2.1v2.1a.515.515,0,0,0,.515.515h1.77a.515.515,0,0,0,.515-.515v-2.1h2.1a.515.515,0,0,0,.515-.515v-1.77a.515.515,0,0,0-.515-.515Z" transform="translate(-304.496 -75.864)" fill="#fff"/>
  </g>
</svg>
