<svg xmlns="http://www.w3.org/2000/svg" width="23.04" height="18.725" viewBox="0 0 23.04 18.725">
  <path id="Path" d="M20.681,4.664c.009.2.014.406.014.612A13.358,13.358,0,0,1,7.246,18.725,13.384,13.384,0,0,1,0,16.6a9.717,9.717,0,0,0,1.128.065A9.481,9.481,0,0,0,7,14.644a4.731,4.731,0,0,1-4.417-3.282,4.774,4.774,0,0,0,2.136-.082A4.728,4.728,0,0,1,.926,6.646v-.06a4.7,4.7,0,0,0,2.141.592A4.73,4.73,0,0,1,1.6.865,13.421,13.421,0,0,0,11.347,5.8,4.729,4.729,0,0,1,19.4,1.493a9.459,9.459,0,0,0,3-1.146,4.75,4.75,0,0,1-2.078,2.615,9.486,9.486,0,0,0,2.714-.744,9.622,9.622,0,0,1-2.359,2.447Z" fill="#fff"/>
</svg>
