<svg xmlns="http://www.w3.org/2000/svg" width="17.34" height="13.005" viewBox="0 0 17.34 13.005">
  <g id="mail-black-envelope-symbol" transform="translate(0 -60.651)">
    <path id="Path_610" data-name="Path 610" d="M17.34,71.489a2.148,2.148,0,0,1-.278,1.043l-5.475-6.126L17,61.667a2.152,2.152,0,0,1,.338,1.151ZM8.67,67.518l7.536-6.594a2.141,2.141,0,0,0-1.033-.273H2.168a2.133,2.133,0,0,0-1.032.273Zm2.1-.4L9.027,68.646a.544.544,0,0,1-.713,0L6.569,67.119l-5.544,6.2a2.141,2.141,0,0,0,1.143.333H15.173a2.141,2.141,0,0,0,1.143-.333ZM.338,61.667A2.152,2.152,0,0,0,0,62.819v8.67a2.141,2.141,0,0,0,.278,1.043L5.753,66.4Z" fill="#6adaf7"/>
  </g>
</svg>
