<svg id="instagram" xmlns="http://www.w3.org/2000/svg" width="23.927" height="23.927" viewBox="0 0 23.927 23.927">
  <g id="Group_142" data-name="Group 142">
    <g id="Group_141" data-name="Group 141">
      <path id="Path_608" data-name="Path 608" d="M16.45,0H7.477A7.478,7.478,0,0,0,0,7.477V16.45a7.478,7.478,0,0,0,7.477,7.477H16.45a7.478,7.478,0,0,0,7.477-7.477V7.477A7.478,7.478,0,0,0,16.45,0Zm5.234,16.45a5.24,5.24,0,0,1-5.234,5.234H7.477A5.24,5.24,0,0,1,2.243,16.45V7.477A5.24,5.24,0,0,1,7.477,2.243H16.45a5.24,5.24,0,0,1,5.234,5.234Z" fill="#fff"/>
    </g>
  </g>
  <g id="Group_144" data-name="Group 144" transform="translate(5.982 5.982)">
    <g id="Group_143" data-name="Group 143">
      <path id="Path_609" data-name="Path 609" d="M133.982,128a5.982,5.982,0,1,0,5.982,5.982A5.982,5.982,0,0,0,133.982,128Zm0,9.72a3.739,3.739,0,1,1,3.739-3.739A3.744,3.744,0,0,1,133.982,137.72Z" transform="translate(-128 -128)" fill="#fff"/>
    </g>
  </g>
  <g id="Group_146" data-name="Group 146" transform="translate(17.597 4.736)">
    <g id="Group_145" data-name="Group 145">
      <circle id="Ellipse_76" data-name="Ellipse 76" cx="0.797" cy="0.797" r="0.797" fill="#fff"/>
    </g>
  </g>
</svg>
