<svg xmlns="http://www.w3.org/2000/svg" xmlns:xlink="http://www.w3.org/1999/xlink" width="207.982" height="207.982" viewBox="0 0 207.982 207.982">
  <defs>
    <filter id="Rectangle_114" x="0" y="0" width="207.982" height="207.982" filterUnits="userSpaceOnUse">
      <feOffset dx="6" dy="6" input="SourceAlpha"/>
      <feGaussianBlur stdDeviation="10" result="blur"/>
      <feFlood flood-opacity="0.2"/>
      <feComposite operator="in" in2="blur"/>
      <feComposite in="SourceGraphic"/>
    </filter>
  </defs>
  <g id="Group_797" data-name="Group 797" transform="translate(-1243 -2180.926)">
    <g transform="matrix(1, 0, 0, 1, 1243, 2180.93)" filter="url(#Rectangle_114)">
      <rect id="Rectangle_114-2" data-name="Rectangle 114" width="147.982" height="147.982" rx="30" transform="translate(24 24)" fill="#fff"/>
    </g>
    <g id="Group_73" transform="translate(1303.258 2236.33)">
      <path id="Path_148" d="M37.623,84.267l-.112,0h-.017a6.118,6.118,0,0,1-6.087-5.45v-.085a.83.83,0,0,1,0-.567c.357-.969-.1-1.225-1.087-1.786a.857.857,0,0,0-.264-.176c-3.389-1.9-7.23-4.112-9.076-5.173l-.005,0-.2-.116-.018-.011-.134-.077-.11-.063-.173-.1-.063-.037-.019-.011-.129-.074-.018-.01-.765-.438-.019-.011-.087-.05-.023-.014-2.891-1.659c-1.373-.77-2.836-1.608-4.086-2.326l-.089-.051L12.02,65.9l-.149-.086-.08-.046-.044-.025-.118-.068-.056-.032-.058-.033-.235-.135-.233-.134A5.042,5.042,0,0,1,10.392,65a5.946,5.946,0,0,1-7.238.785,5.752,5.752,0,0,1-3.14-5.537A5.857,5.857,0,0,1,3.677,54.8a.87.87,0,0,0,.61-1c-.044-7.455-.044-15.434-.044-23.151,0-.522-.086-.61-.523-.829A5.856,5.856,0,0,1,.058,24.364,5.8,5.8,0,0,1,3.5,18.652a5.986,5.986,0,0,1,6.539.741c.046,0,.089.043.127.081l0,0c.154.1.217.141.278.141a.353.353,0,0,0,.15-.052l.005,0c5.35-3.145,11.324-6.615,14.534-8.479l.3-.177.189-.11.354-.205.04-.023.179-.1.2-.114.12-.07.183-.106.128-.074.005,0,.139-.081.007,0,.15-.088L31.056,7.66a7.472,7.472,0,0,1,.785-4.736A5.834,5.834,0,0,1,35.373.248,6,6,0,0,1,37.1,0a6.138,6.138,0,0,1,6.082,6.963c-.089.4-.035.527.3.7,6.539,3.733,12.044,6.885,16.829,9.636l4.012,2.311a6.3,6.3,0,0,1,3.986-1.424,4.854,4.854,0,0,1,.592.028A6.166,6.166,0,0,1,74.4,23.225a6.042,6.042,0,0,1-3.444,6.669c-.492.222-.567.4-.567.916.044,7.237.044,14.861.044,22.933,0,.525.041.654.479.828a5.786,5.786,0,0,1,3.706,5.32l-.005,0a5.591,5.591,0,0,1-3.31,5.668,5.8,5.8,0,0,1-6.54-.48.738.738,0,0,0-.43-.2,1.212,1.212,0,0,0-.529.2c-7.263,4.261-13.163,7.675-19.576,11.379a.906.906,0,0,0-.61,1.09,6,6,0,0,1-5.407,6.67A4.125,4.125,0,0,1,37.623,84.267Zm.1-8.642h-.07l-.028,0a2.6,2.6,0,0,0-2.6,2.483,2.53,2.53,0,0,0,.522,1.569,3.482,3.482,0,0,1-.085-.7,2.634,2.634,0,0,1,2.616-2.528h.043a2.571,2.571,0,0,1,2.006,1A2.507,2.507,0,0,0,37.722,75.625ZM22.995,52.214,12.357,58.8V61.98L33.11,73.927a.994.994,0,0,0,.134-.089l.011-.008.01-.007a.88.88,0,0,1,.106-.07L14.013,62.634V59.451l9.853-6.1c-.143-.184-.276-.358-.409-.532l-.066-.087c-.092-.121-.235-.308-.4-.514Zm28.863-.085h0a17.825,17.825,0,0,1-12.513,7.5V72.183a4.921,4.921,0,0,0,.48.261,7.028,7.028,0,0,1,1.657,1,.716.716,0,0,0,.478.251,1.255,1.255,0,0,0,.438-.118c-.151-.086-.3-.163-.452-.237s-.3-.151-.464-.243a4.866,4.866,0,0,0-.48-.261V60.282A17.767,17.767,0,0,0,53.34,53l-1.482-.872ZM6.248,57.749a2.828,2.828,0,0,0-2.7,2.66,2.677,2.677,0,0,0,.522,1.528,3.6,3.6,0,0,1-.085-.655,2.729,2.729,0,0,1,2.66-2.7h.044a2.7,2.7,0,0,1,2.093,1.134,2.7,2.7,0,0,0-2.528-1.962h0Zm60.432.612h0a2.959,2.959,0,0,0-.828,1.787,2.531,2.531,0,0,0,.523,1.569,3.364,3.364,0,0,1-.085-.7,2.593,2.593,0,0,1,.785-1.831,2.531,2.531,0,0,1,1.787-.741h.044A2.629,2.629,0,0,1,70.954,59.5a2.59,2.59,0,0,0-2.441-1.875h-.044a2.527,2.527,0,0,0-1.787.741Zm-34.7.482h0a20.235,20.235,0,0,0,3.7,1.132v-.349A17,17,0,0,1,31.983,58.843Zm.732-15.17h0a1.17,1.17,0,0,1,.044.392c.046.654.086,1.221.131,1.831a21.143,21.143,0,0,0,2.354,8.327,3.56,3.56,0,0,0,1.57,1.7,5.611,5.611,0,0,1-.741-1.047,21.691,21.691,0,0,1-2.355-8.327c-.049-.64-.092-1.24-.131-1.832a1.208,1.208,0,0,1-.043-.392v-.04h8.24a1.986,1.986,0,0,1,.018-.253l0-.019V44l0-.015,0-.02v0l0-.028,0-.017,0-.018v-.008c.006-.068.012-.146.012-.22H32.714ZM10.526,28.713,7.91,30.2V33.03c0,6.945,0,14.126.044,21.189,0,.09.131.222.261.306.571.351,1.217.674,1.737.934l.011,0,.019.01.021.011a1.835,1.835,0,0,1,.435.261l.218-.131c-.119-.079-.253-.152-.371-.217l-.008,0-.013-.007-.005,0-.015-.008-.014-.008-.023-.012c-.121-.065-.259-.141-.38-.222a1.6,1.6,0,0,1-.261-.306c-.044-7.062-.044-14.244-.044-21.189V30.806L11.877,29.5Zm53.4.176h0L53.249,34.818a18.274,18.274,0,0,1,.262,14.213l1.443.829,1.179.7.977.578.023.013c2.27,1.344,4.839,2.866,7.281,4.291a1.155,1.155,0,0,0,.307-.086.153.153,0,0,1,.085-.044c-1.637-.937-3.313-1.925-4.791-2.8-1.215-.717-2.309-1.362-3.405-2l-1.442-.828a18.37,18.37,0,0,0-.262-14.213l10.42-5.8-1.395-.785ZM45.408,43.714a28.476,28.476,0,0,1-2.485,11.249,12.311,12.311,0,0,0,1.395-.7,31.263,31.263,0,0,0,1.918-9.94H51.16a2.905,2.905,0,0,0,0-.61ZM23.6,43.67h0a13.628,13.628,0,0,0,5.886,9.984,13.511,13.511,0,0,1-5.058-9.33h4.753a2.535,2.535,0,0,0-.02-.271l0-.013,0-.015a2.711,2.711,0,0,1-.02-.311l0-.044H23.6ZM37.211,28.361c-.856,0-1.551.664-2.011,1.921a57.1,57.1,0,0,0-2.049,6.45,16.06,16.06,0,0,0-.306,2.573c0,.124-.01.241-.021.36v.019l0,.026v.013c-.009.1-.018.205-.018.323h.872v-.085a11.707,11.707,0,0,1,.3-2.573,59.473,59.473,0,0,1,2.049-6.451c.484-1.273,1.189-1.918,2.093-1.918h.016a1.565,1.565,0,0,1,.182.013l.013,0,.014,0,.021,0,.019,0,.01,0a1.592,1.592,0,0,0,.206.019,1.594,1.594,0,0,0-1.308-.7Zm5.8,1.14h0a30.912,30.912,0,0,1,2.4,10.508h.785a29.172,29.172,0,0,0-2.353-9.853,9.132,9.132,0,0,1,2.311,1.177,10.2,10.2,0,0,0-3.14-1.832Zm-11.553.042c-3.96,1.652-7.463,6.327-7.808,10.42h.916a14.23,14.23,0,0,1,6.5-9.156,1.683,1.683,0,0,1,.059-.186l0-.011,0-.012,0-.006,0-.005,0-.011,0-.006,0-.007.005-.014a2.476,2.476,0,0,0,.088-.264,3.519,3.519,0,0,0,.222-.742ZM32.979,10.8a1.456,1.456,0,0,0-.523.218C27.587,13.877,22.3,16.933,18.05,19.389l-.143.082-.1.06-.017.01-.178.1-.128.074-1.237.715-1.3.749-.014.008-.514.3-.514.3-.006,0-.046.027-.535.309-.015.008-.348.2-.011.007-.242.14c-.466.254-.528.386-.349.741a2.542,2.542,0,0,1,.044,1.134v.654a1.489,1.489,0,0,0,.218.568c1.1.637,2.212,1.282,3.852,2.226l.008,0,.046.027,0,0c1.548.89,3.207,1.845,4.984,2.885L23.3,31.769a.444.444,0,0,1,.089-.112l.006-.006a.424.424,0,0,0,.079-.1l-.3-.174-1.076-.614-.1-.055-.069-.04L21.9,30.65l-.033-.019-.088-.05-.088-.05c-2.413-1.378-4.906-2.8-7.413-4.3-.089-.044-.177-.319-.218-.567a3.229,3.229,0,0,1,0-.655,5.086,5.086,0,0,0-.044-1.134c-.132-.44-.035-.572.392-.828C22.14,18.6,28.416,14.956,34.156,11.581H34.2a2.253,2.253,0,0,1-.829-.567l-.033-.025,0,0a.144.144,0,0,1-.021-.015l-.011-.009C33.17,10.859,33.09,10.8,32.979,10.8ZM44.45,26.188h0a18,18,0,0,1,7.015,5.58l.789-.435a17.53,17.53,0,0,0-7.8-5.145Zm23.863-4.405a2.593,2.593,0,0,0-2.595,2.485,2.559,2.559,0,0,0,.522,1.613,4.451,4.451,0,0,1-.085-.741,2.525,2.525,0,0,1,.752-1.808,2.494,2.494,0,0,1,1.761-.721h.1a2.568,2.568,0,0,1,2.006,1,2.409,2.409,0,0,0-2.343-1.834l-.1,0Zm-62.145-.13a2.513,2.513,0,0,0-1.789.741,2.544,2.544,0,0,0-.741,1.832,2.652,2.652,0,0,0,.52,1.525,3.932,3.932,0,0,1-.085-.7A2.532,2.532,0,0,1,6.6,22.481h.077a2.549,2.549,0,0,1,2.056,1.047,2.66,2.66,0,0,0-2.528-1.875ZM41.378,10.742a.849.849,0,0,0-.638.36,3.08,3.08,0,0,1-1.443.784c-.311.089-.392.135-.392.7V24.225a1.64,1.64,0,0,0,.02.211v.008a1.633,1.633,0,0,1,.021.218c.811.125,1.245.193,1.657.261V13.239c0-.565.081-.611.392-.7a3.075,3.075,0,0,0,1.443-.785,1.028,1.028,0,0,1,.436-.348c-.055-.027-.122-.064-.206-.111l-.012-.007-.044-.024-.013-.007,0,0c-.142-.08-.222-.124-.287-.154A2.017,2.017,0,0,0,41.378,10.742Zm-4.353-7.1a2.506,2.506,0,0,0-1.784.739A2.537,2.537,0,0,0,34.5,6.219a2.441,2.441,0,0,0,.523,1.57,4.506,4.506,0,0,1-.085-.741,2.534,2.534,0,0,1,.738-1.834,2.506,2.506,0,0,1,1.784-.739h.05a2.646,2.646,0,0,1,2.093,1.047,2.614,2.614,0,0,0-2.52-1.875h-.061Z" transform="translate(1.292 0.846)" fill="#f4f4f4"/>
      <path id="Path_149" d="M0,11.248A29.485,29.485,0,0,0,2.485,0H8.24c.175,1.613-.61,3.793-2.093,5.973A14.309,14.309,0,0,1,0,11.248Z" transform="translate(44.255 44.56)" fill="#6adaf7"/>
      <path id="Path_150" d="M9.068,0c-.174,3.662-.7,7.455-2.659,10.769-.436.7-1.09,1.569-1.875,1.569h0c-.654,0-1.4-.654-2.006-1.787A21.247,21.247,0,0,1,.174,2.224C.131,1.613.089,1.047.043.392A1.209,1.209,0,0,0,0,0Z" transform="translate(34.054 44.56)" fill="#6adaf7"/>
      <path id="Path_151" d="M8.763,11.684H0c0-.261.043-.48.043-.741A15.977,15.977,0,0,1,.349,8.371,58.663,58.663,0,0,1,2.4,1.92C2.877.612,3.618-.042,4.491,0,5.45,0,5.973.83,6.584,1.964,8.111,4.8,8.677,7.806,9.026,11.687Z" transform="translate(34.053 29.213)" fill="#6adaf7"/>
      <path id="Path_152" d="M2.4,10.507A30.918,30.918,0,0,0,0,0,13.424,13.424,0,0,1,8.11,10.507Z" transform="translate(44.298 30.347)" fill="#6adaf7"/>
      <path id="Path_153" d="M7.8,0c-.085.261-.174.48-.261.741a40.594,40.594,0,0,0-1.22,4.1,41.947,41.947,0,0,0-.7,4.185c-.043.48-.131.959-.218,1.443H0C.345,6.322,3.876,1.7,7.8,0Z" transform="translate(24.944 30.39)" fill="#6adaf7"/>
      <path id="Path_154" d="M5.537,0a29.8,29.8,0,0,0,2.4,11.074A13.585,13.585,0,0,1,0,0Z" transform="translate(24.897 44.56)" fill="#6adaf7"/>
      <path id="Path_155" d="M0,5.929,10.681,0l2.834,1.613V25.331c-.131.085-.261.131-.392.218l-1.7.916a.906.906,0,0,1-.261.085C8.024,24.718,4.8,22.8,1.7,20.969L.261,20.141A18.268,18.268,0,0,0,0,5.929Z" transform="translate(55.416 29.736)" fill="#f2f3f4"/>
      <path id="Path_156" d="M23.368,14.657a2.784,2.784,0,0,1-.085.306c-3.055,1.7-6.147,3.444-9.156,5.1l-1.569.872A17.54,17.54,0,0,0,.044,13.96c0-.131-.044-.306-.044-.436V1.88c0-.567.085-.61.392-.7A3.078,3.078,0,0,0,1.835.4c.48-.523.741-.523,1.569-.043,4.838,2.834,9.766,5.625,14.519,8.371,1.613.916,3.183,1.832,4.8,2.747.261.131.48.261.7.392v.61C23.411,13.175,23.411,13.916,23.368,14.657Z" transform="translate(41.03 11.678)" fill="#f2f3f4"/>
      <path id="Path_157" d="M23.186,2.53c-.043,2.834-.043,5.625-.043,8.589v2.834A17.716,17.716,0,0,0,10.979,21.06L9.191,20.013C6.136,18.226,3.218,16.569.3,14.868A1.49,1.49,0,0,1,.079,14.3v-.654a2.517,2.517,0,0,0-.043-1.134c-.085-.436-.043-.567.392-.828C7.055,7.848,13.725,4.011,20.178.218A1.458,1.458,0,0,1,20.7,0c.131,0,.218.085.392.218a2.267,2.267,0,0,0,1.177.7C23.1,1.048,23.186,1.4,23.186,2.53Z" transform="translate(14.311 11.685)" fill="#f2f3f4"/>
      <path id="Path_158" d="M0,6.584,10.638,0A17.685,17.685,0,0,0,23.325,7.412v4.1c0,2.66.043,5.406.085,8.11,0,.436-.043.523-.392.7a10.278,10.278,0,0,0-1.744,1.047,3.323,3.323,0,0,0-.48.349L.041,9.811V6.585Z" transform="translate(14.477 53.062)" fill="#f2f3f4"/>
      <path id="Path_159" d="M0,7.5A17.813,17.813,0,0,0,12.513,0l1.482.872C17,2.616,20.1,4.447,23.107,6.278a1.092,1.092,0,0,1,.085.436,3.369,3.369,0,0,1-.085.654,2.688,2.688,0,0,0,0,1.443c.261.741.043.959-.828,1.443-6.1,3.532-12.382,7.151-19.1,11.119-.48.261-.61.261-1-.043a6.992,6.992,0,0,0-1.657-1,4.759,4.759,0,0,1-.48-.261V7.5Z" transform="translate(41.421 52.975)" fill="#f2f3f4"/>
      <path id="Path_160" d="M0,4.317V1.483L2.616,0,13.429,6.235A18.056,18.056,0,0,0,13.3,20.361L2.573,26.988l-.523-.261c-.61-.306-1.22-.61-1.787-.959C.132,25.683,0,25.55,0,25.462,0,18.442,0,11.248,0,4.317Z" transform="translate(10.029 29.562)" fill="#f2f3f4"/>
      <path id="Path_161" d="M0,2.529A2.513,2.513,0,0,1,2.573,0h.044a2.595,2.595,0,0,1-.043,5.188A2.442,2.442,0,0,1,.742,4.4,2.751,2.751,0,0,1,0,2.529Z" transform="translate(66.621 22.847)" fill="#fbc316"/>
      <path id="Path_162" d="M.785.741A2.546,2.546,0,0,1,2.573,0h.043A2.644,2.644,0,0,1,5.189,2.616,2.524,2.524,0,0,1,2.573,5.144,2.611,2.611,0,0,1,.742,4.359,2.573,2.573,0,0,1,0,2.528,2.267,2.267,0,0,1,.785.741Z" transform="translate(66.795 58.685)" fill="#fbc316"/>
      <path id="Path_163" d="M4.4,4.361a2.611,2.611,0,0,1-1.831.785A2.532,2.532,0,0,1,0,2.574,2.5,2.5,0,0,1,2.574,0,2.587,2.587,0,0,1,5.19,2.574,2.894,2.894,0,0,1,4.4,4.361Z" transform="translate(35.403 4.709)" fill="#fbc316"/>
      <path id="Path_164" d="M2.572,0h0A2.594,2.594,0,1,1,.741,4.4,2.546,2.546,0,0,1,0,2.616,2.587,2.587,0,0,1,2.573,0Z" transform="translate(35.928 76.692)" fill="#fbc316"/>
      <path id="Path_165" d="M2.659,0h0a2.747,2.747,0,0,1,2.66,2.573,2.679,2.679,0,0,1-2.7,2.7h0A2.682,2.682,0,0,1,0,2.66,2.729,2.729,0,0,1,2.659,0Z" transform="translate(4.492 58.817)" fill="#fbc316"/>
      <path id="Path_166" d="M4.447,4.36a2.611,2.611,0,0,1-1.831.785A2.57,2.57,0,0,1,.785,4.4,2.611,2.611,0,0,1,0,2.573,2.532,2.532,0,0,1,2.573,0h0A2.606,2.606,0,0,1,5.189,2.529,2.257,2.257,0,0,1,4.447,4.36Z" transform="translate(4.493 22.673)" fill="#fbc316"/>
      <path id="Path_167" d="M37.623,84.267l-.112,0h-.017a6.118,6.118,0,0,1-6.087-5.45v-.085a.83.83,0,0,1,0-.567c.357-.969-.1-1.225-1.087-1.786a.857.857,0,0,0-.264-.176c-3.631-2.042-7.7-4.381-9.23-5.262l-.043-.024-.036-.021-.007,0-.144-.083-.218-.125-.16-.092-.127-.073,0,0-.926-.532,0,0-.314-.18-.021-.011-.552-.317-.019-.011-.341-.2-1.588-.911c-1.7-.955-3.421-1.941-4.877-2.78l-.019-.011-.127-.073-.132-.076-.072-.04-.049-.029A5.021,5.021,0,0,1,10.392,65a5.946,5.946,0,0,1-7.238.785,5.752,5.752,0,0,1-3.14-5.537A5.857,5.857,0,0,1,3.677,54.8a.869.869,0,0,0,.61-1c-.044-7.455-.044-15.434-.044-23.151,0-.522-.086-.61-.522-.829A5.855,5.855,0,0,1,.058,24.364,5.8,5.8,0,0,1,3.5,18.652a5.986,5.986,0,0,1,6.539.741c.046,0,.087.041.131.085l.005,0c.151.1.213.137.273.137a.377.377,0,0,0,.157-.056c4.342-2.551,9.737-5.7,16.033-9.348l.008-.005.467-.271,0,0,0,0,.008-.005L31.057,7.66a7.47,7.47,0,0,1,.785-4.736A5.849,5.849,0,0,1,35.373.248,6.019,6.019,0,0,1,37.1,0a6.139,6.139,0,0,1,6.083,6.963c-.09.4-.036.527.3.7,5.193,2.961,10.7,6.113,16.83,9.636l4.011,2.311a6.306,6.306,0,0,1,3.986-1.424,4.993,4.993,0,0,1,.592.028A6.167,6.167,0,0,1,74.4,23.225a6.04,6.04,0,0,1-3.444,6.67c-.492.223-.567.405-.567.916.044,7.237.044,14.861.044,22.933,0,.525.041.654.48.829a5.785,5.785,0,0,1,3.706,5.319,5.635,5.635,0,0,1-3.316,5.67,5.8,5.8,0,0,1-6.54-.48.738.738,0,0,0-.43-.2,1.213,1.213,0,0,0-.529.2c-7.289,4.276-13.667,7.966-19.576,11.379a.906.906,0,0,0-.61,1.09,6,6,0,0,1-5.407,6.67A4.092,4.092,0,0,1,37.623,84.267Zm.045-8.639h-.024a2.595,2.595,0,0,0,0,5.188h.047a2.595,2.595,0,0,0,0-5.19ZM22.995,52.216,12.357,58.8l.041,0v3.225l20.754,11.9a3.338,3.338,0,0,1,.48-.349,10.265,10.265,0,0,1,1.744-1.046c.345-.172.393-.257.393-.7l0-.3v-.065c-.037-2.387-.079-5.092-.079-7.746v-4.1A17.673,17.673,0,0,1,22.995,52.216Zm28.819-.086h0a17.828,17.828,0,0,1-12.514,7.5h.044V72.2a5.079,5.079,0,0,0,.48.261,7,7,0,0,1,1.657,1,.82.82,0,0,0,.485.235,1.2,1.2,0,0,0,.518-.191c5.879-3.476,11.418-6.678,16.774-9.775l.03-.017.055-.032,1.161-.672,1.077-.623c.894-.5,1.085-.717.829-1.443a2.676,2.676,0,0,1,0-1.443,3.286,3.286,0,0,0,.085-.654,1.1,1.1,0,0,0-.085-.436c-2.764-1.683-5.83-3.5-9.112-5.407l-1.483-.872ZM6.252,57.753a2.728,2.728,0,0,0-2.659,2.66,2.68,2.68,0,0,0,2.615,2.616h.023a2.664,2.664,0,0,0,1.9-.785,2.692,2.692,0,0,0,.784-1.918A2.734,2.734,0,0,0,6.252,57.753Zm60.429.611a2.529,2.529,0,0,0-.044,3.619,2.594,2.594,0,0,0,1.832.784h.093a2.522,2.522,0,0,0,2.522-2.53,2.634,2.634,0,0,0-2.572-2.615h-.044a2.533,2.533,0,0,0-1.787.741ZM41.83,43.715H32.761a1.28,1.28,0,0,1,.044.393l.028.4v.009c.009.131.018.26.028.387v.016c.009.135.018.269.028.4l.044.614a21.136,21.136,0,0,0,2.354,8.327c.6,1.119,1.353,1.787,2.006,1.787.8,0,1.454-.9,1.875-1.569C41.227,51.009,41.669,47.09,41.83,43.715Zm-31.306-15L7.909,30.2V54.178c0,.088.135.223.261.306.554.341,1.155.642,1.736.933l.011.005.041.021.523.262,10.725-6.627a18.057,18.057,0,0,1,.131-14.126Zm53.41.176L53.253,34.821a18.366,18.366,0,0,1,.26,14.258l1.443.829,2.258,1.337.008,0,.264.157.264.156.116.069.042.025.074.044.186.11.052.031.063.037c1.113.659,3.719,2.2,6.133,3.611a.986.986,0,0,0,.262-.085l1.7-.916a1.552,1.552,0,0,1,.2-.112,1.886,1.886,0,0,0,.19-.105V30.5ZM45.448,43.715a29.241,29.241,0,0,1-2.485,11.249,14.281,14.281,0,0,0,6.148-5.275c1.5-2.209,2.265-4.386,2.093-5.973Zm-21.886,0A13.629,13.629,0,0,0,31.5,54.789a29.7,29.7,0,0,1-2.4-11.075ZM37.169,28.368c-.855,0-1.551.664-2.011,1.92a59,59,0,0,0-2.049,6.451,15.817,15.817,0,0,0-.3,2.573c0,.113-.009.226-.018.322v.012l0,.026v.005l0,.018v.018c-.01.1-.019.218-.019.339h8.764l.261,0c-.336-3.74-.88-6.825-2.442-9.723-.6-1.112-1.133-1.962-2.093-1.962Zm-5.717,1.176h0c-4.027,1.726-7.455,6.324-7.8,10.467h5.407l.007-.037.005-.029c.077-.418.164-.89.206-1.376a42.023,42.023,0,0,1,.7-4.185,41.391,41.391,0,0,1,1.221-4.1c.029-.086.062-.179.1-.286l.019-.053.007-.018c.034-.091.084-.229.135-.384ZM43.008,29.5a30.849,30.849,0,0,1,2.4,10.508h5.711A13.329,13.329,0,0,0,43.008,29.5ZM32.849,10.839a1.457,1.457,0,0,0-.523.218c-4.9,2.879-10.12,5.9-14.729,8.564l-.007,0-.012.007,0,0-.16.092-.254.147,0,0-1.383.8-.028.016-2.5,1.446-.667.386c-.447.268-.475.4-.393.828a2.532,2.532,0,0,1,.044,1.134v.654a1.469,1.469,0,0,0,.218.568c1.172.684,2.374,1.377,3.933,2.273l.209.12.095.055.17.1.247.143c1.35.778,2.789,1.608,4.239,2.457L23.126,31.9A17.713,17.713,0,0,1,35.29,24.792V21.958c0-2.96,0-5.756.044-8.59.043-1.149-.066-1.479-.916-1.614a2.253,2.253,0,0,1-1.177-.7L33.2,11.03,33.173,11C33.04,10.9,32.96,10.839,32.849,10.839Zm8.568-.047c-.222,0-.4.108-.669.4a3.082,3.082,0,0,1-1.443.785c-.311.088-.392.134-.392.7V24.312a1.551,1.551,0,0,0,.021.213v.005l0,.014a1.461,1.461,0,0,1,.02.2,17.558,17.558,0,0,1,12.513,6.976l1.57-.872c1.515-.834,3.1-1.722,4.507-2.5l.235-.131.187-.105,0,0,.166-.092.009-.005.02-.011.021-.011.309-.173.014-.008.558-.312.011-.006.13-.073c1.1-.619,2.081-1.163,2.984-1.665a2.884,2.884,0,0,0,.085-.306c.021-.341.021-.672.022-1.023s0-.772.029-1.158v-.61l-.017-.01-.018-.011c-.133-.08-.38-.23-.663-.371-.733-.417-1.557-.888-2.448-1.4l0,0-.032-.018-.176-.1c-.536-.309-1.346-.775-2.136-1.223-1.12-.647-2.415-1.393-3.851-2.215l-.456-.262-.453-.26-.127-.073-.273-.157L51.6,16.51l-.005,0-.137-.079,0,0-.148-.085-.047-.027-.006,0-.051-.03c-1.954-1.119-5.587-3.2-8.89-5.135A2.05,2.05,0,0,0,41.416,10.792ZM68.279,21.786a2.494,2.494,0,0,0-1.761.721,2.526,2.526,0,0,0-.752,1.807,2.4,2.4,0,0,0,.742,1.877,2.449,2.449,0,0,0,1.794.785h.037a2.595,2.595,0,0,0,.044-5.189h-.1ZM6.169,21.61a2.532,2.532,0,0,0-2.532,2.573,2.594,2.594,0,0,0,.784,1.831,2.557,2.557,0,0,0,1.805.741h.026a2.572,2.572,0,1,0-.033-5.145h-.05ZM37.044,3.645a2.48,2.48,0,0,0-1.765.732,2.508,2.508,0,0,0-.73,1.842,2.532,2.532,0,0,0,2.531,2.573h.042a2.592,2.592,0,0,0,1.832-.785,2.909,2.909,0,0,0,.784-1.787,2.609,2.609,0,0,0-.773-1.83,2.573,2.573,0,0,0-1.814-.742h-.029Z" transform="translate(0.463 0.235)" fill="#21455c"/>
    </g>
  </g>
</svg>
