<svg xmlns="http://www.w3.org/2000/svg" xmlns:xlink="http://www.w3.org/1999/xlink" width="207.982" height="207.982" viewBox="0 0 207.982 207.982">
  <defs>
    <filter id="Rectangle_115" x="0" y="0" width="207.982" height="207.982" filterUnits="userSpaceOnUse">
      <feOffset dx="6" dy="6" input="SourceAlpha"/>
      <feGaussianBlur stdDeviation="10" result="blur"/>
      <feFlood flood-opacity="0.2"/>
      <feComposite operator="in" in2="blur"/>
      <feComposite in="SourceGraphic"/>
    </filter>
  </defs>
  <g id="Group_798" data-name="Group 798" transform="translate(-1243 -2375.098)">
    <g transform="matrix(1, 0, 0, 1, 1243, 2375.1)" filter="url(#Rectangle_115)">
      <rect id="Rectangle_115-2" data-name="Rectangle 115" width="147.982" height="147.982" rx="30" transform="translate(24 24)" fill="#fff"/>
    </g>
    <g id="Group_140" transform="translate(1304.629 2429.746)">
      <g id="Group_133" transform="translate(2.125 1.609)">
        <path id="Path_537" d="M8.187,61.064h0A8.222,8.222,0,0,1,.051,54.026v-.1a.772.772,0,0,0-.011-.116v-.033A1.063,1.063,0,0,1,.019,53.6c-.062-.8.029-1.271.3-1.539.255-.287.663-.393,1.506-.393H4.538v-.2a3.282,3.282,0,0,0,.033-.52V43.619c0-7.323,0-14.895-.033-22.359a4.049,4.049,0,0,1,1.146-2.913A3.8,3.8,0,0,1,8.37,17.225c.105,0,.175,0,.227.007,4.485.033,9.028.033,13.422.033h6.057a9.889,9.889,0,0,1-3.371-8.511A9.3,9.3,0,0,1,27.913,2.5a9.79,9.79,0,0,1,13-.066A9.6,9.6,0,0,1,44.248,9.9a9.8,9.8,0,0,1-3.4,7.366H60.516a3.583,3.583,0,0,1,3.7,2.325,5.439,5.439,0,0,1,.3,1.9V51.7h2.979c.667,0,1.05.1,1.242.324a1.778,1.778,0,0,1,.328,1.31,8.051,8.051,0,0,1-7.729,7.693h-19.9c-10.847,0-22.064,0-33.1.033H8.187ZM29.1,57.532h0a2.855,2.855,0,0,0,1.9.719h.027c1.187.016,2.658.025,4.371.025s3.183-.008,4.37-.025a3.046,3.046,0,0,0,2.98-2.848,2.182,2.182,0,0,1,.015-.238v-.007a2.3,2.3,0,0,0,.017-.246v-.2h23.21a3.1,3.1,0,0,0,.131-.524H41.924v.2a2.273,2.273,0,0,1-.017.246,2.373,2.373,0,0,0-.016.245,3.011,3.011,0,0,1-2.979,2.848c-1.195.016-2.669.025-4.383.025s-3.177-.008-4.358-.025h-.036A2.848,2.848,0,0,1,29.1,57.532ZM2.966,54.157v.066a.386.386,0,0,0,.019.119A.263.263,0,0,1,3,54.419a5.55,5.55,0,0,0,2.946,3.666,5.878,5.878,0,0,1-2.1-3.143.418.418,0,0,1-.032-.2V54.68H27.159a1.1,1.1,0,0,1-.033-.327v-.2Zm26.746.069c-.064.485-.035.75.1.883a1.374,1.374,0,0,0,.665.172,1.2,1.2,0,0,0,.152-.009h7.923c.427,0,.655-.066.785-.229.12-.148.14-.385.067-.817ZM8.63,19.751c-1.26,0-1.6.345-1.6,1.6V51.67h.688V21.879c0-1.26.345-1.6,1.6-1.6H20.971l.1-.1a5.128,5.128,0,0,1,.426-.426Zm1.44,29.725c.223.413.674.589,1.507.589H58.945c1.273,0,1.7-.43,1.7-1.7V23.975c0-.951-.256-1.416-.883-1.6a2.518,2.518,0,0,1,.2,1.114V47.873c0,1.273-.429,1.7-1.7,1.7H10.81a2.688,2.688,0,0,1-.74-.1ZM11.707,24.3V47.055h.688V24.991H17.3a1.41,1.41,0,0,1,.131-.328c.031-.06.061-.114.089-.163l.005-.009,0-.007.015-.027.017-.031.013-.023.011-.021.013-.025.028-.054Zm5.142,15.878c.192.572.618.785,1.572.785H52.2c1.033,0,1.473-.431,1.473-1.44V38.348c0-.684,0-1.34.006-2.035v-.334c.007-1.545.015-3.143-.007-4.833a13.313,13.313,0,0,0-1.375-5.8,1.19,1.19,0,0,0-.13-.3l-.033-.066h5.333V24.3H51.449l.033.066a1.214,1.214,0,0,0,.067.152l.005.011.005.011a.943.943,0,0,1,.054.122,13.214,13.214,0,0,1,1.374,5.8v8.38c0,.982-.468,1.44-1.473,1.44H17.646A3.337,3.337,0,0,1,16.849,40.181Zm28.7-9.955h-.061a1.217,1.217,0,0,1,.556.917,3.685,3.685,0,0,1,.033.622c.033,1.14.033,2.265,0,3.437v2.618h.688V31.93a3.684,3.684,0,0,0-.033-.622A1.182,1.182,0,0,0,45.553,30.227Zm-20.634,0-.085,0a1.152,1.152,0,0,1,.556.883,4.77,4.77,0,0,1,.033.688v5.99h.688V32a4.761,4.761,0,0,0-.033-.688,1.162,1.162,0,0,0-1.159-1.083Zm4.345-10.508a10.621,10.621,0,0,0-10.389,8.248,28.715,28.715,0,0,0-.327,7.3c.035.85.066,1.683.066,2.521H19.3c0-.79-.034-1.612-.065-2.338v-.019a28.822,28.822,0,0,1,.327-7.3A10.731,10.731,0,0,1,30,19.884h2.1V19.72H29.286Zm9.932,0c-.337,0-.686.011-1.037.033-.394.033-.809.033-1.211.033v.622l.164,2.062c.155,1.8.311,3.622.49,5.746v.017l.063.74v.014c.108,1.275.219,2.578.328,3.86a1.993,1.993,0,0,1-.622,1.768L36.292,35.7c-.258.227-.5.465-.785.753a1.614,1.614,0,0,1-.95.459,1.247,1.247,0,0,0,1.635-.3c.248-.213.5-.462.735-.7l.013-.013.038-.038c.224-.246.486-.5.7-.7l.027-.026.066-.065c.093-.091.193-.188.29-.285a1.992,1.992,0,0,0,.622-1.768l-.132-1.561-.01-.121q-.05-.6-.1-1.2l-.011-.138v0q-.318-3.767-.627-7.349l-.163-2.062v-.622h.025c.2,0,.4-.008.581-.016h.022c.129-.005.37-.015.583-.015.351-.022.7-.033,1.035-.033a16.277,16.277,0,0,1,1.78.1,9.449,9.449,0,0,1,.956.159l.015,0,.011,0a12.349,12.349,0,0,0-1.67-.327A16.351,16.351,0,0,0,39.2,19.722Zm-4.638,1.4-.031.319v.018c-.187,1.9-.326,3.439-.426,4.7l-.006.069-.008.092-.007.076-.008.089,0,.049-.007.076c-.121,1.37-.287,3.246-.48,5.048a1.983,1.983,0,0,0,.687,2,2.134,2.134,0,0,1-.359-1.635c.155-1.464.283-2.877.435-4.572l.009-.1v0q.037-.412.074-.822l.027-.293,0-.026.006-.064v-.015l.007-.074.005-.064.01-.108c.063-.7.158-1.75.269-2.764-.029-.267-.051-.52-.08-.875v-.013c-.027-.328-.051-.6-.082-.879A.6.6,0,0,1,34.558,21.126Zm13.22-1.375a.55.55,0,0,0-.191.034,5.706,5.706,0,0,1,.458.393c.086.079.172.157.257.234l.056.05.007.007.007.007.007.007c.3.272.612.553.909.873a1.084,1.084,0,0,0,.524.36l-.139-.124,0,0c-.355-.323-.635-.577-.972-.888-.065-.052-.126-.105-.188-.161l-.015-.013-.01-.009-.007-.007c-.069-.062-.15-.134-.237-.2a.767.767,0,0,1,.218-.034H61.269a3.417,3.417,0,0,1,.622.065c-.187-.407-.59-.589-1.31-.589h-12.8ZM27.161,9.8h0a7.262,7.262,0,0,0,3.993,6.614A7.4,7.4,0,0,1,35.314,2.959H35.4a7.115,7.115,0,0,1,3.248.786,7.066,7.066,0,0,0-4.109-1.31h-.085a7.415,7.415,0,0,0-7.3,7.366h0Z" transform="translate(0 12.733)" fill="#f4f4f4"/>
        <path id="Path_538" d="M7.12,21.387h0a1.691,1.691,0,0,1-.36-.066,1.261,1.261,0,0,1-.883-1.309v-3.83H3.944c-.043,0-.091,0-.146,0A3.731,3.731,0,0,1,1.2,15.143,3.768,3.768,0,0,1,.048,12.45c-.064-2.832-.064-5.713,0-8.806A3.767,3.767,0,0,1,3.715.043C4.763.011,5.827.011,6.857.011H21.393c.1-.007.2-.011.286-.011a3.851,3.851,0,0,1,3.84,4.136c0,2.811,0,5.467-.033,8.052a3.765,3.765,0,0,1-3.754,4.036c-.091,0-.182,0-.272-.01h-2.1c-1.947,0-3.961,0-5.958.033a1.525,1.525,0,0,0-.883.36c-.7.658-1.407,1.351-2.091,2.02l-.037.036,0,0c-.327.32-.707.692-1.076,1.05-.188.188-.38.372-.565.549l-.024.023-.035.034c-.182.175-.37.356-.556.541A1.476,1.476,0,0,1,7.12,21.387Zm1.146-6.875a2.176,2.176,0,0,1,.1.688v1.932l.229.159a6.42,6.42,0,0,1,.458-.52v-.883A1.264,1.264,0,0,0,8.266,14.512ZM3.8,2.491A1.273,1.273,0,0,0,2.537,3.94v8.249a1.3,1.3,0,0,0,.784,1.374,2.148,2.148,0,0,1-.1-.687V4.627a1.272,1.272,0,0,1,1.26-1.449,1.346,1.346,0,0,1,.147.009H22.316a1.962,1.962,0,0,1,.614.1A1.277,1.277,0,0,0,21.588,2.5H3.945A1.345,1.345,0,0,0,3.8,2.491Z" transform="translate(43.61 0)" fill="#f4f4f4"/>
      </g>
      <g id="Group_139" transform="translate(1.439 1.086)">
        <path id="Path_539" d="M5.7.365c-.163.36-.3.687-.459,1.015a13.45,13.45,0,0,0-.916,5.172V14.31c0,1.309.36,1.67,1.67,1.67H39.775c1.015,0,1.473-.459,1.473-1.44V6.159a13.12,13.12,0,0,0-1.375-5.8c-.033-.1-.1-.2-.131-.3L39.709,0h6.023V22.752H0V0H5.926a2.194,2.194,0,0,0-.23.36Z" transform="translate(12.428 37.719)" fill="#f7f8fb"/>
        <path id="Path_540" d="M5.3,4.419A5.383,5.383,0,0,1,.033.262C.033.2,0,.163,0,.065V0H24.16V.2c0,.2.033.36.033.52a2.985,2.985,0,0,0,2.979,2.848c2.881.033,5.828.033,8.741,0A3.007,3.007,0,0,0,38.891.716c0-.163.033-.327.033-.491v-.2H63.116A5.258,5.258,0,0,1,61.97,2.481a4.962,4.962,0,0,1-4.125,1.932Z" transform="translate(3.818 67.415)" fill="#6adaf7"/>
        <path id="Path_541" d="M14.011.426c-.557.52-1.08,1.048-1.635,1.538a.966.966,0,0,1-.459.065H3.832c-1.309,0-1.735.426-1.735,1.734V28.09c0,1.309.426,1.735,1.7,1.735h47.37c1.277,0,1.7-.426,1.7-1.7V3.733c0-1.244-.426-1.7-1.67-1.7H43.279a1.338,1.338,0,0,1-1.048-.426c-.393-.426-.817-.785-1.244-1.179a5.728,5.728,0,0,0-.458-.393c.1,0,.2-.033.262-.033H53.559c1.08,0,1.473.393,1.473,1.473V31.427a1.342,1.342,0,0,1-.033.36v.131H0V1.6C0,.36.327,0,1.6,0H14.47C14.306.131,14.175.3,14.011.426Z" transform="translate(7.714 33.009)" fill="#6adaf7"/>
        <path id="Path_542" d="M1,12.7a1.988,1.988,0,0,1-.95-2.161c.2-1.833.36-3.7.524-5.5C.7,3.372.87,1.67,1.031,0a.554.554,0,0,0,.033.229c.065.817.163,1.67.23,2.488s.131,1.635.2,2.423c.131,1.833.3,3.732.491,5.6A2.023,2.023,0,0,1,1,12.7Z" transform="translate(33.887 34.253)" fill="#fbc316"/>
        <path id="Path_543" d="M12.67,0h.916l-.131,1.539c-.1,1.08-.163,2.16-.262,3.241l-.1,1.342q-.3,3.634-.589,7.268A1.579,1.579,0,0,0,13,14.732l1.08,1.08c.328.327.622.655.95.949a1.3,1.3,0,0,0,2,0c.262-.262.524-.52.785-.753l1.08-1.08a2,2,0,0,0,.622-1.768c-.3-3.47-.589-6.973-.884-10.378L18.465.72V.1c.392,0,.817,0,1.211-.033a16.163,16.163,0,0,1,2.816.065,10.612,10.612,0,0,1,9.461,10.443c.065,1.7.065,3.437.033,5.107V17.91a.416.416,0,0,1-.033.2v.033H27.6V12.082a3.939,3.939,0,0,0-.033-.622,1.18,1.18,0,0,0-1.309-1.08,1.208,1.208,0,0,0-1.115,1.277v6.416H6.941V12.082a5.033,5.033,0,0,0-.033-.687A1.155,1.155,0,0,0,5.6,10.346a1.218,1.218,0,0,0-1.08,1.244v6.481H.164c0-.851-.033-1.7-.065-2.521a28.684,28.684,0,0,1,.327-7.3A10.676,10.676,0,0,1,10.869,0Z" transform="translate(19.236 32.616)" fill="#6adaf7"/>
        <path id="Path_544" d="M7.334,0a7.262,7.262,0,0,1,5.107,2.095,7.5,7.5,0,0,1,2.193,5.336A7.378,7.378,0,0,1,7.3,14.8h0A7.287,7.287,0,0,1,0,7.4,7.384,7.384,0,0,1,7.3.033C7.3,0,7.3,0,7.334,0Z" transform="translate(28.043 15.691)" fill="#f7f8fb"/>
        <path id="Path_545" d="M5.872,12.677A1.3,1.3,0,0,0,4.4,11.2H1.518A1.349,1.349,0,0,1,.012,9.7V1.449A1.272,1.272,0,0,1,1.42.009H19.064a1.3,1.3,0,0,1,1.44,1.44V9.764a1.292,1.292,0,0,1-1.473,1.44h-2c-2.128,0-4.321,0-6.514-.033a2.362,2.362,0,0,0-2,.817c-.589.687-1.179,1.342-1.768,2-.229.262-.459.524-.72.785l-.229-.131v-.557a10.135,10.135,0,0,0,.065-1.407Z" transform="translate(46.789 3.178)" fill="#fbc316"/>
        <g id="Group_138" transform="translate(0 0)">
          <g id="Group_137">
            <path id="Path_546" d="M8.188,61.067h0a8.222,8.222,0,0,1-8.135-7.04v-.1A.719.719,0,0,0,.04,53.81v-.032A1.054,1.054,0,0,1,.018,53.6c-.062-.8.03-1.272.3-1.539.253-.287.661-.393,1.505-.393H4.537v-.2a3.092,3.092,0,0,0,.033-.52V43.62c0-7.323,0-14.895-.033-22.359a4.054,4.054,0,0,1,1.146-2.914,3.8,3.8,0,0,1,2.685-1.121c.1,0,.171,0,.228.007,4.486.033,9.029.033,13.422.033h6.057A9.887,9.887,0,0,1,24.7,8.753,9.3,9.3,0,0,1,27.912,2.5a9.79,9.79,0,0,1,13-.066A9.6,9.6,0,0,1,44.248,9.9a9.8,9.8,0,0,1-3.4,7.366H60.515a3.582,3.582,0,0,1,3.7,2.324,5.39,5.39,0,0,1,.3,1.9V51.7h2.979c.666,0,1.049.1,1.243.327a1.764,1.764,0,0,1,.327,1.31,8.05,8.05,0,0,1-7.729,7.693h-19.9c-10.848,0-22.065,0-33.1.033H8.188Zm9.844-2.481c2.979,0,6.017.007,9.03.021H60.781c.064,0,.13,0,.194,0a4.992,4.992,0,0,0,3.931-1.936,5.266,5.266,0,0,0,1.146-2.452H41.86v.2a2.32,2.32,0,0,1-.017.246c-.007.072-.016.161-.016.245a3.012,3.012,0,0,1-2.98,2.848c-1.482.016-2.957.025-4.382.025s-2.892-.008-4.358-.025a2.979,2.979,0,0,1-2.98-2.848c0-.081-.008-.164-.015-.237s-.017-.182-.017-.287v-.2H2.936v.066a.386.386,0,0,0,.019.119.258.258,0,0,1,.014.078,5.4,5.4,0,0,0,5.27,4.158C11.478,58.595,14.773,58.586,18.032,58.586Zm11.683-4.36h0c-.065.486-.036.75.1.883a1.373,1.373,0,0,0,.817.164h7.922c.428,0,.656-.066.786-.229.117-.12.138-.372.067-.818ZM8.635,19.753c-1.26,0-1.6.345-1.6,1.6V51.67h55v-.131a1.3,1.3,0,0,0,.033-.359V21.225c0-1.074-.4-1.473-1.473-1.473H47.82a.613.613,0,0,0-.1.012l-.009,0-.013,0h-.014a.829.829,0,0,1-.128.014,5.675,5.675,0,0,1,.458.393q.161.147.32.291c.322.29.625.564.924.888a1.342,1.342,0,0,0,.98.428l.068,0h7.923c1.233,0,1.669.446,1.669,1.7V47.873c0,1.273-.43,1.7-1.7,1.7H10.828A1.783,1.783,0,0,1,9.5,49.2a1.859,1.859,0,0,1-.373-1.359V23.518c0-1.314.422-1.736,1.736-1.736h8.086a.83.83,0,0,0,.1,0,.944.944,0,0,0,.361-.07c.368-.325.708-.652,1.069-1l.019-.018.033-.032c.156-.151.333-.321.515-.491a5.81,5.81,0,0,0,.461-.426ZM11.743,24.3V47.051H57.476V24.3H51.452l.033.066a1.145,1.145,0,0,0,.066.151,1.111,1.111,0,0,1,.064.146,13.192,13.192,0,0,1,1.375,5.8v8.381c0,.983-.468,1.441-1.473,1.441H17.732c-1.311,0-1.669-.359-1.669-1.67V30.851a13.381,13.381,0,0,1,.916-5.172c.106-.218.2-.429.294-.645.053-.12.107-.243.165-.371a2.134,2.134,0,0,1,.231-.365Zm33.2,5.8a1.179,1.179,0,0,1,1.176,1.087,3.836,3.836,0,0,1,.033.622V37.86H50.5v-.033a.415.415,0,0,0,.033-.2V35.4c.037-1.9.027-3.568-.033-5.106a10.618,10.618,0,0,0-9.46-10.443,15.964,15.964,0,0,0-1.778-.1c-.334,0-.684.011-1.038.033-.394.032-.81.032-1.212.032v.622l.164,2.063c.158,1.835.325,3.787.509,5.967l0,.029.056.653,0,.024c.1,1.235.209,2.473.315,3.7a1.993,1.993,0,0,1-.622,1.768l-1.081,1.08c-.265.233-.529.5-.785.753a1.3,1.3,0,0,1-2,0c-.2-.179-.385-.371-.565-.556l-.024-.024-.023-.024-.022-.023c-.125-.129-.216-.223-.314-.322l-1.081-1.081a1.584,1.584,0,0,1-.491-1.342c.235-2.928.422-5.238.589-7.268l.1-1.342c.049-.549.094-1.123.131-1.618v-.019l.007-.1,0-.027c.031-.4.072-.958.12-1.479l.131-1.538H31.22l-1.8,0h-.046a10.633,10.633,0,0,0-10.4,8.249,28.733,28.733,0,0,0-.328,7.3V35.3l0,.045v.023c.026.66.062,1.563.062,2.422h4.354V31.312a1.224,1.224,0,0,1,1.081-1.244.984.984,0,0,1,.158-.011,1.153,1.153,0,0,1,1.151,1.059,4.849,4.849,0,0,1,.033.687v5.991h18.2V31.378A1.213,1.213,0,0,1,44.806,30.1C44.863,30.1,44.905,30.094,44.939,30.094ZM34.558,21.161l-.031.329,0,.027v.005l-.01.1-.006.061-.012.121c-.132,1.372-.281,2.925-.4,4.4l-.031.34,0,.03q-.021.228-.041.457l-.01.11-.009.1v0l-.009.1,0,.032-.007.08c-.128,1.394-.259,2.834-.411,4.248a1.976,1.976,0,0,0,.95,2.161,1.919,1.919,0,0,0,.982-1.964c-.195-1.879-.36-3.762-.491-5.6-.039-.477-.081-.987-.123-1.516l-.017-.2v-.006l-.056-.7c-.035-.433-.077-.864-.114-1.229-.031-.316-.078-.791-.116-1.259A.571.571,0,0,1,34.558,21.161ZM34.526,2.468c-.022,0-.043,0-.047.009s0,.013.014.023a7.414,7.414,0,0,0-7.3,7.366,7.288,7.288,0,0,0,7.287,7.4h.013A7.4,7.4,0,0,0,41.827,9.9a7.55,7.55,0,0,0-2.193-5.336,7.219,7.219,0,0,0-5.1-2.095Z" transform="translate(0 12.732)" fill="#21455c"/>
            <path id="Path_547" d="M7.12,21.387h0a1.685,1.685,0,0,1-.36-.066,1.261,1.261,0,0,1-.883-1.309v-3.83H3.944l-.146,0A3.73,3.73,0,0,1,1.2,15.143,3.769,3.769,0,0,1,.048,12.45c-.065-2.832-.065-5.713,0-8.806A3.766,3.766,0,0,1,3.715.043C4.763.011,5.828.011,6.858.011H21.393C21.487,0,21.583,0,21.678,0a3.85,3.85,0,0,1,3.839,4.136c0,2.811,0,5.466-.033,8.056a3.763,3.763,0,0,1-3.754,4.036c-.09,0-.182,0-.272-.01H19.363c-1.948,0-3.961,0-5.958.033a1.519,1.519,0,0,0-.884.36c-.72.677-1.447,1.389-2.15,2.078l0,0c-.347.34-.705.691-1.053,1.028-.2.2-.4.392-.6.579s-.389.373-.584.567A1.475,1.475,0,0,1,7.12,21.387Zm-.044-7.705a1.291,1.291,0,0,1,.92.382,1.309,1.309,0,0,1,.369,1.1A10.248,10.248,0,0,1,8.3,16.575v.556l.229.13c.255-.255.477-.507.72-.785.579-.644,1.178-1.309,1.768-2a2.361,2.361,0,0,1,1.8-.826c.067,0,.135,0,.2.009,2.193.033,4.39.033,6.514.033h2a1.3,1.3,0,0,0,.191.014,1.284,1.284,0,0,0,.9-.369A1.3,1.3,0,0,0,23,12.255V3.94A1.3,1.3,0,0,0,21.557,2.5H3.912A1.272,1.272,0,0,0,2.5,3.94v8.249A1.349,1.349,0,0,0,4.01,13.7H6.891A1.307,1.307,0,0,1,7.076,13.682Z" transform="translate(43.61)" fill="#21455c"/>
            <g id="Group_134" transform="translate(59.796 6.915)">
              <path id="Path_548" d="M1.18,2.455h0A1.253,1.253,0,0,0,2.424,1.277,1.229,1.229,0,0,0,1.213,0h0A1.23,1.23,0,0,0,0,1.211,1.189,1.189,0,0,0,1.18,2.455Z" transform="translate(0 0)" fill="#fff"/>
            </g>
            <g id="Group_135" transform="translate(55.146 6.95)">
              <path id="Path_549" d="M1.247,2.423h0A1.23,1.23,0,0,0,2.458,1.211,1.208,1.208,0,0,0,1.247,0,1.412,1.412,0,0,0,.331.36,1.115,1.115,0,0,0,0,1.244,1.3,1.3,0,0,0,1.247,2.423Z" transform="translate(0 0)" fill="#fff"/>
            </g>
            <g id="Group_136" transform="translate(50.657 6.984)">
              <path id="Path_550" d="M2.364,1.211A1.161,1.161,0,0,0,1.186,0a1.228,1.228,0,0,0-.033,2.452h0A1.333,1.333,0,0,0,2.364,1.211Z" transform="translate(0 0)" fill="#fff"/>
            </g>
          </g>
        </g>
      </g>
    </g>
  </g>
</svg>
