<svg xmlns="http://www.w3.org/2000/svg" xmlns:xlink="http://www.w3.org/1999/xlink" width="207.982" height="207.982" viewBox="0 0 207.982 207.982">
  <defs>
    <filter id="Rectangle_116" x="0" y="0" width="207.982" height="207.982" filterUnits="userSpaceOnUse">
      <feOffset dx="6" dy="6" input="SourceAlpha"/>
      <feGaussianBlur stdDeviation="10" result="blur"/>
      <feFlood flood-opacity="0.2"/>
      <feComposite operator="in" in2="blur"/>
      <feComposite in="SourceGraphic"/>
    </filter>
  </defs>
  <g id="Group_796" data-name="Group 796" transform="translate(-1417.499 -2067.158)">
    <g transform="matrix(1, 0, 0, 1, 1417.5, 2067.16)" filter="url(#Rectangle_116)">
      <rect id="Rectangle_116-2" data-name="Rectangle 116" width="147.982" height="147.982" rx="30" transform="translate(24 24)" fill="#fff"/>
    </g>
    <g id="Group_103" transform="translate(1483.696 2125.07)">
      <path id="Path_435" d="M17.992,79.143a1.779,1.779,0,0,1-1.537-.888,1.749,1.749,0,0,1,1.26-2.587,5.857,5.857,0,0,1,.642-.036h9.949V68.788H3.89c-.091.007-.184.011-.276.011a3.594,3.594,0,0,1-3.5-2.806,3.358,3.358,0,0,1-.1-1.021V31.295a3.539,3.539,0,0,1,3.53-3.784c.06,0,.121,0,.181,0,1.2-.01,2.494-.015,3.941-.015,1.364,0,2.7,0,3.875.008h.579c1.048,0,2.236.006,3.388.006.059-.006.119-.009.179-.009a1.795,1.795,0,0,1,1.8,1.78,1.869,1.869,0,0,1-1.869,1.81c-.054,0-.1,0-.14-.005H3.618v34.12h1.43V32.316h15.33V19.58A2.291,2.291,0,0,0,19.221,17.3a2.632,2.632,0,0,0-1.226-.307c-.562-.017-1.133-.017-1.685-.017s-1.123,0-1.685-.017l-.059,0a.691.691,0,0,0-.66.481,5.389,5.389,0,1,1-.2-4.971,1.251,1.251,0,0,0,1.16.795,1.167,1.167,0,0,0,.168-.011c.5-.031,1.014-.047,1.514-.047.794,0,1.591.038,2.367.114a5.721,5.721,0,0,1,3.732,1.958,6.28,6.28,0,0,1,1.379,4.1V32.285h4.392V11.139a.942.942,0,0,0-.612-1.021,5.23,5.23,0,0,1-2.758-6.4A5.378,5.378,0,0,1,35.531,5.589a4.978,4.978,0,0,1-.957,2.845,6.619,6.619,0,0,1-2.618,2.026V32.287h4.256c0-1,0-2.023.008-3.009v-.714c.014-2.979.028-6.058-.045-9.08a6,6,0,0,1,1.748-4.416,5.934,5.934,0,0,1,4.225-1.751c.078,0,.139,0,.19,0,.578.017,1.123.026,1.668.026s1.091-.008,1.669-.026a.833.833,0,0,0,.579-.374,5.408,5.408,0,1,1,6.163,7.492,5.294,5.294,0,0,1-6.061-2.9.74.74,0,0,0-.708-.519.827.827,0,0,0-.109.008c-.5.025-.994.038-1.481.038s-.986-.013-1.481-.038c-.085,0-.152-.006-.212-.006-1.618,0-2.546,1.021-2.546,2.8.035,4.157.035,8.379.035,12.463H56.575V31.029h-.719c-1.254,0-2.48,0-3.561.008h-.526c-.968,0-2.064.006-3.132.006-1.329,0-2.509,0-3.609-.015H45a3.094,3.094,0,0,1-1.339-.306,1.6,1.6,0,0,1-.817-1.771,1.769,1.769,0,0,1,1.5-1.43,5.713,5.713,0,0,1,.635-.036H56.23a4.1,4.1,0,0,1,3,1.039,4.021,4.021,0,0,1,1.056,2.981c0,10.9,0,22.167-.011,33.2a4.314,4.314,0,0,1-.852,2.758v.954H58.126a4.3,4.3,0,0,1-1.688.344l-.144,0H31.942v6.811c.118,0,.239.009.346.016H32.3c.117.009.241.017.359.017h9.228a1.853,1.853,0,0,1,.231-.014,1.972,1.972,0,0,1,1.4.592,1.633,1.633,0,0,1,.375,1.77,1.826,1.826,0,0,1-1.533,1.192H18.09ZM8.977,13.421a1.756,1.756,0,0,0-.589,3.407,1.772,1.772,0,0,1,.1-2.452,1.74,1.74,0,0,1,1.2-.478l.09,0H9.8a1.409,1.409,0,0,1,.528.1,1.7,1.7,0,0,0-1.261-.579Zm42.248-.1,0,0h0a1.807,1.807,0,0,0-1.186,3.164,1.773,1.773,0,0,1-.1-.613,1.748,1.748,0,0,1,1.747-1.739l.09,0a1.654,1.654,0,0,1,1.123.443A1.785,1.785,0,0,0,51.225,13.322ZM30.087,3.583a1.745,1.745,0,0,0-1.745,1.771,2.007,2.007,0,0,0,1.057,1.7,1.963,1.963,0,0,1-.34-1.09,1.748,1.748,0,0,1,1.747-1.739l.089,0a2.013,2.013,0,0,1,.647.137A1.74,1.74,0,0,0,30.087,3.583Z" transform="translate(1.735 0.712)" fill="#f4f4f4"/>
      <path id="Path_436" d="M1.735,3.541a1.822,1.822,0,0,0,1.8-1.7,1.77,1.77,0,1,0-1.8,1.7Z" transform="translate(8.967 13.864)" fill="#fbc316"/>
      <path id="Path_437" d="M1.735,3.541a1.822,1.822,0,0,0,1.8-1.7,1.77,1.77,0,1,0-1.8,1.7Z" transform="translate(30.08 4.16)" fill="#fbc316"/>
      <path id="Path_438" d="M1.735,3.541a1.822,1.822,0,0,0,1.8-1.7,1.77,1.77,0,1,0-1.8,1.7Z" transform="translate(50.953 14.103)" fill="#fbc316"/>
      <rect id="Rectangle_1" width="54.381" height="36.163" transform="translate(6.071 32.251)" fill="#f7f8fb"/>
      <path id="Path_439" d="M28.308,48.141V41.3H3.893a3.594,3.594,0,0,1-3.78-2.8,5.2,5.2,0,0,1-.1-1.021V3.805A3.5,3.5,0,0,1,3.723.026c3.913-.034,7.832-.034,11.782,0A1.8,1.8,0,0,1,17.48,1.8a1.85,1.85,0,0,1-2.009,1.8H3.621v34.12H56.572V3.6H45.028a3.18,3.18,0,0,1-1.362-.307,1.619,1.619,0,0,1-.818-1.77,1.733,1.733,0,0,1,1.5-1.43A5.254,5.254,0,0,1,45.1.059H56.232c2.588,0,4.052,1.464,4.052,4.018V37.346a3.656,3.656,0,0,1-4.018,4.018H31.919v6.81c.24,0,.479.034.719.034h9.22a1.963,1.963,0,0,1,1.635.579,1.624,1.624,0,0,1,.375,1.77,1.817,1.817,0,0,1-1.532,1.191H18.057a1.8,1.8,0,0,1-1.635-.886,1.75,1.75,0,0,1,1.26-2.588,6.292,6.292,0,0,1,.783-.034h8.99a2.433,2.433,0,0,1,.853-.1Z" transform="translate(0.986 27.493)" fill="#21455c"/>
      <path id="Path_440" d="M5.4,57.041a1.735,1.735,0,0,1-1.667-1.26,3.81,3.81,0,0,1-.1-1.09V11.139a.962.962,0,0,0-.614-1.021,5.282,5.282,0,0,1-2.758-6.4A5.378,5.378,0,0,1,10.748,5.589C10.714,7.718,9.489,9.4,7.207,10.458V54.9a1.89,1.89,0,0,1-1.056,1.975A1.741,1.741,0,0,1,5.4,57.041ZM5.37,3.544h0A1.84,1.84,0,0,0,3.6,5.316,1.871,1.871,0,0,0,5.436,7.152h.057a1.708,1.708,0,0,0,1.175-.467,1.728,1.728,0,0,0,.538-1.2A1.993,1.993,0,0,0,5.37,3.545Z" transform="translate(25.765 0.001)" fill="#21455c"/>
      <path id="Path_441" d="M1.69,38.782A1.653,1.653,0,0,1,.037,37.143V22.977c0-1.262.006-2.542.012-3.78C.063,16.1.077,12.9,0,9.731A5.956,5.956,0,0,1,5.955,3.564c.071,0,.142,0,.212,0,.567.017,1.113.025,1.669.025s1.1-.008,1.669-.025a.743.743,0,0,0,.579-.375,5.342,5.342,0,0,1,6.2-3.03,5.4,5.4,0,0,1-.035,10.522A5.338,5.338,0,0,1,10.185,7.79a.73.73,0,0,0-.817-.511c-.491.025-.989.038-1.481.038S6.9,7.3,6.405,7.279c-.1-.007-.191-.01-.283-.01-1.573,0-2.475,1.023-2.475,2.805.034,8.744.045,17.611.034,26.353v.613a1.612,1.612,0,0,1-1.608,1.721c-.036,0-.072,0-.107,0A1.662,1.662,0,0,1,1.69,38.782ZM15.05,3.6a1.766,1.766,0,0,0-1.765,1.8,1.69,1.69,0,0,0,1.688,1.772h.079a1.771,1.771,0,0,0,1.774-1.7A1.806,1.806,0,0,0,15.055,3.6Z" transform="translate(37.19 9.755)" fill="#21455c"/>
      <path id="Path_442" d="M18.624,38.9c-.041,0-.084,0-.125,0a1.753,1.753,0,0,1-1.7-1.634V9.846a2.3,2.3,0,0,0-1.158-2.282,3.077,3.077,0,0,0-1.226-.306c-.562-.017-1.133-.017-1.685-.017s-1.124,0-1.685-.017a.67.67,0,0,0-.719.479,5.414,5.414,0,1,1-.2-4.971,1.3,1.3,0,0,0,1.2.79c.043,0,.086,0,.129-.006.5-.031,1.009-.047,1.512-.047.787,0,1.585.038,2.371.114a5.751,5.751,0,0,1,5.111,6.062C20.4,14.1,20.4,18.622,20.4,22.991V36.543a8.208,8.208,0,0,1-.034.919A1.786,1.786,0,0,1,18.624,38.9ZM5.387,3.767a1.762,1.762,0,0,0-1.77,1.721A1.751,1.751,0,0,0,5.354,7.259a1.829,1.829,0,0,0,1.8-1.7A1.776,1.776,0,0,0,5.422,3.768Z" transform="translate(4.599 9.669)" fill="#21455c"/>
    </g>
  </g>
</svg>
