<svg xmlns="http://www.w3.org/2000/svg" xmlns:xlink="http://www.w3.org/1999/xlink" width="207.982" height="207.982" viewBox="0 0 207.982 207.982">
  <defs>
    <filter id="Rectangle_117" x="0" y="0" width="207.982" height="207.982" filterUnits="userSpaceOnUse">
      <feOffset dx="6" dy="6" input="SourceAlpha"/>
      <feGaussianBlur stdDeviation="10" result="blur"/>
      <feFlood flood-opacity="0.2"/>
      <feComposite operator="in" in2="blur"/>
      <feComposite in="SourceGraphic"/>
    </filter>
  </defs>
  <g id="Group_796" data-name="Group 796" transform="translate(-1417.499 -2255.344)">
    <g transform="matrix(1, 0, 0, 1, 1417.5, 2255.34)" filter="url(#Rectangle_117)">
      <rect id="Rectangle_117-2" data-name="Rectangle 117" width="147.982" height="147.982" rx="30" transform="translate(24 24)" fill="#fff"/>
    </g>
    <g id="Group_95" transform="translate(1478.914 2316.795)">
      <g id="Group_94" transform="translate(0.854 0.954)">
        <path id="Path_361" d="M51.771,71.059H1.523A1.543,1.543,0,0,1,0,69.535V1.523A1.543,1.543,0,0,1,1.523,0H51.77a1.556,1.556,0,0,1,1.087.468,1.538,1.538,0,0,1,.437,1.1V69.535A1.543,1.543,0,0,1,51.771,71.059ZM2.906,59.338v8.814h.877v-8.26H50.34v-.554Zm0-47.479v44.48H4.06v-43.6H50.34v-.877Zm.047-8.905c0,1.984,0,3.922,0,5.86H3.83V3.507H50.386V2.953Z" transform="translate(0 0)" fill="#f4f4f4" opacity="0.5"/>
        <path id="Path_362" d="M13.335,52.232H0V8.489a1.387,1.387,0,0,1,.228-.738L3.28,4.1l0,0,.884-1.058,0,0L6.551.184A.36.36,0,0,1,6.735,0c.792.937,1.592,1.9,2.343,2.8l.1.125.094.113,0,0c.6.72,1.278,1.536,1.932,2.312.175.214.358.435.535.647l.086.1.014.016.039.046c.388.465.789.946,1.173,1.448a1.714,1.714,0,0,1,.323.922V34.468c0,5.626,0,11.443-.045,17.072v.692ZM3,40.511H3c0,2.9,0,5.906-.045,8.856h.876v-8.3h6.506v-.554H3Zm.05-25.192V37.513H3.6V15.6h6.779l0-.276ZM6.735,4.707a.619.619,0,0,0-.184.138c-.429.518-.865,1.043-1.3,1.57l-.311.374C4.348,7.5,3.76,8.208,3.182,8.905,3.092,9,3,9.09,3,9.182V12.32h.877V9.782c0-.057.053-.115.1-.167l0-.005a.553.553,0,0,0,.079-.1L7.381,5.491c-.118-.141-.224-.27-.329-.4L7.02,5.054Z" transform="translate(57.77 18.825)" fill="#f4f4f4" opacity="0.5"/>
      </g>
      <path id="Path_363" d="M7.337,22.194V0H0V22.194Z" transform="translate(61.667 34.821)" fill="#fff" opacity="0.5"/>
      <path id="Path_364" d="M47.433,44.434V0H0V44.434Z" transform="translate(4.314 13.135)" fill="#fff" opacity="0.5"/>
      <path id="Path_365" d="M0,8.859H47.433V0H0Z" transform="translate(4.084 60.291)" fill="#6adaf7"/>
      <path id="Path_366" d="M47.433,0H0V5.86H47.433Z" transform="translate(4.038 3.907)" fill="#6adaf7"/>
      <path id="Path_367" d="M0,0V8.859H7.336V0Z" transform="translate(61.944 60.291)" fill="#6adaf7"/>
      <path id="Path_368" d="M7.425,7.567V4.66a.686.686,0,0,0-.184-.415C6.088,2.815,4.888,1.431,3.737,0,3.691.046,3.6.092,3.553.139,2.445,1.477,1.292,2.861.184,4.2.138,4.291,0,4.383,0,4.476V7.567Z" transform="translate(61.901 24.486)" fill="#fbc316"/>
      <path id="Path_369" d="M51.769,71.059H1.523A1.542,1.542,0,0,1,0,69.536V1.523A1.543,1.543,0,0,1,1.523,0H51.771a1.544,1.544,0,0,1,1.522,1.523V69.536A1.544,1.544,0,0,1,51.769,71.059ZM2.907,59.292V68.15H50.34V59.292Zm0-47.434V56.292H50.34V11.858Zm0-8.905V8.812H50.34V2.953Z" transform="translate(0.3 0.4)" fill="#21455c"/>
      <path id="Path_370" d="M13.336,52.278H0V8.536A1.082,1.082,0,0,1,.231,7.8C2.253,5.326,4.38,2.78,6.553.231A.212.212,0,0,1,6.623.1l0,0A.489.489,0,0,0,6.692,0C8.08,1.692,9.485,3.364,11.167,5.353c.213.262.434.527.647.783.376.449.8.957,1.2,1.478a1.583,1.583,0,0,1,.323.922ZM3,40.468v8.859h7.336V40.468ZM3.05,15.227V37.42h7.333V15.227ZM6.695,4.662h0a.645.645,0,0,1-.091.069.633.633,0,0,0-.092.07c-.554.669-1.119,1.35-1.684,2.031l-.005.006c-.564.679-1.127,1.357-1.679,2.024a.567.567,0,0,1-.084.11c-.049.055-.1.111-.1.166V12.23h7.425V9.323a.692.692,0,0,0-.184-.415c-.577-.716-1.176-1.432-1.755-2.125S7.27,5.375,6.695,4.662Z" transform="translate(58.067 19.272)" fill="#21455c"/>
      <path id="Path_371" d="M11.766,10.336H0V0H11.766V10.335ZM2.907,3V7.383h5.86V3Z" transform="translate(6.206 16.688)" fill="#6adaf7"/>
      <path id="Path_372" d="M11.812,10.336H0V0H11.812V10.335ZM2.953,3V7.383H8.812V3Z" transform="translate(21.018 16.688)" fill="#6adaf7"/>
      <path id="Path_373" d="M11.812,10.29H0V0H11.812V10.289ZM2.953,3V7.383h5.86V3Z" transform="translate(35.875 16.688)" fill="#6adaf7"/>
      <path id="Path_374" d="M11.812,10.335H0V0H11.812V10.335ZM2.954,2.953V7.336H8.814V2.953Z" transform="translate(6.206 30.069)" fill="#6adaf7"/>
      <path id="Path_375" d="M11.812,10.29H0V0H11.812V10.289ZM3,2.953V7.337h5.86V2.953Z" transform="translate(21.018 30.069)" fill="#6adaf7"/>
      <path id="Path_376" d="M0,2.861V0H14.765V2.861Z" transform="translate(19.541 62.737)" fill="#fff"/>
      <path id="Path_377" d="M0,2.907V0H8.813V2.907Z" transform="translate(19.541 4.829)" fill="#21455c"/>
      <path id="Path_378" d="M0,2.907V0H2.907V2.907Z" transform="translate(31.399 4.829)" fill="#21455c"/>
      <path id="Path_379" d="M5.86,4.383V0H0V4.384Z" transform="translate(9.159 33.022)" fill="#fff" opacity="0.5"/>
      <path id="Path_380" d="M5.86,4.384V0H0V4.384Z" transform="translate(9.159 19.595)" fill="#fff" opacity="0.5"/>
      <path id="Path_381" d="M5.86,4.384V0H0V4.384Z" transform="translate(23.97 19.595)" fill="#fff" opacity="0.5"/>
      <path id="Path_382" d="M5.86,4.383V0H0V4.384Z" transform="translate(23.97 33.022)" fill="#fff" opacity="0.5"/>
      <path id="Path_383" d="M5.86,4.384V0H0V4.384Z" transform="translate(38.828 19.595)" fill="#fff" opacity="0.5"/>
    </g>
  </g>
</svg>
