<svg xmlns="http://www.w3.org/2000/svg" xmlns:xlink="http://www.w3.org/1999/xlink" width="207.982" height="207.982" viewBox="0 0 207.982 207.982">
  <defs>
    <filter id="Rectangle_118" x="0" y="0" width="207.982" height="207.982" filterUnits="userSpaceOnUse">
      <feOffset dx="6" dy="6" input="SourceAlpha"/>
      <feGaussianBlur stdDeviation="10" result="blur"/>
      <feFlood flood-opacity="0.2"/>
      <feComposite operator="in" in2="blur"/>
      <feComposite in="SourceGraphic"/>
    </filter>
  </defs>
  <g id="Group_796" data-name="Group 796" transform="translate(-1417.499 -2443.529)">
    <g transform="matrix(1, 0, 0, 1, 1417.5, 2443.53)" filter="url(#Rectangle_118)">
      <rect id="Rectangle_118-2" data-name="Rectangle 118" width="147.982" height="147.982" rx="30" transform="translate(24 24)" fill="#fff"/>
    </g>
    <g id="Group_72" transform="translate(1479.472 2504.852)">
      <g id="Group_71" transform="translate(1.087 1.783)">
        <g id="Group_70" transform="translate(0 0)">
          <g id="Group_67" transform="translate(0.008)">
            <g id="Group_66" transform="translate(0)">
              <path id="Path_137" d="M5.907,47.3A5.967,5.967,0,0,1,.753,44.322a5.09,5.09,0,0,1-.745-2.967V5.846A5.81,5.81,0,0,1,5.68,0H64.049a5.842,5.842,0,0,1,5.892,3.926,8.184,8.184,0,0,1,.349,2.268v35.03a5.808,5.808,0,0,1-4.711,5.933,7.516,7.516,0,0,1-1.419.136c-.082,0-.172,0-.282-.005H6.25C6.137,47.3,6.022,47.3,5.907,47.3ZM3.894,21.551V40.789a6.721,6.721,0,0,0,.044.96,1.751,1.751,0,0,0,1.441,1.527v-.087a7.356,7.356,0,0,1-.044-.96V22.99h5.844a1.809,1.809,0,0,0,.2.01,1.939,1.939,0,0,0,1.939-1.93,1.83,1.83,0,0,0-1.483-1.876,1.5,1.5,0,0,1,.044.436,1.938,1.938,0,0,1-2.138,1.92Zm0-7.852v3.926h1.48V15.182H16.2a2.259,2.259,0,0,0,1.762-.682,1.953,1.953,0,0,0,.419-1.587A1.915,1.915,0,0,0,16.9,11.343v.131a1.931,1.931,0,0,1-.424,1.575,2.279,2.279,0,0,1-1.758.693H13.64c-2.88,0-5.95,0-9.045-.043ZM5.686,3.926h0A1.864,1.864,0,0,0,3.9,5.715c-.031.667-.021,1.322-.011,1.956.005.317.01.644.01.966V9.771H5.334V9.729c0-.844,0-1.718.045-2.576A1.82,1.82,0,0,1,7.167,5.366H65.41c.11,0,.221.011.329.022s.218.022.326.022a1.871,1.871,0,0,0,.215.043,1.864,1.864,0,0,0-1.7-1.483,3.334,3.334,0,0,0-.548-.046l-.106,0H5.686Z" transform="translate(0 0)" fill="#f4f4f4"/>
            </g>
          </g>
          <g id="Group_69" transform="translate(0 54.766)">
            <g id="Group_68" transform="translate(0 0)">
              <path id="Path_138" d="M68.3,15.618a2.005,2.005,0,0,1-.274-.018H2.33a2.007,2.007,0,0,1-.274.018,2.043,2.043,0,0,1-1.454-.6,2.067,2.067,0,0,1-.583-1.728V6A5.747,5.747,0,0,1,5.689.07C6.924.032,8.256.015,10.008.015c.764,0,1.515,0,2.159.006.845,0,1.551.005,2.159.005.467,0,.937,0,1.392.007h.306c.492,0,1.073.01,1.659.01.612,0,1.155-.006,1.659-.019.184-.017.378-.026.576-.026A6.4,6.4,0,0,1,24.1,1.553,6.307,6.307,0,0,1,28.216.021c.094,0,.174,0,.245,0,1.187,0,2.4,0,3.575.007h.8c1.3,0,2.832.01,4.381.01,1.612,0,3.043-.006,4.373-.019.161-.013.331-.02.506-.02a6.383,6.383,0,0,1,4.164,1.547C47.76.143,49.572.026,51.453.026H64.147a5.776,5.776,0,0,1,5.8,3.926A8.191,8.191,0,0,1,70.3,6.221c.042,2.252.044,4.44.042,7.067a2.07,2.07,0,0,1-.584,1.728A2.041,2.041,0,0,1,68.3,15.618ZM27.95,3.984a1.895,1.895,0,0,0-1.887,2.062V9.405c0,.729,0,1.482.044,2.267h.611V7.093A1.895,1.895,0,0,1,28.6,5.031a1.847,1.847,0,0,1,.207.012h14.06a2.263,2.263,0,0,1,1.34.436A1.908,1.908,0,0,0,42.344,3.99c-.043,0-.09,0-.139.005H28.157A1.846,1.846,0,0,0,27.95,3.984ZM6.13,4A1.954,1.954,0,0,0,3.9,6.177v4.929a2.747,2.747,0,0,0,.044.566h.567V7.224A1.954,1.954,0,0,1,6.741,5.042H20.482c.065,0,.123-.007.178-.007a2.29,2.29,0,0,1,1.349.443C21.793,4.481,21.094,4,19.872,4ZM50.035,4a1.843,1.843,0,0,0-1.312.543,1.862,1.862,0,0,0-.543,1.377v5.715h.61c0-.527,0-1.055-.01-1.566-.01-1.013-.019-2.059.01-3.1a1.833,1.833,0,0,1,1.83-1.922l.09,0h14.4a1.964,1.964,0,0,1,1.175.393A1.764,1.764,0,0,0,64.553,4l-.1,0H50.035Z" fill="#f4f4f4"/>
            </g>
          </g>
        </g>
      </g>
      <path id="Path_139" d="M0,17.668V36.907a7.385,7.385,0,0,0,.044.96,1.815,1.815,0,0,0,1.7,1.571H60.333a1.888,1.888,0,0,0,2.138-2.051V1.789A1.876,1.876,0,0,0,60.726.044C60.51.044,60.29,0,60.071,0H1.833A1.826,1.826,0,0,0,.045,1.788C0,2.748,0,3.751,0,4.711V5.846H10.557a5.275,5.275,0,0,1,.829.044A1.855,1.855,0,0,1,13.044,7.5a1.946,1.946,0,0,1-2.181,2.268H.044V13.7h5.8A1.915,1.915,0,0,1,7.94,15.661,1.94,1.94,0,0,1,5.8,17.581H3.575C2.444,17.668,1.265,17.668,0,17.668Z" transform="translate(5.6 5.665)" fill="#f2f3f4"/>
      <path id="Path_140" d="M.02,7.68H18.168c0-2.007.044-3.97,0-5.933A1.836,1.836,0,0,0,16.292,0H1.939a1.832,1.832,0,0,0-1.92,1.92c-.044,1.7,0,3.4,0,5.1a3.3,3.3,0,0,0,0,.657Z" transform="translate(49.073 60.106)" fill="#6adaf7"/>
      <path id="Path_141" d="M.007,7.646H18.155a.329.329,0,0,0,.044-.175c0-1.876.044-3.708,0-5.584A1.859,1.859,0,0,0,16.148.011H2.1A1.894,1.894,0,0,0,.007,2.062Z" transform="translate(26.925 60.14)" fill="#6adaf7"/>
      <path id="Path_142" d="M18.148,7.635c0-.216.044-.392.044-.524V2.181A1.955,1.955,0,0,0,15.964,0H2.227A1.955,1.955,0,0,0,0,2.181V7.114c0,.175.044.349.044.567C6.064,7.635,12.084,7.635,18.148,7.635Z" transform="translate(4.815 60.151)" fill="#6adaf7"/>
      <path id="Path_143" d="M64.15,47.293c-.093,0-.187,0-.28-.005H6.284a5.849,5.849,0,0,1-5.5-2.967A5.5,5.5,0,0,1,0,41.355V5.846A5.868,5.868,0,0,1,5.673,0H64.042a5.843,5.843,0,0,1,5.892,3.926,7.7,7.7,0,0,1,.349,2.268c0,3.908,0,7.861.01,11.685.01,7.646.02,15.552-.01,23.345a5.841,5.841,0,0,1-4.711,5.933A7.536,7.536,0,0,1,64.15,47.293ZM7.461,21.463c-1.134.087-2.321.087-3.577.087V40.789a7.349,7.349,0,0,0,.043.96,1.817,1.817,0,0,0,1.7,1.571H64.215a1.89,1.89,0,0,0,2.137-2.05V5.671a1.883,1.883,0,0,0-1.745-1.745c-.107,0-.218-.011-.325-.022s-.22-.022-.33-.022H5.714A1.821,1.821,0,0,0,3.925,5.67c-.044.96-.044,1.958-.044,2.923V9.727H14.444l.135,0a5.334,5.334,0,0,1,.694.046,1.845,1.845,0,0,1,1.657,1.615,1.951,1.951,0,0,1-.419,1.587,2.26,2.26,0,0,1-1.762.681H3.931V17.58h5.8c.06-.006.12-.009.18-.009a1.916,1.916,0,0,1,1.914,1.971,1.94,1.94,0,0,1-2.138,1.92Z" transform="translate(0.233 0.3)" fill="#21455c"/>
      <path id="Path_144" d="M68.3,15.622a2.005,2.005,0,0,1-.274-.018H2.33a2.006,2.006,0,0,1-.274.018A2.043,2.043,0,0,1,.6,15.02a2.067,2.067,0,0,1-.583-1.728V6.006A5.747,5.747,0,0,1,5.689.074C6.945.036,8.287.019,10.04.019c.6,0,1.3,0,2.143.005s1.54.005,2.143.005c.45,0,.91,0,1.354.007h.3c.493,0,1.078.01,1.672.01.617,0,1.169-.006,1.688-.019.2-.02.406-.03.617-.03a6.39,6.39,0,0,1,4.18,1.557A6.231,6.231,0,0,1,28.232.025c.091,0,.181,0,.27.006,1.194,0,2.409,0,3.584.007h.784c1.3,0,2.836.01,4.387.01C38.871.05,40.3.043,41.633.03c.146-.011.3-.016.463-.016A6.515,6.515,0,0,1,46.3,1.557,6.489,6.489,0,0,1,51.026.025c.146,0,.3,0,.468.006,1.29.013,2.674.019,4.232.019,1.5,0,2.98,0,4.232-.01h.764c1.137,0,2.313-.007,3.467-.007.1-.005.2-.008.3-.008a5.82,5.82,0,0,1,5.5,3.933,7.76,7.76,0,0,1,.349,2.268c.029,1.6.019,3.18.01,4.711v.435c0,.631-.007,1.283-.007,1.921a2.07,2.07,0,0,1-.584,1.728A2.041,2.041,0,0,1,68.3,15.622ZM6.208,4A1.954,1.954,0,0,0,3.98,6.182v4.929a2.138,2.138,0,0,0,.02.252,2.572,2.572,0,0,1,.024.315c6.025-.043,12.168-.043,18.109-.043a2.537,2.537,0,0,1,.026-.325,1.681,1.681,0,0,0,.018-.2V6.182A1.954,1.954,0,0,0,19.95,4Zm43.883-.045a1.833,1.833,0,0,0-1.829,1.922c-.029,1.154-.019,2.3-.01,3.4v.311c0,.456.007.926.007,1.387,0,.22,0,.438,0,.657H66.411c0-.556,0-1.11.007-1.646V9.632c.01-1.28.02-2.6-.01-3.93a1.834,1.834,0,0,0-1.833-1.745h-14.4Zm-22.1.034A1.9,1.9,0,0,0,26.1,6.051v5.584H44.25a.33.33,0,0,0,.044-.175c0-.576,0-1.152.009-1.71V9.591c.01-1.209.02-2.457-.01-3.715A1.859,1.859,0,0,0,42.436,3.99a1.9,1.9,0,0,0-.192.01H28.2A1.852,1.852,0,0,0,27.989,3.988Z" transform="translate(0.175 55.104)" fill="#21455c"/>
      <path id="Path_145" d="M11.741,0A11.651,11.651,0,1,0,22.474,7.336,11.651,11.651,0,0,0,11.741,0Z" transform="translate(23.742 12.341)" fill="#fff"/>
      <path id="Path_146" d="M15.574,31.082A15.541,15.541,0,0,1,4.564,4.54,15.441,15.441,0,0,1,15.541,0h.011A15.541,15.541,0,0,1,26.545,26.514,15.442,15.442,0,0,1,15.574,31.082Zm0-27.135a11.65,11.65,0,1,0,.089,0Z" transform="translate(19.822 8.392)" fill="#6adaf7"/>
      <path id="Path_147" d="M1.974,16.025a1.989,1.989,0,0,1-.917-.225A2,2,0,0,1,.01,13.837C.05,11.87.05,9.874.05,7.945V2.186A1.965,1.965,0,0,1,1.056.223,2.063,2.063,0,0,1,3.368.528c1.3.952,2.629,1.92,3.917,2.857l0,0,.006,0c1.305.949,2.655,1.931,3.97,2.9a2.213,2.213,0,0,1,1.014,1.758,2.146,2.146,0,0,1-1.014,1.69c-1.3.936-2.6,1.887-3.868,2.806-1.33.967-2.706,1.968-4.071,2.953A1.982,1.982,0,0,1,1.974,16.025Zm2-10.175v4.363c.97-.688,1.927-1.381,3.01-2.181C5.934,7.286,4.977,6.593,3.976,5.85Z" transform="translate(31.202 15.956)" fill="#fbc316"/>
    </g>
  </g>
</svg>
