<svg xmlns="http://www.w3.org/2000/svg" xmlns:xlink="http://www.w3.org/1999/xlink" width="207.982" height="207.982" viewBox="0 0 207.982 207.982">
  <defs>
    <filter id="Rectangle_119" x="0" y="0" width="207.982" height="207.982" filterUnits="userSpaceOnUse">
      <feOffset dx="6" dy="6" input="SourceAlpha"/>
      <feGaussianBlur stdDeviation="10" result="blur"/>
      <feFlood flood-opacity="0.2"/>
      <feComposite operator="in" in2="blur"/>
      <feComposite in="SourceGraphic"/>
    </filter>
  </defs>
  <g id="Group_796" data-name="Group 796" transform="translate(-1591.998 -1970.5)">
    <g transform="matrix(1, 0, 0, 1, 1592, 1970.5)" filter="url(#Rectangle_119)">
      <rect id="Rectangle_119-2" data-name="Rectangle 119" width="147.982" height="147.982" rx="30" transform="translate(24 24)" fill="#fff"/>
    </g>
    <g id="Group_156" transform="translate(1649.475 2031.154)">
      <g id="Group_152" transform="translate(1.33 0.77)">
        <path id="Path_628" d="M47.545,48.328c-.077,0-.155,0-.23,0H4.506a3.791,3.791,0,0,1-2.749-.909,3.679,3.679,0,0,1-.884-2.724V25.839A1.5,1.5,0,0,0,.448,24.5c-.323-.259-.458-.748-.424-1.539-.032-4.166-.032-7.356,0-10.342.03-2.27,1.251-3.469,3.532-3.469H16.32V6.464C16.32,2.89,18.53.411,21.95.147,23.335.049,24.728,0,26.09,0s2.755.049,4.14.147A5.871,5.871,0,0,1,34.3,2.038a6.628,6.628,0,0,1,1.592,4.393V9.147H48.624a3.158,3.158,0,0,1,3.533,3.469c0,3.934,0,7.331-.032,10.44a2.361,2.361,0,0,1-.36,1.047c-.066.168-.131.329-.2.459a.169.169,0,0,0-.034.077l0,.008v.005l0,.01a.408.408,0,0,1-.025.062,2.161,2.161,0,0,0-.2.721V44.135a10.765,10.765,0,0,1-.1,1.538,2.909,2.909,0,0,1-2.355,2.52A6.433,6.433,0,0,1,47.545,48.328ZM3.82,26.1V44.593a2.018,2.018,0,0,0,.066.72,3.376,3.376,0,0,0,.5.037c.05,0,.1,0,.155,0V26.822c.11.032.215.071.313.109l.013,0c.093.035.208.08.329.115.576.193,1.107.387,1.575.559l.035.013.016.006.025.009.006,0,.535.2c1.173.421,2.473.906,3.862,1.44,3.715,1.423,6.721,2.545,9.459,3.533-.034-.373-.213-.562-.687-.72-3.35-1.205-6.885-2.544-9.466-3.522l-.019-.007-.009,0c-.609-.235-1.274-.479-1.76-.658l-.054-.02-.023-.008-.085-.031L8.5,27.8c-.683-.251-1.252-.461-1.829-.683l-.121-.044-.164-.059-.057-.021-.136-.049-.105-.038-.038-.014c-.509-.184-1.036-.373-1.572-.56-.051-.017-.109-.037-.166-.059l-.05-.019-.026-.01C4.1,26.193,3.956,26.14,3.82,26.1ZM23.031,38.6h7.3a1.56,1.56,0,0,0,.193.012,1.511,1.511,0,0,0,1.076-.446,1.534,1.534,0,0,0,.433-1.268V35.491c0-.692,0-1.407.033-2.095a.769.769,0,0,1,.229-.425c3.491-1.33,7.043-2.65,10.479-3.926l.032-.012.113-.042h0c1.6-.593,2.974-1.105,4.329-1.611l1.013-.391v-.982L46.5,26.66l-3.222,1.2-.643.239-.009,0-.209.077-.119.044c-3.526,1.31-7.172,2.665-10.756,4.032a.663.663,0,0,0-.229.425c-.032.688-.032,1.4-.032,2.094v1.406a1.535,1.535,0,0,1-.434,1.268,1.511,1.511,0,0,1-1.076.446,1.47,1.47,0,0,1-.193-.013H22.2a1.816,1.816,0,0,1-.679-.132,1.249,1.249,0,0,0,.294.425,1.61,1.61,0,0,0,1.1.429C22.954,38.6,22.993,38.6,23.031,38.6Zm.786-9.946v6.284h.36V29.015H28.4v-.36Zm7.364-2.127h0a2.373,2.373,0,0,1,.13.753v2a2.407,2.407,0,0,1,.36-.13,1.15,1.15,0,0,0,.174-.063l.007,0a1.119,1.119,0,0,1,.179-.066V28c-.033-.8-.311-1.281-.85-1.472ZM2.871,21.518h0a1.169,1.169,0,0,0,.753,1.308,1.613,1.613,0,0,1-.065-.588c.048-1.472.042-2.961.036-4.4v0c0-.477,0-.971,0-1.453V13.99a3.657,3.657,0,0,1,.066-1.047,3.263,3.263,0,0,1,.706-.077c.092,0,.185,0,.277.012h5.727c3.5.033,7.179.033,10.735.033,3.174,0,6.409-.008,9.538-.017h.006c3.129-.008,6.364-.017,9.538-.017h8.968a1.477,1.477,0,0,0-.066-.654,3.216,3.216,0,0,0-.7-.078c-.093,0-.187,0-.279.012h-8.61c-6.35.033-12.822.033-19.081.033-1.788,0-3.62-.008-5.393-.017s-3.581-.017-5.343-.017H3.95c-.09-.007-.18-.011-.27-.011a3.351,3.351,0,0,0-.711.076A3.94,3.94,0,0,0,2.9,13.27V15.66c0,.468,0,.952,0,1.42.006,1.454.012,2.958-.037,4.438ZM19.3,5.548a24.8,24.8,0,0,0-.066,2.718,8.6,8.6,0,0,1,.032.916H32.882V8.363c0-.223,0-.445,0-.641.007-.63.013-1.224-.036-1.813a3.055,3.055,0,0,0-3.033-2.815h-.011c-1.25-.016-2.5-.025-3.727-.025s-2.5.008-3.8.025h-.07A2.944,2.944,0,0,0,19.3,5.548h0Z" transform="translate(3.027 0)" fill="#f4f4f4"/>
        <path id="Path_629" d="M9.7,21.71a8.289,8.289,0,0,1-1.048-.068A11.062,11.062,0,0,1,.269,15.816a1.654,1.654,0,0,1-.1-1.637,1.718,1.718,0,0,1,1.374-.692c.037,0,.076,0,.131.005H9.4c1.469-.033,1.6-.171,1.6-1.637V9.728c0-.906-.273-1.211-1.08-1.211H6.589c-1.5,0-3.044,0-4.55-.032A2.421,2.421,0,0,1,.305,7.731c-.387-.452-.105-1.4.131-1.8A11.023,11.023,0,0,1,8.422.3,10.865,10.865,0,0,1,17.553,3.54a1.108,1.108,0,0,0,.72.295c8.332,0,15.127-.032,21.372-.066a1.727,1.727,0,0,0,.982-.523A10.742,10.742,0,0,1,54.449,1.919a10.8,10.8,0,0,1,3.325,3.716,1.574,1.574,0,0,1-1.127,2.673,1.614,1.614,0,0,1-.411-.054H48.348c-.991.032-1.178.23-1.178,1.244v2.355c0,1,.3,1.309,1.276,1.342.545.017,1.119.025,1.753.025s1.318-.008,2.074-.025c1.289-.032,2.672-.094,4.354-.2.057,0,.1-.007.144-.007a1.389,1.389,0,0,1,1.166.631,1.669,1.669,0,0,1,.1,1.669,10.768,10.768,0,0,1-9.728,6.154h-.091A10.844,10.844,0,0,1,40.688,18.2a1.521,1.521,0,0,0-.883-.36c-6.806,0-13.975.033-21.307.1a1.318,1.318,0,0,0-.786.327,10.656,10.656,0,0,1-7.822,3.437ZM4.325,16.3a4.124,4.124,0,0,0,.556.524h3.6c.352.016.716.025,1.08.025s.727-.008,1.08-.025h.078a3.7,3.7,0,0,0,2.63-1.089,3.737,3.737,0,0,0,1.088-2.708V10.05a3.854,3.854,0,0,0-1.375-3.109,4.22,4.22,0,0,1,.819,2.585v.556c.032.787.032,1.6,0,2.422a3.737,3.737,0,0,1-1.088,2.708,3.7,3.7,0,0,1-2.63,1.089H4.325ZM45.6,15.255h0a3.872,3.872,0,0,0,2.992,1.407h4.666c.071-.071.142-.137.2-.187l.005-.005a4.137,4.137,0,0,0,.356-.364H51.749c-.355,0-.715,0-1.064.006h-.147c-.359,0-.784.007-1.211.007-.457,0-.853,0-1.211-.015a4.219,4.219,0,0,1-2.521-.85ZM48.248,2.817a7.06,7.06,0,0,0-2.128.327,7.824,7.824,0,0,0-5.466,7.233A7.915,7.915,0,0,0,43.2,16.4a7.948,7.948,0,0,1-2-5.466A7.824,7.824,0,0,1,46.673,3.7a6.917,6.917,0,0,1,2.1-.327h.111a7.7,7.7,0,0,1,4.985,1.834,7.58,7.58,0,0,0-5.513-2.39h-.113ZM19.677,6.778a11.37,11.37,0,0,1,.228,8.051h.72a10.965,10.965,0,0,0-.36-7.494h17.87a3.556,3.556,0,0,1,.163-.556ZM10.4,3.663a7.686,7.686,0,0,1,2.339.364,7.792,7.792,0,0,1,2.815,1.637A8,8,0,0,0,12.181,3.5,7.687,7.687,0,0,0,4.325,5.5h1.08A7.721,7.721,0,0,1,10.4,3.663Z" transform="translate(0 51.167)" fill="#f4f4f4"/>
        <path id="Path_630" d="M17.26,52.258a2.161,2.161,0,0,1-.339-.026h-.066l-12.568-.1L1.963,52.1C.422,52.069,0,51.647,0,50.138V46.8c.018-2.471.027-4.937.033-6.809.008-2.587.019-4.77.032-6.675,0-2.4.035-4.79.064-6.709v-.291C.161,24.894.2,23.127.2,21.4.21,20.013.221,18.441.229,16.6v0c.006-1.336.015-3.1.033-4.909L.294,9.129c.032-.98.032-1.978.032-2.943,0-.734.008-1.471.017-2.159.008-.652.016-1.419.016-2.161C.359.523.882,0,2.225,0h.032C6.765,0,11.58.03,17.869.1c1.1.033,1.6.656,1.571,1.961,0,.783-.008,1.564-.017,2.29-.008.69-.016,1.5-.016,2.292-.032,1.539-.032,3.1-.032,4.614,0,2.192-.035,7.869-.1,14.073-.016,2.454-.034,4.837-.068,9.108V34.5l0,.52v0l0,.432v.018c-.045,5.877-.087,11.429-.087,14.5a2.442,2.442,0,0,1-.458,1.8A2.282,2.282,0,0,1,17.26,52.258ZM3.043,45.882v3.305h.917V46.6H7.035c1.735.033,3.5.033,5.2.033,1.625,0,1.8-.961,1.8-1.374a1.449,1.449,0,0,0-.36-.982,1.739,1.739,0,0,0-.687-.393,1.475,1.475,0,0,1,.13.654c-.044.513-.337,1.374-1.8,1.374-.867,0-1.749-.008-2.6-.016s-1.735-.016-2.6-.016Zm0-6.022V42.9h.884V40.58H7.837c.247,0,.495-.011.736-.034a1.417,1.417,0,0,0,1.407-1.505A1.372,1.372,0,0,0,8.934,37.7a1.364,1.364,0,0,1,.163.622A1.4,1.4,0,0,1,7.7,39.828H7.69c-.243.022-.488.034-.729.034H3.043Zm.033-6.184v3.237h.917v-2.52h.752l1.735.033c1.884,0,3.9.033,5.672.062h.042l.11,0h.134a1.159,1.159,0,0,0,.17.012,1.572,1.572,0,0,0,1.5-1.124,1.243,1.243,0,0,0-.164-1.178,1.593,1.593,0,0,0-.819-.556,1.336,1.336,0,0,1,.066,1.015,1.588,1.588,0,0,1-1.522,1.119,1.287,1.287,0,0,1-.147-.007h-.066c-1.018-.017-1.988-.025-2.975-.033-.733-.005-1.832-.015-2.916-.032l-1.735-.032Zm2.651-6.155c-.706,0-1.506,0-2.259.032a.983.983,0,0,0-.36.2c-.048.583-.042,1.154-.037,1.759v.022c0,.2,0,.4,0,.61V30.7a4.26,4.26,0,0,0,.538.034H3.96v-.048c0-.757,0-1.473.033-2.211a.656.656,0,0,1,.36-.2c.753-.033,1.518-.033,2.259-.033H8.6a1.633,1.633,0,0,0,1.38-.754,1.1,1.1,0,0,0,0-1.177,1.926,1.926,0,0,0-.893-.744.03.03,0,0,1,.01.023,1.249,1.249,0,0,1,0,1.178,1.634,1.634,0,0,1-1.38.754H5.727ZM3.174,21.467V24.61h.917V22.188h.621l2.553.032c.841,0,1.74.008,2.51.016h.364c.723.006,1.467.013,2.2.013h.032c1.4,0,1.733-.748,1.766-1.375a1.29,1.29,0,0,0-.36-1.047,1.744,1.744,0,0,0-.688-.393,1.673,1.673,0,0,1,.131.719c-.032.627-.364,1.375-1.766,1.375h-.032c-.711,0-1.441-.006-2.148-.013H8.548c-.722-.006-1.467-.013-2.2-.013L3.8,21.467Zm3.993-6.087H3.273v3.174h.883V16.1H8.083a2.4,2.4,0,0,0,.28.016,2.508,2.508,0,0,0,1.553-.54,1.31,1.31,0,0,0,.36-.982,1.329,1.329,0,0,0-1.047-1.309,1.118,1.118,0,0,1,.131.589,1.444,1.444,0,0,1-.36.982,2.512,2.512,0,0,1-1.552.539A2.433,2.433,0,0,1,7.167,15.379ZM3.273,9.2v3.2h.916V9.914h.622l2.422.032c.876,0,1.768.008,2.6.017.791.008,1.71.016,2.6.016a1.163,1.163,0,0,0,.163.009,2.09,2.09,0,0,0,1.309-.463,1.339,1.339,0,0,0,.36-1.015,1.437,1.437,0,0,0-1.08-1.375,1.506,1.506,0,0,1,.164.655,1.337,1.337,0,0,1-.36,1.014,2.163,2.163,0,0,1-1.331.464c-.058,0-.1,0-.141,0-.9,0-1.862-.008-2.6-.016-.836-.009-1.73-.017-2.6-.017L3.895,9.2ZM3.5,2.979h0c-.007.007-.02.018-.036.03l-.014.011-.007.005-.007.005-.005,0-.013.011-.006,0-.007.006L3.4,3.062a1.071,1.071,0,0,0-.093.08c-.034.869-.033,1.7-.032,2.582v.561h.884V6.233c0-.8,0-1.564.032-2.337a.444.444,0,0,1,.2-.164c.733,0,1.487,0,2.215.007H8.258c.753.005,2.154.015,3.393.015,1.638.032,3.211.032,4.876.032V3.4a.543.543,0,0,0,0-.328.57.57,0,0,0-.191-.033H16.3c-.916,0-1.911-.008-2.765-.016-.887-.009-1.836-.017-2.767-.017C9.577,3.012,8.276,3,7.16,3H5.7c-.725,0-1.473-.007-2.2-.007Z" transform="translate(59.376 2.307)" fill="#f4f4f4"/>
      </g>
      <g id="Group_155" transform="translate(0.773 0.05)">
        <path id="Path_631" d="M5.433.328A7.065,7.065,0,0,1,7.593,0a7.441,7.441,0,0,1,5.662,2.487H8.611a12.885,12.885,0,0,0-1.6.065,3.672,3.672,0,0,0-3.469,3.8c-.032.851,0,1.7,0,2.52v.458a3.789,3.789,0,0,0,3.928,3.96c1.211.032,2.422,0,3.633,0H13.16A7.576,7.576,0,0,1,5.468,15.22,7.81,7.81,0,0,1,5.435.328Z" transform="translate(41.244 54.508)" fill="#6adaf7"/>
        <path id="Path_632" d="M18.753,8.022H.163A10.942,10.942,0,0,0,0,0H18.618A10.624,10.624,0,0,0,18.753,8.022Z" transform="translate(20.233 58.502)" fill="#6adaf7"/>
        <path id="Path_633" d="M7.92,15.133A7.691,7.691,0,0,1,0,13.1H5.76a3.719,3.719,0,0,0,3.8-3.8c.032-.818.032-1.637,0-2.422V6.329a3.764,3.764,0,0,0-3.895-3.96c-.72-.032-1.472,0-2.193,0H0A7.748,7.748,0,1,1,7.92,15.133Z" transform="translate(4.916 54.89)" fill="#6adaf7"/>
        <path id="Path_634" d="M.064,3.513V1.125A3.932,3.932,0,0,1,.13.077,3.375,3.375,0,0,1,1.111.012H6.839c3.532,0,7.168.032,10.735.032,6.35,0,12.731,0,19.08-.032h8.61a3.242,3.242,0,0,1,.982.065,3.655,3.655,0,0,1,.065,1.047V3.678c0,1.9,0,3.862.033,5.793a1.132,1.132,0,0,1-.916,1.309c-1.538.556-3.076,1.146-4.549,1.7-.589.229-1.177.458-1.766.654l-2.454.916L28.8,17a2.492,2.492,0,0,0-.36.131v-2a1.442,1.442,0,0,0-1.669-1.6h-7.3c-1.113,0-1.6.491-1.637,1.637v1.963L16.694,16.7c-1.177-.425-2.291-.851-3.4-1.277-1.342-.491-2.684-1.015-4.026-1.506-2.716-1.015-5.5-2.094-8.248-3.109C.2,10.516-.029,10.188,0,9.4.064,7.409.064,5.412.064,3.513Z" transform="translate(6.619 12.867)" fill="#f7f8fb"/>
        <path id="Path_635" d="M.693.325c.753.262,1.472.524,2.193.785,1.276.491,2.585.949,3.862,1.44,3.109,1.177,6.316,2.39,9.493,3.532.589.23.72.425.687,1.015-.032.72-.032,1.44-.032,2.16v1.015a1.435,1.435,0,0,0,1.6,1.6h7.3a1.522,1.522,0,0,0,1.7-1.7V8.767c0-.687,0-1.407.032-2.094a.662.662,0,0,1,.229-.425c4.975-1.9,10.048-3.764,14.957-5.593L44.485,0h0V18.589a3.988,3.988,0,0,1-.032.72,2.134,2.134,0,0,1-.72.065H.793a4.213,4.213,0,0,1-.72-.032,2.037,2.037,0,0,1-.065-.72V.131A2.38,2.38,0,0,1,.7.327Z" transform="translate(7.561 26.726)" fill="#f7f8fb"/>
        <rect id="Rectangle_12" width="4.582" height="6.284" transform="translate(27.236 29.014)" fill="#fbc316"/>
        <path id="Path_636" d="M8.248,42.9h0c1.6,0,1.8-.982,1.8-1.375a1.307,1.307,0,0,0-.36-.982,2.13,2.13,0,0,0-1.44-.524l-6.35-.1L.622,39.892H0V36.848H3.764a7.925,7.925,0,0,0,.883-.032,1.458,1.458,0,1,0-.1-2.913H0V30.665H.753l1.735.032c1.931.032,3.928.032,5.891.065h.065a1.6,1.6,0,0,0,1.669-1.113,1.342,1.342,0,0,0-.163-1.177,1.775,1.775,0,0,0-1.506-.654c-1.6-.032-3.175-.032-4.778-.032-1.015,0-2.029,0-3.044-.032A4.183,4.183,0,0,1,0,27.722H0v-.556c0-.851,0-1.637.032-2.422a.984.984,0,0,1,.36-.2c.753-.033,1.538-.033,2.259-.033H4.582a1.641,1.641,0,0,0,1.44-.753,1.251,1.251,0,0,0,0-1.177,2.1,2.1,0,0,0-1.506-.916c-1.113-.065-2.225-.065-3.4-.033H.131V18.492H.753l2.553.032c1.7,0,3.4.033,5.073.033h.032c1.407,0,1.735-.753,1.766-1.375a1.293,1.293,0,0,0-.36-1.047,1.84,1.84,0,0,0-1.407-.491c-1.832-.033-3.7-.033-5.5-.065L.883,15.547H.229V12.372H4.157a2.5,2.5,0,0,0,1.832-.524,1.448,1.448,0,0,0,.36-.982c-.032-.949-.753-1.44-2.128-1.44H.294V6.219H.916l2.422.032c1.735,0,3.469.032,5.2.032a2.144,2.144,0,0,0,1.472-.458,1.335,1.335,0,0,0,.36-1.015c-.032-.916-.72-1.472-1.832-1.506-1.832-.032-3.633-.032-5.466-.032H.326V2.749c0-.883,0-1.735.033-2.585C.425.1.523.032.556,0,2.978,0,5.432.032,7.821.032c1.832,0,3.7.033,5.531.033A.565.565,0,0,1,13.581.1a.545.545,0,0,1,0,.327v1.7c-.032,4.451-.032,8.935-.065,13.386-.032,2.913-.032,5.793-.065,8.706-.065,6.971-.131,14.172-.163,21.273,0,.36-.032.556-.131.622a.966.966,0,0,1-.654.1c-2-.032-4.059-.032-6.088-.032H.065V42.875H3.141C4.778,42.9,6.513,42.9,8.248,42.9Z" transform="translate(63.369 6.04)" fill="#6adaf7"/>
        <g id="Group_154" transform="translate(0 0)">
          <g id="Group_153">
            <path id="Path_637" d="M47.552,48.328c-.075,0-.15,0-.234,0H4.509a3.792,3.792,0,0,1-2.749-.909,3.679,3.679,0,0,1-.884-2.724V25.839A1.5,1.5,0,0,0,.451,24.5a1.883,1.883,0,0,1-.424-1.539c-.032-4.167-.032-7.356,0-10.342.03-2.27,1.252-3.469,3.533-3.469H16.323V6.464c0-3.574,2.21-6.053,5.629-6.317C23.332.049,24.725,0,26.093,0s2.76.049,4.14.147A5.871,5.871,0,0,1,34.3,2.038,6.628,6.628,0,0,1,35.9,6.431V9.147H48.627a3.158,3.158,0,0,1,3.532,3.469c0,3.934,0,7.331-.032,10.44a2.384,2.384,0,0,1-.36,1.047l0,.007,0,.01c-.056.138-.125.31-.19.441a.176.176,0,0,0-.036.081l0,.011a.418.418,0,0,1-.026.071,2.16,2.16,0,0,0-.2.721V44.135a10.845,10.845,0,0,1-.1,1.538,2.908,2.908,0,0,1-2.355,2.52A6.35,6.35,0,0,1,47.552,48.328ZM4.61,45.381H47.55c.053,0,.109.007.168.007a2.157,2.157,0,0,0,.552-.072,4.068,4.068,0,0,0,.032-.721V26.005l-1.766.654-3.123,1.161-.768.285h0l-.264.1c-3.548,1.318-7.217,2.68-10.8,4.048a.663.663,0,0,0-.229.425c-.033.688-.033,1.4-.033,2.094v1.4a1.52,1.52,0,0,1-1.509,1.714,1.56,1.56,0,0,1-.193-.012h-7.3a1.493,1.493,0,0,1-.18.011,1.445,1.445,0,0,1-1.015-.42,1.428,1.428,0,0,1-.409-1.195V35.261c0-.708,0-1.441.032-2.16.032-.587-.1-.787-.687-1.015-3.032-1.09-6.094-2.245-9.494-3.532-.621-.238-1.239-.466-1.926-.718-.6-.221-1.285-.472-1.936-.722l-.162-.059-.078-.028c-.631-.229-1.283-.465-1.952-.7l0,.005a2.358,2.358,0,0,0-.687-.2V44.628a2.048,2.048,0,0,0,.065.72,4.239,4.239,0,0,0,.554.036ZM23.851,28.654v6.284h4.582V28.654Zm6-3.031a1.442,1.442,0,0,1,1.431,1.623v2a2.578,2.578,0,0,1,.36-.131L39.5,26.167l2.455-.916c.549-.183,1.107-.4,1.647-.609l.019-.007,0,0,.026-.01.069-.026.818-.309.1-.039.013,0,.026-.01c1.1-.416,2.342-.887,3.59-1.339a1.134,1.134,0,0,0,.916-1.309c-.033-1.931-.033-3.895-.033-5.793V13.239a3.642,3.642,0,0,0-.065-1.047,3.316,3.316,0,0,0-.7-.077c-.094,0-.187,0-.278.012H39.5c-6.349.032-12.822.032-19.081.032-1.532,0-3.1-.006-4.617-.013h-.776c-1.828-.008-3.612-.016-5.341-.016H3.952c-.081-.007-.171-.011-.27-.011a3.349,3.349,0,0,0-.711.076,3.892,3.892,0,0,0-.066,1.047v2.39l.005,0c.038,2.359.018,4.229-.066,5.887-.032.787.2,1.116,1.015,1.407,1.48.547,3,1.124,4.563,1.717l.107.04,0,0,.233.087q1.71.65,3.34,1.262c.654.24,1.341.5,1.986.742l.007,0,.111.042c.666.251,1.3.488,1.922.718l.052.02.03.011c1.009.386,2.152.823,3.322,1.245l1.146.425V27.279c.033-1.147.523-1.637,1.637-1.637h7.3A1.42,1.42,0,0,1,29.855,25.622ZM22.209,3.09A2.943,2.943,0,0,0,19.3,5.545a24.916,24.916,0,0,0-.064,2.718,8.671,8.671,0,0,1,.032.916H32.884V8.36c0-.216,0-.433,0-.642.006-.631.012-1.227-.037-1.813a3.053,3.053,0,0,0-3.032-2.814h-.012c-1.222-.016-2.476-.025-3.728-.025s-2.53.008-3.8.025Z" transform="translate(3.025 0)" fill="#21455c"/>
            <path id="Path_638" d="M9.7,21.711a8.2,8.2,0,0,1-1.049-.068A11.062,11.062,0,0,1,.269,15.817a1.652,1.652,0,0,1-.1-1.637,1.717,1.717,0,0,1,1.374-.693c.038,0,.08,0,.131.005H9.4c1.469-.033,1.6-.171,1.6-1.637V9.728c0-.905-.273-1.211-1.08-1.211H6.589c-1.5,0-3.043,0-4.55-.032A2.421,2.421,0,0,1,.305,7.732c-.385-.449-.1-1.394.131-1.8A11.026,11.026,0,0,1,8.422.3a10.865,10.865,0,0,1,9.131,3.238,1.108,1.108,0,0,0,.72.295c8.117,0,14.741-.031,21.372-.066a1.729,1.729,0,0,0,.982-.524A10.742,10.742,0,0,1,54.449,1.919a10.8,10.8,0,0,1,3.325,3.716,1.575,1.575,0,0,1-1.538,2.619H48.348c-.991.032-1.178.23-1.178,1.244v2.355c0,1,.3,1.309,1.276,1.342.564.017,1.137.025,1.753.025s1.293-.008,2.074-.025c1.295-.032,2.678-.094,4.353-.2.039,0,.082-.005.126-.005a1.429,1.429,0,0,1,1.185.63,1.671,1.671,0,0,1,.1,1.669,10.768,10.768,0,0,1-9.728,6.154h-.091a10.844,10.844,0,0,1-7.528-3.238,1.518,1.518,0,0,0-.883-.36c-6.836,0-14,.033-21.307.1a1.323,1.323,0,0,0-.785.327,10.659,10.659,0,0,1-7.822,3.436ZM4.359,16.336a7.688,7.688,0,0,0,7.92,2.029,8,8,0,0,0,5.4-7.494,7.894,7.894,0,0,0-5.432-7.3A7.679,7.679,0,0,0,4.362,5.6H7.828c.239,0,.486,0,.725-.007s.495-.007.74-.007c.275,0,.513,0,.728.014l.135,0a3.763,3.763,0,0,1,3.76,3.962v.556c.033.787.033,1.6,0,2.422a3.732,3.732,0,0,1-1.088,2.708A3.693,3.693,0,0,1,10.2,16.337H4.359ZM48.249,2.851a7.054,7.054,0,0,0-2.128.328,7.662,7.662,0,0,0-5.434,7.234,7.8,7.8,0,0,0,5.466,7.658,7.577,7.577,0,0,0,7.692-1.931H51.782c-.3,0-.61,0-.908,0h-.319c-.366,0-.779.007-1.195.007-.462,0-.858,0-1.211-.015-.04,0-.084,0-.144,0a3.789,3.789,0,0,1-3.783-3.962v-.459c0-.274,0-.556-.007-.819-.007-.551-.015-1.122.007-1.7a3.671,3.671,0,0,1,3.469-3.8,12.726,12.726,0,0,1,1.32-.069l.283,0h4.648A7.448,7.448,0,0,0,48.39,2.851h-.142ZM19.709,6.841a10.911,10.911,0,0,1,.164,8.022H38.461a10.578,10.578,0,0,1-.13-8.022Z" transform="translate(0 51.134)" fill="#21455c"/>
            <path id="Path_639" d="M17.26,52.258h0a2.259,2.259,0,0,1-.339-.026h-.066l-12.568-.1L1.963,52.1C.422,52.069,0,51.647,0,50.138V46.8c.016-2.2.024-4.472.032-6.674.008-2.238.017-4.553.033-6.81,0-2.311.033-4.629.066-6.872C.16,24.97.2,23.138.2,21.4c.017-1.636.025-3.3.033-4.909.008-1.577.016-3.208.032-4.811L.294,9.129c.032-.98.032-1.978.032-2.943,0-.719.008-1.451.017-2.159S.36,2.586.36,1.866C.36.523.883,0,2.225,0h.032C6.787,0,11.6.03,17.87.1a1.58,1.58,0,0,1,1.176.446,2.007,2.007,0,0,1,.394,1.515c0,.767-.008,1.54-.016,2.286v0c-.008.75-.016,1.523-.016,2.292-.032,1.539-.032,3.1-.032,4.614,0,2.151-.034,7.814-.1,14.073-.02,2.873-.043,5.871-.065,8.77v.084c-.05,6.471-.1,12.584-.1,15.791a2.443,2.443,0,0,1-.458,1.8A2.264,2.264,0,0,1,17.26,52.258ZM3.14,45.882v3.306H9.49c2.011,0,4.091,0,6.087.033a.974.974,0,0,0,.654-.1c.094-.062.13-.237.13-.622.032-6.973.1-14.041.164-21.273.017-1.469.025-2.954.033-4.391V22.83c.008-1.41.016-2.867.032-4.309.017-2.243.025-4.531.033-6.745v-.015c.008-2.173.016-4.42.032-6.625v-1.7a.548.548,0,0,0,0-.327.564.564,0,0,0-.191-.034h-.038c-.916,0-1.856-.008-2.765-.016s-1.85-.016-2.766-.016c-1.191,0-2.42-.008-3.608-.016h0c-1.2-.008-2.44-.017-3.654-.017-.013.013-.037.031-.064.052a1.381,1.381,0,0,0-.132.111C3.4,4.022,3.4,4.865,3.4,5.757v.524H6.152c1.868,0,3.633,0,5.466.033,1.115.034,1.8.6,1.833,1.506a1.339,1.339,0,0,1-.36,1.015,2.152,2.152,0,0,1-1.33.463c-.047,0-.095,0-.141,0-.867,0-1.749-.008-2.6-.016s-1.735-.016-2.6-.016L3.993,9.228H3.371v3.208H7.3c1.379,0,2.095.484,2.127,1.44a1.445,1.445,0,0,1-.36.982,2.5,2.5,0,0,1-1.833.524H3.306V18.56h.655l2.029.033c.912.017,1.859.025,2.775.033.9.008,1.82.016,2.723.032.05,0,.1-.006.15-.006a1.835,1.835,0,0,1,1.258.5,1.286,1.286,0,0,1,.36,1.047c-.032.627-.364,1.375-1.766,1.375h-.033c-.83,0-1.684-.008-2.511-.016s-1.707-.016-2.562-.016L3.83,21.506H3.208v3.141H4.19c.522-.015.992-.022,1.439-.022.7,0,1.345.018,1.964.054A2.1,2.1,0,0,1,9.1,25.6a1.248,1.248,0,0,1,0,1.177,1.633,1.633,0,0,1-1.38.754H5.728c-.706,0-1.506,0-2.259.033a.988.988,0,0,0-.36.2c-.033.785-.033,1.58-.033,2.421v.556a4.2,4.2,0,0,0,.531.034H3.7c1.015.032,2.047.032,3.044.032,1.633,0,3.175,0,4.778.032.042,0,.084,0,.126,0a1.769,1.769,0,0,1,1.381.66,1.352,1.352,0,0,1,.163,1.178,1.589,1.589,0,0,1-1.523,1.119c-.048,0-.1,0-.146-.007h-.066c-.988-.017-2-.025-2.975-.033-.962-.008-1.956-.016-2.916-.032L3.829,33.68H3.076v3.238h4.55l.093,0a1.458,1.458,0,0,1,.005,2.916c-.247.023-.5.034-.741.034H3.076v3.043H3.7l1.276.033,6.35.1h.04a2.13,2.13,0,0,1,1.4.524,1.312,1.312,0,0,1,.36.982c0,.323-.13,1.375-1.8,1.375v0c-.934,0-1.874-.01-2.784-.021-.805-.009-1.566-.017-2.324-.019Z" transform="translate(59.376 2.306)" fill="#21455c"/>
          </g>
        </g>
      </g>
    </g>
  </g>
</svg>
