<svg xmlns="http://www.w3.org/2000/svg" xmlns:xlink="http://www.w3.org/1999/xlink" width="207.982" height="207.982" viewBox="0 0 207.982 207.982">
  <defs>
    <filter id="Rectangle_120" x="0" y="0" width="207.982" height="207.982" filterUnits="userSpaceOnUse">
      <feOffset dx="6" dy="6" input="SourceAlpha"/>
      <feGaussianBlur stdDeviation="10" result="blur"/>
      <feFlood flood-opacity="0.2"/>
      <feComposite operator="in" in2="blur"/>
      <feComposite in="SourceGraphic"/>
    </filter>
  </defs>
  <g id="Group_796" data-name="Group 796" transform="translate(-1591.998 -2164.672)">
    <g transform="matrix(1, 0, 0, 1, 1592, 2164.67)" filter="url(#Rectangle_120)">
      <rect id="Rectangle_120-2" data-name="Rectangle 120" width="147.982" height="147.982" rx="30" transform="translate(24 24)" fill="#fff"/>
    </g>
    <g id="Group_132" transform="translate(1647.241 2220.781)">
      <g id="Group_127" transform="translate(1.664 1.307)">
        <path id="Path_519" d="M30.114,60.211A30.105,30.105,0,0,1,30.1,0c.45,0,.94.012,1.456.035A30.1,30.1,0,0,1,40.792,58.25,29.916,29.916,0,0,1,30.114,60.211Zm1.862-16.889V54.9a24.293,24.293,0,0,0,11.66-11.576Zm-15.477,0A23.646,23.646,0,0,0,28.2,54.9V43.321Zm32.022-.111A1.356,1.356,0,0,0,47.2,44.245a26.992,26.992,0,0,1-6.124,8.766c-.394.394-.782.749-1.193,1.125l-.015.013-.017.016c-.207.188-.452.413-.7.647,2-.394,4.932-2.086,7.831-4.526s5.092-5.054,5.881-7.006h-.176c-.289,0-.577,0-.846,0-.394,0-.721,0-1,0-.831,0-1.462-.016-2.046-.052A1.375,1.375,0,0,0,48.521,43.21Zm-41.292.069A25.9,25.9,0,0,0,20.985,54.774a1.069,1.069,0,0,1-.158-.139l-.005-.005,0,0,0,0,0,0a.952.952,0,0,0-.161-.14A29.678,29.678,0,0,1,13.4,45.25c-.082-.167-.162-.357-.231-.522l-.01-.025-.012-.028,0-.011,0-.005a2.651,2.651,0,0,0-.831-1.3,1.588,1.588,0,0,0-.818-.173c-.2,0-.43.02-.6.035h-.014l-.024,0-.023,0h-.045l-.025,0c-.226.021-.46.043-.678.043Zm7.927-21.943a.525.525,0,0,0-.34.119.546.546,0,0,0-.2.391,30.846,30.846,0,0,0,.166,17.239c.125.459.376.546.8.546h12c.1,0,.2-.01.288-.019h.047a2.713,2.713,0,0,1,.294-.019c0-7.484,0-13.444,0-18.2a1.118,1.118,0,0,0-.31-.042H15.242A.546.546,0,0,0,15.156,21.336ZM10.964,21.3c-1.92,0-3.733,0-5.536.042-.169,0-.38.3-.461.5a26.356,26.356,0,0,0,.249,17.281h.006a.567.567,0,0,0,.561.483.5.5,0,0,0,.152-.021h5.239A34.726,34.726,0,0,1,10.964,21.3Zm21.012.042.006,18.2a1.443,1.443,0,0,1,.25.043h12.5c.369,0,.5-.2.588-.5a31.693,31.693,0,0,0,.88-14.26c-.134-.75-.32-1.5-.484-2.168l0-.012L45.7,22.6c-.111-.449-.21-.853-.3-1.254ZM49.217,21.3a34.832,34.832,0,0,1-.21,18.2.75.75,0,0,1,.17.023l.008,0,.008,0a.5.5,0,0,0,.107.016c.851.021,1.709.031,2.552.031s1.69-.011,2.522-.031a.745.745,0,0,0,.546-.462c.143-.573.3-1.15.44-1.658a35.649,35.649,0,0,0,.9-3.878A24.411,24.411,0,0,0,55.13,21.68c-.04-.17-.253-.379-.334-.379ZM39.151,5.286c.012.037.021.067.028.091a.245.245,0,0,0,.055.118,1.773,1.773,0,0,0,.147.126,1.757,1.757,0,0,1,.146.124A26.369,26.369,0,0,1,47.12,15.808c.6,1.378,1.243,1.891,2.388,1.891a4.828,4.828,0,0,0,.632-.045l0,.007c.538-.032,1.082-.048,1.615-.048s1.08.016,1.615.048A26.515,26.515,0,0,0,39.151,5.286ZM10.086,17.591c.511,0,.923.006,1.258.019a.806.806,0,0,0,.183.016,1.022,1.022,0,0,0,.991-.772A28.546,28.546,0,0,1,20.613,5.7a2.939,2.939,0,0,0,.416-.377C15.371,7.166,9.3,12.449,6.9,17.61h.671c.384,0,.758,0,1.1-.007h.194l.186,0h.167C9.521,17.594,9.806,17.591,10.086,17.591ZM31.976,5.278V17.61h12A23.854,23.854,0,0,0,31.976,5.278Zm-3.736,0A23.769,23.769,0,0,0,16.2,17.61H28.243Z" transform="translate(11.157 11.15)" fill="#f4f4f4"/>
        <path id="Path_520" d="M8.949,60.385A37.046,37.046,0,0,1,3.916,45.327a38.519,38.519,0,0,1,.713-12.415A36.724,36.724,0,0,1,12.472,17.1,37.466,37.466,0,0,1,61.882,9.927c.755.5,1.468,1.049,2.181,1.552-.042.042-.042.126-.083.166h-3.9a1.765,1.765,0,0,0-1.8,1.8,1.74,1.74,0,0,0,1.8,1.8h9.437a1.695,1.695,0,0,0,1.8-1.8V4.012a1.8,1.8,0,0,0-1.845-1.8,1.854,1.854,0,0,0-1.8,1.845c-.042,1.636,0,3.272,0,4.907a4.34,4.34,0,0,1-.042.671c-.249-.21-.416-.333-.587-.462C56.094.613,43.847-1.945,30.467,1.452A39.408,39.408,0,0,0,8.74,15.84,40.718,40.718,0,0,0,.1,38.531,40.064,40.064,0,0,0,3.581,57.908,51.194,51.194,0,0,0,6.1,62.648a1.669,1.669,0,0,0,2.391.713A1.825,1.825,0,0,0,9.2,60.887,2.744,2.744,0,0,0,8.949,60.385Z" transform="translate(0 0)" fill="#f4f4f4"/>
        <path id="Path_521" d="M67.885,5.86C67.13,4.182,66.249,2.588,65.368.953a1.746,1.746,0,0,0-2.726-.5c-.8.63-.839,1.594-.166,2.768a37.065,37.065,0,0,1,4.74,25.543A37.552,37.552,0,0,1,8.034,52.628c-.378-.249-.713-.587-1.216-1.006H11.1a1.776,1.776,0,0,0,1.971-1.845,1.811,1.811,0,0,0-1.971-1.8H1.991A1.8,1.8,0,0,0,.02,50.027c0,1.761,0,3.524.042,5.239,0,1.3,0,2.6.042,3.943A2.485,2.485,0,0,0,.4,60.426a1.755,1.755,0,0,0,2.013.838,1.8,1.8,0,0,0,1.385-1.8V53.883c.294.21.462.333.63.462,10.024,7.927,21.307,10.78,33.847,8.347A39.617,39.617,0,0,0,60.88,49.815,40.426,40.426,0,0,0,71.408,23.809,41.249,41.249,0,0,0,67.885,5.86Z" transform="translate(11.068 18.956)" fill="#f4f4f4"/>
      </g>
      <path id="Path_522" d="M14.716.042C14.59.042,14.467,0,14.383,0H1.759c-.416,0-.5.166-.629.5A31.269,31.269,0,0,0,1.3,17.742c.126.462.378.546.8.546h12c.21,0,.378-.042.63-.042C14.716,12.207,14.716,6.167,14.716.042Z" transform="translate(26.516 33.546)" fill="#fbc316"/>
      <path id="Path_523" d="M0,18.2a.624.624,0,0,0,.249.042h12.5c.378,0,.462-.166.587-.5a30.426,30.426,0,0,0,.881-14.261c-.21-1.174-.5-2.349-.8-3.481H0Z" transform="translate(45.007 33.551)" fill="#fbc316"/>
      <path id="Path_524" d="M12.038,0A23.973,23.973,0,0,0,0,12.331H12.038Z" transform="translate(29.194 17.525)" fill="#6adaf7"/>
      <path id="Path_525" d="M0,12.331H12A23.9,23.9,0,0,0,0,0Z" transform="translate(45.007 17.525)" fill="#6adaf7"/>
      <path id="Path_526" d="M0,0A23.47,23.47,0,0,0,11.7,11.576V0Z" transform="translate(29.53 55.568)" fill="#6adaf7"/>
      <path id="Path_527" d="M11.66,0H0V11.576A23.888,23.888,0,0,0,11.66,0Z" transform="translate(45.007 55.568)" fill="#6adaf7"/>
      <g id="Group_128" transform="translate(52.766 17.315)">
        <path id="Path_528" d="M0,18.221a.82.82,0,0,0,.294.042H5.367a.763.763,0,0,0,.546-.462,50.669,50.669,0,0,0,1.342-5.536A24.328,24.328,0,0,0,6.122.4C6.08.23,5.873.018,5.745.018,3.9-.023,2.054.018.166.018A34.372,34.372,0,0,1,0,18.222Z" transform="translate(9.857 16.004)" fill="#6adaf7"/>
        <path id="Path_529" d="M14.221,12.374A26.391,26.391,0,0,0,0,0C.083.126.083.166.083.21c.083.083.21.166.294.249A26.8,26.8,0,0,1,7.969,10.522c.63,1.552,1.426,2.055,3.02,1.845C12,12.29,13.045,12.374,14.221,12.374Z" transform="translate(0.001 0)" fill="#6adaf7"/>
        <path id="Path_530" d="M13.716.068c-1.385,0-2.726.083-4.068-.042A1.372,1.372,0,0,0,8.053,1.032,27.125,27.125,0,0,1,1.929,9.8C1.3,10.386.671,10.973,0,11.6,4.279,10.806,12.081,4.263,13.716.068Z" transform="translate(0 37.933)" fill="#6adaf7"/>
      </g>
      <g id="Group_129" transform="translate(16.655 17.818)">
        <path id="Path_531" d="M7.338,0C5.451,0,3.605,0,1.8.042c-.166,0-.378.294-.462.5a26.253,26.253,0,0,0,.249,17.28.62.62,0,0,0,.713.5c1.3-.042,2.558,0,3.859,0H7.546A34.854,34.854,0,0,1,7.338,0Z" transform="translate(0 15.94)" fill="#6adaf7"/>
        <path id="Path_532" d="M0,12.29H.671c1.258,0,2.516-.042,3.776,0a1.023,1.023,0,0,0,1.174-.755A28.178,28.178,0,0,1,13.716.378c.126-.083.21-.21.416-.378A25.9,25.9,0,0,0,0,12.29Z" transform="translate(3.228 0)" fill="#6adaf7"/>
        <path id="Path_533" d="M13.754,11.587c-.126-.083-.21-.21-.333-.294A29.273,29.273,0,0,1,6.166,2.062C5.833,1.391,5.62.51,5.075.174S3.608.091,2.852.091H0A26.2,26.2,0,0,0,13.754,11.587Z" transform="translate(3.567 37.823)" fill="#6adaf7"/>
      </g>
      <g id="Group_131" transform="translate(1.157 0.637)">
        <g id="Group_130" transform="translate(0 0)">
          <path id="Path_534" d="M30.119,60.209h0c-.521,0-.968-.009-1.331-.028A30.1,30.1,0,0,1,9.235,8.41,29.947,29.947,0,0,1,30.089,0c.367,0,.672,0,.933.014A30.081,30.081,0,0,1,60.2,30.82a30.519,30.519,0,0,1-9.1,20.928A29.864,29.864,0,0,1,30.119,60.209Zm1.9-16.849V54.936A23.918,23.918,0,0,0,43.681,43.36Zm-15.477,0h0a23.468,23.468,0,0,0,11.7,11.576V43.36h-11.7Zm32.029-.109a1.37,1.37,0,0,0-1.327,1.032,26.973,26.973,0,0,1-6.124,8.766l-.648.606-1.281,1.2c2.006-.374,4.934-2.052,7.833-4.492s5.094-5.069,5.884-7.042h-.087c-.341,0-.684.006-1.016.011h-.083c-.357.006-.761.013-1.157.013-.673,0-1.222-.022-1.726-.068A1.4,1.4,0,0,0,48.572,43.251Zm-41.338.106A26.234,26.234,0,0,0,20.975,54.844a1.2,1.2,0,0,1-.157-.141,1.148,1.148,0,0,0-.163-.144A29.109,29.109,0,0,1,13.4,45.328c-.09-.181-.172-.381-.252-.574a2.706,2.706,0,0,0-.839-1.313,1.5,1.5,0,0,0-.8-.175c-.228,0-.475.023-.713.046s-.483.045-.709.045ZM11,21.381c-1.92,0-3.733,0-5.536.043-.166,0-.378.3-.461.5A26.359,26.359,0,0,0,5.254,39.2a.62.62,0,0,0,.611.511.773.773,0,0,0,.1-.008c.356-.013.777-.019,1.29-.019H8.2l.216,0h.37c.36,0,.7.007,1.043.007H11.21A34.889,34.889,0,0,1,11,21.384Zm4.281,0c-.417,0-.5.163-.629.5a31.253,31.253,0,0,0,.166,17.239c.125.459.377.546.8.546h12a2.29,2.29,0,0,0,.269-.019h.043a2.928,2.928,0,0,1,.317-.019c0-6.078,0-12.241,0-18.2a1.216,1.216,0,0,1-.2-.027h-.01a.558.558,0,0,0-.123-.016Zm33.724,18.2a.879.879,0,0,0,.262.043h5.1a.763.763,0,0,0,.546-.462,50.407,50.407,0,0,0,1.342-5.536,24.411,24.411,0,0,0-1.132-11.87c-.043-.17-.251-.378-.378-.378-.595-.012-1.2-.018-1.846-.018h-1.36l-.316,0h-.347l-.316,0H49.173a34.4,34.4,0,0,1-.166,18.2h0Zm-17.034,0a.619.619,0,0,0,.227.043H44.723c.382,0,.464-.172.588-.5a30.574,30.574,0,0,0,.881-14.261c-.206-1.163-.507-2.357-.8-3.481H31.973V39.587h0ZM39.19,5.359h0c.083.125.083.166.083.21a1.76,1.76,0,0,0,.149.126l.007.006a1.689,1.689,0,0,1,.138.117A26.909,26.909,0,0,1,47.159,15.88c.552,1.361,1.221,1.891,2.386,1.891a4.889,4.889,0,0,0,.634-.045c.531-.029,1.05-.043,1.543-.043.568,0,1.135.017,1.686.052h0A26.346,26.346,0,0,0,39.19,5.359ZM10.084,17.714c.478,0,.89.006,1.259.019a.987.987,0,0,0,.183.016,1.021,1.021,0,0,0,.99-.772,28.272,28.272,0,0,1,8.1-11.157,1.165,1.165,0,0,0,.175-.154l.006-.006a2.666,2.666,0,0,1,.235-.217C15.411,7.211,9.334,12.495,6.892,17.734h.675c.437,0,.892-.005,1.257-.01C9.228,17.718,9.66,17.714,10.084,17.714Zm21.895-12.4V17.649h12a23.848,23.848,0,0,0-12-12.332Zm-3.733,0A23.927,23.927,0,0,0,16.208,17.649H28.245Z" transform="translate(11.039 10.939)" fill="#21455c"/>
          <path id="Path_535" d="M63.984,11.393c-.713-.5-1.426-1.049-2.181-1.552a37.5,37.5,0,0,0-49.41,7.173A36.728,36.728,0,0,0,4.549,32.826a38.587,38.587,0,0,0-.713,12.415A36.229,36.229,0,0,0,8.869,60.3c.126.21.21.378.333.587a1.825,1.825,0,0,1-.713,2.475A1.734,1.734,0,0,1,6.1,62.648a51.112,51.112,0,0,1-2.516-4.74A39.975,39.975,0,0,1,.1,38.531,40.41,40.41,0,0,1,8.741,15.84,39.408,39.408,0,0,1,30.468,1.452c13.38-3.4,25.67-.839,36.575,7.717.166.126.333.249.587.462,0-.294.042-.462.042-.671V4.054a1.8,1.8,0,0,1,1.8-1.845,1.825,1.825,0,0,1,1.845,1.8q.062,4.719,0,9.437a1.717,1.717,0,0,1-1.8,1.8h-9.44a1.8,1.8,0,0,1,0-3.608c1.3-.042,2.6,0,3.9,0a.444.444,0,0,1,0-.249Z" transform="translate(0 0)" fill="#6adaf7"/>
          <path id="Path_536" d="M3.792,53.87v5.579a1.83,1.83,0,0,1-3.4.965A3.978,3.978,0,0,1,.1,59.2C.059,57.9.059,56.6.059,55.254c0-1.761-.042-3.524-.042-5.239A1.815,1.815,0,0,1,1.988,47.96h9.1a1.81,1.81,0,0,1,1.971,1.8,1.776,1.776,0,0,1-1.971,1.845H6.812c.5.416.839.713,1.216,1.006A37.662,37.662,0,0,0,55.047,50.56,36.135,36.135,0,0,0,67.21,28.749,36.878,36.878,0,0,0,62.47,3.206c-.671-1.174-.629-2.1.166-2.768a1.77,1.77,0,0,1,2.726.5,54.055,54.055,0,0,1,2.516,4.907,39.4,39.4,0,0,1,3.4,17.951,40.424,40.424,0,0,1-10.528,26A39.952,39.952,0,0,1,38.14,62.675C25.6,65.109,14.316,62.26,4.293,54.329,4.253,54.205,4.085,54.08,3.792,53.87Z" transform="translate(10.866 18.803)" fill="#6adaf7"/>
        </g>
      </g>
    </g>
  </g>
</svg>
