<svg xmlns="http://www.w3.org/2000/svg" xmlns:xlink="http://www.w3.org/1999/xlink" width="207.982" height="207.982" viewBox="0 0 207.982 207.982">
  <defs>
    <filter id="Rectangle_121" x="0" y="0" width="207.982" height="207.982" filterUnits="userSpaceOnUse">
      <feOffset dx="6" dy="6" input="SourceAlpha"/>
      <feGaussianBlur stdDeviation="10" result="blur"/>
      <feFlood flood-opacity="0.2"/>
      <feComposite operator="in" in2="blur"/>
      <feComposite in="SourceGraphic"/>
    </filter>
  </defs>
  <g id="Group_796" data-name="Group 796" transform="translate(-1591.998 -2358.846)">
    <g transform="matrix(1, 0, 0, 1, 1592, 2358.85)" filter="url(#Rectangle_121)">
      <rect id="Rectangle_121-2" data-name="Rectangle 121" width="147.982" height="147.982" rx="30" transform="translate(24 24)" fill="#fff"/>
    </g>
    <g id="Group_104" transform="translate(1652.333 2426.836)">
      <path id="Path_443" d="M36.963,68.914h-.18A17.269,17.269,0,0,1,19.539,50.743a13.552,13.552,0,0,1,.35-2.985H2.069l-.113,0a2.06,2.06,0,0,1-1.379-.53,1.853,1.853,0,0,1-.571-1.492V2.024A1.982,1.982,0,0,1,.576.531,2.1,2.1,0,0,1,1.972,0c.043,0,.088,0,.143.005H71.885a2.051,2.051,0,0,1,1.422.571,2.094,2.094,0,0,1,.525,1.448v43.8A1.864,1.864,0,0,1,71.969,47.8l-.1,0H53.818a19.562,19.562,0,0,1,.439,3.995,16.66,16.66,0,0,1-5,11.982,17.533,17.533,0,0,1-12.29,5.135Zm-.174-31.4A13.958,13.958,0,0,0,22.832,51.49a14.346,14.346,0,0,0,4.127,10.1c.065.064.13.118.193.171s.134.112.2.179a14.078,14.078,0,0,1-3.73-9.612,13.907,13.907,0,0,1,4.3-10.1,14.274,14.274,0,0,1,19.311-.219,13.677,13.677,0,0,0-9.788-4.478C37.23,37.522,37.008,37.517,36.789,37.517ZM48.2,25.287,65.8,43.94h.7L47.365,23.707l-5.574,4.565-3.424,2.765a2.041,2.041,0,0,1-2.938,0c-1.038-.852-2.105-1.718-3.137-2.556l-.2-.163-.151-.123,0,0c-1.031-.837-2.1-1.7-3.134-2.553l-2.37-1.931L7.341,43.94H9.668l17.6-18.653,2.37,1.931c1.037.851,2.1,1.717,3.134,2.554l.176.143h0l0,0c1.084.879,2.2,1.789,3.314,2.7a2.042,2.042,0,0,0,2.939,0l3.424-2.765L48.2,25.287ZM3.872,5.316V41.967l.79-.834V6.942L22.876,21.775l.527-.527ZM8.3,3.955,36.921,27.3l.57-.482L10.455,4.745H64.573l.965-.79Zm61.622,1.4L50.4,21.249l1.229,1.273L69.927,7.6V5.36Z" transform="translate(0.872 1.543)" fill="#f4f4f4"/>
      <path id="Path_444" d="M4.26,3.875a14.117,14.117,0,0,1,23.833,10.27A13.939,13.939,0,0,1,13.96,28.059h-.087a13.688,13.688,0,0,1-9.7-4.038A14.185,14.185,0,0,1,0,13.97,13.438,13.438,0,0,1,4.26,3.875Z" transform="translate(23.789 38.798)" fill="#fbc316"/>
      <path id="Path_445" d="M19.532,0V36.605L0,15.889Z" transform="translate(51.267 7.429)" fill="#f7f8fb"/>
      <path id="Path_446" d="M30.109,10.534A17.253,17.253,0,0,0,13.87,20.278H0L19.137,0l2.37,1.931c2.195,1.8,4.433,3.6,6.628,5.4a2.041,2.041,0,0,0,2.939,0L34.5,4.565,40.07,0,59.207,20.234h-14A16.806,16.806,0,0,0,30.109,10.534Z" transform="translate(8.167 25.775)" fill="#f7f8fb"/>
      <path id="Path_447" d="M19.531,15.932,0,36.648V0Z" transform="translate(4.744 7.385)" fill="#f7f8fb"/>
      <path id="Path_448" d="M0,0H57.277L28.661,23.35Z" transform="translate(10.493 5.19)" fill="#6adaf7"/>
      <path id="Path_449" d="M36.963,68.914h-.18A17.269,17.269,0,0,1,19.539,50.743a13.552,13.552,0,0,1,.35-2.985H2.069l-.113,0a2.06,2.06,0,0,1-1.379-.53,1.853,1.853,0,0,1-.571-1.492V2.024A1.985,1.985,0,0,1,.577.531,2.1,2.1,0,0,1,1.973,0c.042,0,.094,0,.143.005H71.885a2.049,2.049,0,0,1,1.422.57,1.968,1.968,0,0,1,.526,1.449v43.8a1.865,1.865,0,0,1-1.863,1.978c-.03,0-.064,0-.112,0H53.819a19.6,19.6,0,0,1,.439,3.994,16.664,16.664,0,0,1-5,11.982,17.53,17.53,0,0,1-12.29,5.136Zm-9.83-27.52a13.658,13.658,0,0,0-4.258,10.1,14.278,14.278,0,0,0,4.17,10.051,13.778,13.778,0,0,0,9.7,4.038h.283a13.855,13.855,0,0,0,9.777-4.006A14.092,14.092,0,0,0,27.134,41.394h0Zm-.7-17.732L7.3,43.94H21.164A17.255,17.255,0,0,1,36.7,34.182c.229,0,.466,0,.7.014a17.056,17.056,0,0,1,15.1,9.7h14L47.365,23.662l-5.574,4.565-3.424,2.765a2.042,2.042,0,0,1-2.939,0c-1.057-.867-2.144-1.75-3.195-2.6l-.008-.006-.15-.122-.009-.007c-1.07-.869-2.176-1.768-3.266-2.66ZM3.872,5.272V41.921L23.4,21.2Zm66.055.043L50.4,21.245,69.927,41.917V5.315ZM8.3,3.911l28.616,23.35L65.537,3.911Z" transform="translate(0.082 0.49)" fill="#21455c"/>
      <path id="Path_450" d="M9.053,18.388H8.984A6.655,6.655,0,0,1,4.42,16.5,12.251,12.251,0,0,1,.645,9.7,35.3,35.3,0,0,1,.118,5.438L.029,5.177A1.719,1.719,0,0,1,1.961,3.158h.125a7.589,7.589,0,0,0,3.781-1.01A6.429,6.429,0,0,0,7.491.7a1.957,1.957,0,0,1,1.5-.7h.064A1.622,1.622,0,0,1,10.39.7c1.052,1.49,2.588,2.238,5.135,2.5a1.8,1.8,0,0,0,.4.046l.078,0h.35c.039,0,.078,0,.117,0a1.7,1.7,0,0,1,1.682,1.935,2.125,2.125,0,0,1-.022.264,2.116,2.116,0,0,0-.022.262v.22A16.9,16.9,0,0,1,15.349,14.7a8.066,8.066,0,0,1-4.96,3.512A5.155,5.155,0,0,1,9.053,18.388ZM9.028,4.034A10.209,10.209,0,0,1,3.542,6.36c.046.23.091.5.133.787.028.167.051.335.074.5a8.366,8.366,0,0,0,.189,1.041,10.288,10.288,0,0,0,2.589,5.223,3.419,3.419,0,0,0,2.558,1.25h.087A3.431,3.431,0,0,0,11.7,14.041c.09-.089.181-.191.268-.29s.172-.194.259-.281a11.239,11.239,0,0,0,2.194-4.784c.135-.631.222-1.254.307-1.889a.848.848,0,0,1,.022-.174.854.854,0,0,0,.022-.176A10.549,10.549,0,0,1,9.028,4.034Z" transform="translate(27.843 42.853)" fill="#21455c"/>
      <path id="Path_451" d="M0,2.326A10.239,10.239,0,0,0,5.486,0a10.6,10.6,0,0,0,5.75,2.414c0,.132-.044.22-.044.35-.087.658-.176,1.273-.307,1.889A11.186,11.186,0,0,1,8.69,9.437c-.176.176-.35.4-.527.571a3.423,3.423,0,0,1-5.178-.132A10.314,10.314,0,0,1,.4,4.653C.265,4.171.221,3.644.134,3.114Q.066,2.659,0,2.326Z" transform="translate(31.385 46.887)" fill="#fff"/>
    </g>
  </g>
</svg>
