<svg xmlns="http://www.w3.org/2000/svg" xmlns:xlink="http://www.w3.org/1999/xlink" width="207.982" height="207.982" viewBox="0 0 207.982 207.982">
  <defs>
    <filter id="Rectangle_122" x="0" y="0" width="207.982" height="207.982" filterUnits="userSpaceOnUse">
      <feOffset dx="6" dy="6" input="SourceAlpha"/>
      <feGaussianBlur stdDeviation="10" result="blur"/>
      <feFlood flood-opacity="0.2"/>
      <feComposite operator="in" in2="blur"/>
      <feComposite in="SourceGraphic"/>
    </filter>
  </defs>
  <g id="Group_796" data-name="Group 796" transform="translate(-1591.998 -2553.018)">
    <g transform="matrix(1, 0, 0, 1, 1592, 2553.02)" filter="url(#Rectangle_122)">
      <rect id="Rectangle_122-2" data-name="Rectangle 122" width="147.982" height="147.982" rx="30" transform="translate(24 24)" fill="#fff"/>
    </g>
    <g id="Group_98" transform="translate(1651.122 2618.807)">
      <path id="Path_399" d="M73.612,62.511H1.868C.3,62.511,0,62.215,0,60.644V6.147A6.529,6.529,0,0,1,.915,2.6,5.455,5.455,0,0,1,3.636.447,6.207,6.207,0,0,1,5.941,0H69.583c.073,0,.154,0,.238,0a5.713,5.713,0,0,1,5.707,6V60.6C75.529,62.243,75.26,62.511,73.612,62.511ZM2.507,15.927V60.006h.786V16.468H73.072v-.54Zm0-10.516h0C2.43,7.4,2.439,9.32,2.449,11.356v.306c0,.573,0,1.166,0,1.758h.786c-.05-2.441-.049-4.872,0-7.224A3.225,3.225,0,0,1,6.287,3.249,6.754,6.754,0,0,1,7.11,3.2l.161,0H70.126l.132,0a4.366,4.366,0,0,1,2.276.641A3.482,3.482,0,0,0,69.719,2.4c-.111,0-.223.005-.333.016H6.536l-.17,0a6.61,6.61,0,0,0-.813.051A3.186,3.186,0,0,0,2.507,5.411Z" transform="translate(1.832 1.475)" fill="#f4f4f4" opacity="0.5"/>
      <path id="Path_400" d="M70.566,0H0V44.079H70.566Z" transform="translate(4.043 16.861)" fill="#fff" opacity="0.5"/>
      <path id="Path_401" d="M25.553,0H0V13.809c1.032-1.376,1.966-2.555,2.9-3.735.393-.492.786-.934,1.474-.738a1.371,1.371,0,0,1,.983,1.327c.1.934.2,1.818.3,2.752q.225,1.916.442,3.981a2.367,2.367,0,0,0,.54-.3c1.574-.983,3.148-1.965,4.767-2.9,1.032-.639,1.424-.54,2.26.344.639.688,1.228,1.376,1.818,2.064.3.344.59.639.983,1.032a6.071,6.071,0,0,1,.246-.934c.442-2.015.836-4.079,1.274-6.093.15-.639.393-1.13,1.081-1.274.688-.1,1.081.295,1.376.884a8.538,8.538,0,0,0,.54.884c.786,1.274,1.523,2.555,2.359,3.931a11.917,11.917,0,0,1,1.523-1.032,1.456,1.456,0,0,0,.738-1.474c-.049-2.9,0-5.749,0-8.648C25.553,2.555,25.553,1.274,25.553,0Z" transform="translate(9.99 25.019)" fill="#fff"/>
      <path id="Path_402" d="M19.859.152a6.694,6.694,0,0,0-.246.934c-.344,1.72-.738,3.439-1.081,5.16-.15.639-.3,1.228-.983,1.424-.737.2-1.13-.295-1.574-.738-1.081-1.179-2.162-2.359-3.148-3.587-.393-.492-.688-.492-1.228-.15-1.867,1.18-3.784,2.31-5.651,3.439A1.252,1.252,0,0,1,3.933,5.6c-.2-1.622-.344-3.293-.54-4.914A5.921,5.921,0,0,0,3.243,0c-1.082,1.376-2.015,2.6-3,3.882a1.874,1.874,0,0,0-.2.934c0,2.506,0,5.013-.049,7.519,0,.737.2.934.934.934,7.912-.049,15.872,0,23.784,0h.836V2.7c-.54.393-.983.688-1.474,1.032-1.13.786-1.72.639-2.408-.54C21.088,2.213,20.5,1.276,19.859.152Z" transform="translate(9.934 38.776)" fill="#6adaf7"/>
      <path id="Path_403" d="M37.739,62.51H1.867C.244,62.51,0,62.266,0,60.642V6.148A6.521,6.521,0,0,1,.915,2.6,5.449,5.449,0,0,1,3.636.447,7.141,7.141,0,0,1,5.947,0H69.583c.073,0,.154,0,.238,0A5.714,5.714,0,0,1,75.53,6c.033,3.58.022,7.213.011,10.726v.1c0,1.562-.011,3.506-.011,5.341V60.547c0,1.666-.251,1.916-1.916,1.916C61.67,62.51,49.5,62.51,37.739,62.51ZM2.505,15.974V60.053H73.072V15.974ZM6.274,2.412a6.556,6.556,0,0,0-.819.051A3.234,3.234,0,0,0,2.408,5.412c0,1.32.012,2.666.024,3.967.012,1.319.025,2.683.025,4.04H73.072V6.148c0-2.408-1.344-3.734-3.784-3.734H6.437Z" transform="translate(0.801 0.397)" fill="#21455c"/>
      <path id="Path_404" d="M28.895,31.992H1.523C.384,31.992,0,31.6,0,30.419V1.672C0,.407.442,0,1.819,0H28.641a3.647,3.647,0,0,1,1.183.2c.589.245.639.79.639,1.326-.046,4.868-.046,9.789-.046,14.548v14.4C30.417,31.651,30.076,31.992,28.895,31.992ZM11.258,29.609c2.644,0,5.334.006,7.935.011H19.2c2.595.005,5.278.011,7.919.011h.836V19.063c-.357.26-.676.48-.985.693-.162.112-.323.223-.49.339a2.169,2.169,0,0,1-1.166.49c-.448,0-.819-.308-1.241-1.03-.423-.775-.875-1.512-1.4-2.365l-.413-.675a6.766,6.766,0,0,0-.245.934c-.172.86-.36,1.734-.541,2.58s-.369,1.72-.541,2.58c-.148.631-.287,1.226-.983,1.424a1.253,1.253,0,0,1-.321.044,1.632,1.632,0,0,1-1.136-.663l-.117-.118-.029-.032c-1.053-1.149-2.141-2.338-3.118-3.555-.219-.273-.4-.39-.611-.39a1.216,1.216,0,0,0-.618.24c-1.367.864-2.778,1.712-4.143,2.532l-.007,0c-.493.3-1,.6-1.5.9a1.252,1.252,0,0,1-2.015-1.032c-.1-.811-.186-1.648-.27-2.457s-.172-1.646-.27-2.458a6,6,0,0,0-.15-.688c-.809,1.029-1.546,1.991-2.26,2.921l-.739.962a1.875,1.875,0,0,0-.2.934c0,2.464,0,5.013-.049,7.518,0,.733.2.934.934.934C5.7,29.616,8.291,29.609,11.258,29.609ZM14.914,16.4c.408,0,.751.277,1.2.755.647.7,1.269,1.423,1.819,2.064.3.344.584.633.983,1.032a6.061,6.061,0,0,1,.246-.934c.232-1.058.456-2.154.653-3.12.188-.919.4-1.96.621-2.973a1.275,1.275,0,0,1,1.285-1.289c.5,0,.861.277,1.172.9a8.712,8.712,0,0,0,.54.884c.456.739.889,1.468,1.307,2.174l.1.168c.306.514.622,1.046.952,1.59a11.972,11.972,0,0,1,1.524-1.032,1.446,1.446,0,0,0,.737-1.475c-.033-1.947-.022-3.884-.011-5.757,0-.842.011-1.89.011-2.892-.047-1.332-.047-2.631-.047-3.887H2.457v13.81c1-1.33,1.916-2.492,2.805-3.616l.03-.038.064-.08c.343-.43.667-.785,1.153-.785a1.178,1.178,0,0,1,.321.048,1.377,1.377,0,0,1,.982,1.327c.049.467.1.921.148,1.376s.1.909.148,1.376c.135,1.168.279,2.47.443,3.98a2.379,2.379,0,0,0,.54-.295l.08-.05c1.514-.945,3.08-1.923,4.687-2.849A2.116,2.116,0,0,1,14.914,16.4Z" transform="translate(6.992 22.412)" fill="#21455c"/>
      <path id="Path_405" d="M11.177,22.359A11.179,11.179,0,0,1,3.336,3.214,11.115,11.115,0,0,1,11.18,0H11.2a11.18,11.18,0,0,1-.028,22.359Zm.005-19.951a8.769,8.769,0,0,0-.025,17.538h.026A8.769,8.769,0,0,0,11.2,2.408Z" transform="translate(43.355 22.365)" fill="#21455c"/>
      <path id="Path_406" d="M12.976.049h11.6c.59,0,1.13.1,1.327.688.1.393.1.983-.15,1.18a2.263,2.263,0,0,1-1.327.54c-7.125.049-14.3,0-21.425,0a14.728,14.728,0,0,1-1.474,0A1.367,1.367,0,0,1,0,1.228C0,.492.54.049,1.524,0,5.31.049,9.143.049,12.976.049Z" transform="translate(41.535 51.998)" fill="#6adaf7"/>
      <path id="Path_407" d="M6.047,2.464c-1.524,0-3,.049-4.521,0A1.965,1.965,0,0,1,.252,1.972a1.376,1.376,0,0,1-.2-1.18A1.158,1.158,0,0,1,1.33.006h9.632a1.208,1.208,0,1,1,.049,2.408h-.54C8.946,2.464,7.521,2.464,6.047,2.464Z" transform="translate(55.295 47.764)" fill="#6adaf7"/>
      <path id="Path_408" d="M2.407,1.18A1.207,1.207,0,0,1,1.229,2.408,1.283,1.283,0,0,1,0,1.18,1.164,1.164,0,0,1,1.179,0,1.2,1.2,0,0,1,2.407,1.18Z" transform="translate(8.32 7.376)" fill="#000078"/>
      <path id="Path_409" d="M2.408,1.278A1.174,1.174,0,0,1,1.18,2.457,1.278,1.278,0,0,1,0,1.228,1.248,1.248,0,0,1,1.228,0,1.216,1.216,0,0,1,2.407,1.274Z" transform="translate(13.822 7.325)" fill="#000078"/>
      <path id="Path_410" d="M2.408,1.234A1.219,1.219,0,0,1,1.134,2.413,1.18,1.18,0,0,1,0,1.139a1.205,1.205,0,0,1,2.408.1Z" transform="translate(19.424 7.372)" fill="#000078"/>
      <path id="Path_411" d="M8.792,0a8.769,8.769,0,1,0,6.2,2.586A8.769,8.769,0,0,0,8.792,0Z" transform="translate(45.768 24.773)" fill="#fff"/>
      <path id="Path_412" d="M5.095,12.237C5,14.006,4.7,14.547,3.821,14.5c-.835,0-1.13-.492-1.274-2.211-.3-.049-.639-.049-.934-.1A1.191,1.191,0,0,1,.482,10.96,1.167,1.167,0,0,1,1.711,9.83c.836-.049,1.671,0,2.506,0,.492,0,.983-.049.983-.688S4.66,8.5,4.217,8.5a12.88,12.88,0,0,1-1.375-.049,3.083,3.083,0,0,1-2.8-2.6A2.989,2.989,0,0,1,1.957,2.557a.843.843,0,0,0,.688-.983C2.6.542,3.087,0,3.873,0S5.052.54,5.1,1.574a3.014,3.014,0,0,0,.049.639c.3,0,.59.049.836.049A1.205,1.205,0,1,1,5.937,4.67c-.835.049-1.671,0-2.506,0-.491,0-.933.1-.933.639,0,.639.442.688.983.688H4.512A3.148,3.148,0,0,1,7.66,8.5a3.054,3.054,0,0,1-2.114,3.538,1.734,1.734,0,0,1-.451.2Z" transform="translate(50.694 26.295)" fill="#fbc316"/>
      <path id="Path_413" d="M.049,11.007H70.663V3.737C70.663,1.329,69.337,0,66.88,0H4.029a6.6,6.6,0,0,0-.983.049A3.223,3.223,0,0,0,0,3C0,5.65.049,8.3.049,11.007Z" transform="translate(3.995 3.594)" fill="#6adaf7"/>
    </g>
  </g>
</svg>
