<svg xmlns="http://www.w3.org/2000/svg" xmlns:xlink="http://www.w3.org/1999/xlink" width="245.815" height="245.815" viewBox="0 0 245.815 245.815">
  <defs>
    <filter id="Ellipse_1961" x="0" y="0" width="245.815" height="245.815" filterUnits="userSpaceOnUse">
      <feOffset dx="6" dy="6" input="SourceAlpha"/>
      <feGaussianBlur stdDeviation="10" result="blur"/>
      <feFlood flood-color="#333" flood-opacity="0.09"/>
      <feComposite operator="in" in2="blur"/>
      <feComposite in="SourceGraphic"/>
    </filter>
  </defs>
  <g id="Group_181" data-name="Group 181" transform="translate(-884.479 -1182.478)">
    <g transform="matrix(1, 0, 0, 1, 884.48, 1182.48)" filter="url(#Ellipse_1961)">
      <circle id="Ellipse_1961-2" data-name="Ellipse 1961" cx="92.908" cy="92.908" r="92.908" transform="translate(24 24)" fill="#fff"/>
    </g>
    <g id="innovation" transform="translate(911.127 1247.479)">
      <path id="Path_1363" data-name="Path 1363" d="M240.211,480.222V474.8H229.658v5.424a2.105,2.105,0,0,0,2.1,2.1h6.355A2.105,2.105,0,0,0,240.211,480.222Z" transform="translate(-144.642 -378.784)" fill="#6adaf7"/>
      <path id="Path_1364" data-name="Path 1364" d="M234.934,480.222V474.8h-5.276v5.424a2.105,2.105,0,0,0,2.1,2.1h5.276A2.105,2.105,0,0,1,234.934,480.222Z" transform="translate(-144.642 -378.784)" fill="#5ccae6"/>
      <path id="Path_1365" data-name="Path 1365" d="M128.53,123.918v8.621h22.837v-8.481a8.859,8.859,0,0,1,4.169-7.5,29.353,29.353,0,1,0-31.014.1A8.525,8.525,0,0,1,128.53,123.918Z" transform="translate(-49.656 -49.726)" fill="#f8cf26"/>
      <path id="Path_1366" data-name="Path 1366" d="M128.745,116.66a29.356,29.356,0,0,1,13.313-54.254c-.636-.045-1.276-.072-1.923-.076a29.356,29.356,0,0,0-15.616,54.33,8.525,8.525,0,0,1,4.009,7.257v8.621h4.225v-8.621A8.525,8.525,0,0,0,128.745,116.66Z" transform="translate(-49.655 -49.725)" fill="#fea82f"/>
      <g id="Group_344" data-name="Group 344" transform="translate(76.183 82.198)">
        <path id="Path_1367" data-name="Path 1367" d="M211.738,413.591h-23.3a2.468,2.468,0,0,1-2.46-2.46v-2.192a2.468,2.468,0,0,1,2.46-2.46h23.3a2.468,2.468,0,0,1,2.46,2.46v2.192A2.468,2.468,0,0,1,211.738,413.591Z" transform="translate(-185.98 -406.478)" fill="#c2c7d0"/>
        <path id="Path_1368" data-name="Path 1368" d="M211.738,448.765h-23.3a2.468,2.468,0,0,1-2.46-2.46v-2.192a2.468,2.468,0,0,1,2.46-2.46h23.3a2.468,2.468,0,0,1,2.46,2.46V446.3A2.468,2.468,0,0,1,211.738,448.765Z" transform="translate(-185.98 -434.539)" fill="#c2c7d0"/>
      </g>
      <g id="Group_345" data-name="Group 345" transform="translate(76.183 83.977)">
        <path id="Path_1369" data-name="Path 1369" d="M211.738,417.049h-23.3a2.469,2.469,0,0,1-2.362-1.778,2.439,2.439,0,0,0-.1.682v2.192a2.468,2.468,0,0,0,2.46,2.46h23.3a2.468,2.468,0,0,0,2.46-2.46v-2.192a2.429,2.429,0,0,0-.1-.682A2.468,2.468,0,0,1,211.738,417.049Z" transform="translate(-185.98 -415.271)" fill="#abb0b7"/>
        <path id="Path_1370" data-name="Path 1370" d="M211.738,452.224h-23.3a2.469,2.469,0,0,1-2.362-1.778,2.439,2.439,0,0,0-.1.682v2.192a2.468,2.468,0,0,0,2.46,2.46h23.3a2.468,2.468,0,0,0,2.46-2.46v-2.192a2.429,2.429,0,0,0-.1-.682A2.469,2.469,0,0,1,211.738,452.224Z" transform="translate(-185.98 -443.333)" fill="#abb0b7"/>
      </g>
      <path id="Path_1371" data-name="Path 1371" d="M193.635,122.431h-5.829a14.7,14.7,0,0,0-1.827-4.411L190.1,113.9a.641.641,0,0,0,0-.907l-3.875-3.875a.642.642,0,0,0-.907,0l-4.122,4.121a14.707,14.707,0,0,0-4.411-1.827v-5.829a.641.641,0,0,0-.641-.641h-5.48a.641.641,0,0,0-.641.641v5.829a14.709,14.709,0,0,0-4.411,1.827l-4.121-4.122a.642.642,0,0,0-.907,0l-3.875,3.875a.642.642,0,0,0,0,.907l4.121,4.121A14.708,14.708,0,0,0,159,122.431h-5.829a.641.641,0,0,0-.641.641v5.48a.641.641,0,0,0,.641.641H159a14.7,14.7,0,0,0,1.827,4.411l-4.121,4.122a.642.642,0,0,0,0,.907l3.875,3.875a.641.641,0,0,0,.907,0l4.121-4.122a14.7,14.7,0,0,0,4.411,1.827v5.829a.641.641,0,0,0,.641.641h5.48a.641.641,0,0,0,.641-.641v-5.829a14.708,14.708,0,0,0,4.411-1.827l4.122,4.121a.641.641,0,0,0,.907,0l3.875-3.875a.641.641,0,0,0,0-.907l-4.121-4.122a14.7,14.7,0,0,0,1.827-4.411h5.829a.641.641,0,0,0,.641-.641v-5.48A.641.641,0,0,0,193.635,122.431ZM173.4,132.512a6.7,6.7,0,1,1,6.7-6.7A6.7,6.7,0,0,1,173.4,132.512Z" transform="translate(-83.112 -83.719)" fill="#fff"/>
      <g id="Group_346" data-name="Group 346" transform="translate(69.42 21.221)">
        <path id="Path_1372" data-name="Path 1372" d="M176.566,133.752a14.707,14.707,0,0,0-1.827,4.411h3.442a.852.852,0,0,0,.82-.624,14.688,14.688,0,0,1,1.454-3.434.531.531,0,0,0-.079-.644l-3.83-3.83a.641.641,0,0,1,0-.907l2.278-2.278-1.6-1.6a.641.641,0,0,0-.907,0l-3.875,3.875a.641.641,0,0,0,0,.907Z" transform="translate(-168.269 -120.673)" fill="#e4eaf8"/>
        <path id="Path_1373" data-name="Path 1373" d="M156.637,197.555v-5.48a.641.641,0,0,1,.641-.641h-4.1a.641.641,0,0,0-.641.641v5.48a.641.641,0,0,0,.641.641h4.1A.642.642,0,0,1,156.637,197.555Z" transform="translate(-152.536 -173.942)" fill="#e4eaf8"/>
        <path id="Path_1374" data-name="Path 1374" d="M176.545,234.315a.641.641,0,0,1,0-.907l3.76-3.76a.651.651,0,0,0,.109-.782,14.7,14.7,0,0,1-1.459-3.53.624.624,0,0,0-.6-.46h-3.612a14.7,14.7,0,0,0,1.827,4.411l-4.121,4.122a.642.642,0,0,0,0,.907l3.875,3.875a.642.642,0,0,0,.907,0l1.6-1.6Z" transform="translate(-168.269 -200.622)" fill="#e4eaf8"/>
        <path id="Path_1375" data-name="Path 1375" d="M243.129,105.581a.641.641,0,0,1,.641-.641h-4.1a.641.641,0,0,0-.641.641v5.829h3.19a1,1,0,0,0,.911-1v-4.827Z" transform="translate(-221.538 -104.94)" fill="#e4eaf8"/>
        <path id="Path_1376" data-name="Path 1376" d="M243.129,285.2V280a.632.632,0,0,0-.632-.632h-3.469V285.2a.641.641,0,0,0,.641.641h4.1A.641.641,0,0,1,243.129,285.2Z" transform="translate(-221.538 -244.097)" fill="#e4eaf8"/>
      </g>
      <path id="Path_1377" data-name="Path 1377" d="M215.262,175.149a8.238,8.238,0,1,0,8.238-8.238A8.247,8.247,0,0,0,215.262,175.149Zm13.4,0a5.163,5.163,0,1,1-5.163-5.163A5.168,5.168,0,0,1,228.662,175.149Z" transform="translate(-133.157 -133.158)" fill="#afb5bc"/>
      <g id="Group_347" data-name="Group 347" transform="translate(48.352)">
        <path id="Path_1378" data-name="Path 1378" d="M54.991,200.043h-5.1a1.538,1.538,0,1,0,0,3.075h5.1a1.538,1.538,0,0,0,0-3.075Z" transform="translate(-48.352 -159.59)" fill="#6adaf7"/>
        <path id="Path_1379" data-name="Path 1379" d="M429.853,200.043h-5.1a1.538,1.538,0,0,0,0,3.075h5.1a1.538,1.538,0,1,0,0-3.075Z" transform="translate(-347.409 -159.59)" fill="#6adaf7"/>
        <path id="Path_1380" data-name="Path 1380" d="M111,324.108l-3.607,3.607a1.538,1.538,0,0,0,2.175,2.175l3.607-3.607A1.538,1.538,0,0,0,111,324.108Z" transform="translate(-95.094 -258.207)" fill="#6adaf7"/>
        <path id="Path_1381" data-name="Path 1381" d="M374.634,64.824l3.607-3.607a1.538,1.538,0,1,0-2.175-2.175l-3.607,3.607a1.538,1.538,0,1,0,2.175,2.175Z" transform="translate(-306.558 -46.743)" fill="#6adaf7"/>
        <path id="Path_1382" data-name="Path 1382" d="M249.935,8.177a1.538,1.538,0,0,0,1.538-1.538v-5.1a1.538,1.538,0,1,0-3.075,0v5.1A1.537,1.537,0,0,0,249.935,8.177Z" transform="translate(-207.944)" fill="#6adaf7"/>
        <path id="Path_1383" data-name="Path 1383" d="M374.634,324.108a1.538,1.538,0,1,0-2.175,2.175l3.607,3.607a1.538,1.538,0,1,0,2.175-2.175Z" transform="translate(-306.558 -258.207)" fill="#6adaf7"/>
        <path id="Path_1384" data-name="Path 1384" d="M111,64.824a1.538,1.538,0,0,0,2.175-2.175l-3.607-3.607a1.538,1.538,0,0,0-2.175,2.175Z" transform="translate(-95.094 -46.743)" fill="#6adaf7"/>
      </g>
      <g id="Group_348" data-name="Group 348" transform="translate(59.451 11.183)">
        <path id="Path_1385" data-name="Path 1385" d="M267.862,55.313a1.538,1.538,0,1,0-.372,3.053A27.7,27.7,0,0,1,291.711,82.7a1.538,1.538,0,0,0,1.525,1.359,1.564,1.564,0,0,0,.181-.011,1.538,1.538,0,0,0,1.348-1.706A30.926,30.926,0,0,0,267.862,55.313Z" transform="translate(-233.197 -55.302)" fill="#21455c"/>
        <path id="Path_1386" data-name="Path 1386" d="M145.779,141.986a4,4,0,0,0,4-4V135.8a3.974,3.974,0,0,0-.853-2.46,3.974,3.974,0,0,0,.853-2.46v-2.192a4,4,0,0,0-2.691-3.774v-6.553a7.286,7.286,0,0,1,3.448-6.194A30.774,30.774,0,0,0,164.773,89.9a1.538,1.538,0,1,0-3.051-.386A27.71,27.71,0,0,1,148.9,109.558a10.345,10.345,0,0,0-4.889,8.8v6.329H124.25v-6.468a10.126,10.126,0,0,0-4.738-8.565,27.818,27.818,0,0,1,11.219-51.275,1.538,1.538,0,0,0-.378-3.052,30.891,30.891,0,0,0-12.46,56.943,7.03,7.03,0,0,1,3.281,5.95v6.693a4,4,0,0,0-2.691,3.774v2.192a3.975,3.975,0,0,0,.853,2.46,3.974,3.974,0,0,0-.853,2.46v2.192a4,4,0,0,0,4,4h23.3m.923-4a.935.935,0,0,1-.923.923h-23.3a.935.935,0,0,1-.923-.923V135.8a.935.935,0,0,1,.923-.923h23.3a.935.935,0,0,1,.923.923Zm0-7.113a.935.935,0,0,1-.923.923h-23.3a.935.935,0,0,1-.923-.923v-2.192a.935.935,0,0,1,.923-.923h23.3a.935.935,0,0,1,.923.923Z" transform="translate(-103.239 -55.31)" fill="#21455c"/>
      </g>
    </g>
  </g>
</svg>
