<svg id="icon" xmlns="http://www.w3.org/2000/svg" width="17.196" height="17.196" viewBox="0 0 17.196 17.196">
  <path id="Path_601" data-name="Path 601" d="M8.6,0a8.6,8.6,0,1,0,8.6,8.6A8.6,8.6,0,0,0,8.6,0Zm1.79,13.325q-.664.262-1.059.4a2.794,2.794,0,0,1-.919.138,1.831,1.831,0,0,1-1.25-.392,1.266,1.266,0,0,1-.445-.995,3.614,3.614,0,0,1,.033-.48c.023-.163.058-.346.107-.552l.554-1.956c.049-.188.091-.366.124-.532a2.359,2.359,0,0,0,.049-.461.71.71,0,0,0-.154-.522.877.877,0,0,0-.592-.146,1.553,1.553,0,0,0-.44.066c-.149.046-.279.087-.385.128l.146-.6Q6.7,7.194,7.2,7.036a3.075,3.075,0,0,1,.939-.159,1.8,1.8,0,0,1,1.232.386,1.282,1.282,0,0,1,.432,1q0,.128-.03.449a3.005,3.005,0,0,1-.111.59L9.11,11.255c-.045.156-.085.336-.122.536a2.833,2.833,0,0,0-.053.456.654.654,0,0,0,.174.53.974.974,0,0,0,.6.141,1.746,1.746,0,0,0,.456-.071,2.591,2.591,0,0,0,.368-.124Zm-.1-7.918a1.315,1.315,0,0,1-.928.358,1.329,1.329,0,0,1-.932-.358,1.143,1.143,0,0,1-.388-.868,1.155,1.155,0,0,1,.388-.871,1.319,1.319,0,0,1,.932-.362,1.3,1.3,0,0,1,.928.362,1.173,1.173,0,0,1,0,1.739Z" fill="#6adaf7"/>
</svg>
