<svg xmlns="http://www.w3.org/2000/svg" xmlns:xlink="http://www.w3.org/1999/xlink" width="943.344" height="654.952" viewBox="0 0 943.344 654.952">
  <defs>
    <filter id="Path_766" x="404.635" y="34.619" width="246.62" height="122.317" filterUnits="userSpaceOnUse">
      <feOffset dy="3" input="SourceAlpha"/>
      <feGaussianBlur stdDeviation="3" result="blur"/>
      <feFlood flood-opacity="0.161"/>
      <feComposite operator="in" in2="blur"/>
      <feComposite in="SourceGraphic"/>
    </filter>
    <filter id="Path_768" x="666.443" y="183.192" width="246.638" height="189.523" filterUnits="userSpaceOnUse">
      <feOffset dy="3" input="SourceAlpha"/>
      <feGaussianBlur stdDeviation="3" result="blur-2"/>
      <feFlood flood-opacity="0.161"/>
      <feComposite operator="in" in2="blur-2"/>
      <feComposite in="SourceGraphic"/>
    </filter>
    <filter id="Path_770" x="101.338" y="192.622" width="531.704" height="407.886" filterUnits="userSpaceOnUse">
      <feOffset dx="6" dy="6" input="SourceAlpha"/>
      <feGaussianBlur stdDeviation="6" result="blur-3"/>
      <feFlood flood-opacity="0.09"/>
      <feComposite operator="in" in2="blur-3"/>
      <feComposite in="SourceGraphic"/>
    </filter>
    <linearGradient id="linear-gradient" x1="0.501" y1="1" x2="0.501" gradientUnits="objectBoundingBox">
      <stop offset="0" stop-color="gray" stop-opacity="0.251"/>
      <stop offset="0.54" stop-color="gray" stop-opacity="0.122"/>
      <stop offset="1" stop-color="gray" stop-opacity="0.102"/>
    </linearGradient>
    <filter id="Path_820" x="468.006" y="124.365" width="246.629" height="122.326" filterUnits="userSpaceOnUse">
      <feOffset dy="3" input="SourceAlpha"/>
      <feGaussianBlur stdDeviation="3" result="blur-4"/>
      <feFlood flood-opacity="0.161"/>
      <feComposite operator="in" in2="blur-4"/>
      <feComposite in="SourceGraphic"/>
    </filter>
    <linearGradient id="linear-gradient-2" x1="-4.618" y1="1" x2="-4.618" y2="0" xlink:href="#linear-gradient"/>
    <linearGradient id="linear-gradient-3" x1="0.5" y1="1" x2="0.5" y2="0" xlink:href="#linear-gradient"/>
  </defs>
  <g id="Group_176" data-name="Group 176" transform="translate(-881.23 -179.664)">
    <ellipse id="Ellipse_1957" data-name="Ellipse 1957" cx="136.172" cy="14.11" rx="136.172" ry="14.11" transform="translate(1552.23 789.395)" fill="#6c63ff" opacity="0.1"/>
    <ellipse id="Ellipse_1958" data-name="Ellipse 1958" cx="167.172" cy="17.11" rx="167.172" ry="17.11" transform="translate(881.23 800.395)" fill="#6c63ff" opacity="0.1"/>
    <g id="undraw_group_chat_v059" transform="translate(935.01 139.228)">
      <g transform="matrix(1, 0, 0, 1, -53.78, 40.44)" filter="url(#Path_766)">
        <path id="Path_766-2" data-name="Path 766" d="M665.15,165.69v86.751c0,4.577-4.418,8.306-9.87,8.306H446.4c-5.452,0-9.87-3.729-9.87-8.306V165.69c0-4.586,4.418-9.26,9.87-9.26H655.281C660.741,156.43,665.15,161.1,665.15,165.69Z" transform="translate(-22.89 -115.81)" fill="#fff"/>
      </g>
      <path id="Path_767" data-name="Path 767" d="M665.15,166.292v24.219H436.53V166.3a9.861,9.861,0,0,1,9.87-9.861H655.281a9.852,9.852,0,0,1,9.87,9.852Z" transform="translate(-76.674 -75.377)" fill="#6adaf7" opacity="0.4"/>
      <circle id="Ellipse_1928" data-name="Ellipse 1928" cx="6.6" cy="6.6" r="6.6" transform="translate(365.793 91.48)" fill="#fff"/>
      <circle id="Ellipse_1929" data-name="Ellipse 1929" cx="6.6" cy="6.6" r="6.6" transform="translate(384.994 91.48)" fill="#fff"/>
      <circle id="Ellipse_1930" data-name="Ellipse 1930" cx="6.6" cy="6.6" r="6.6" transform="translate(404.194 91.48)" fill="#fff"/>
      <circle id="Ellipse_1931" data-name="Ellipse 1931" cx="25.801" cy="25.801" r="25.801" transform="translate(379.348 123.882)" fill="#6c63ff" opacity="0.2"/>
      <rect id="Rectangle_123" data-name="Rectangle 123" width="108.805" height="3.844" transform="translate(460.188 132.32)" fill="#21455c"/>
      <rect id="Rectangle_124" data-name="Rectangle 124" width="108.805" height="3.844" transform="translate(460.188 141.686)" fill="#6c63ff" opacity="0.2"/>
      <rect id="Rectangle_125" data-name="Rectangle 125" width="108.805" height="3.844" transform="translate(460.188 151.043)" fill="#6c63ff" opacity="0.2"/>
      <rect id="Rectangle_126" data-name="Rectangle 126" width="108.805" height="3.844" transform="translate(460.188 160.4)" fill="#6c63ff" opacity="0.2"/>
      <g transform="matrix(1, 0, 0, 1, -53.78, 40.44)" filter="url(#Path_768)">
        <path id="Path_768-2" data-name="Path 768" d="M961.468,107.92V261.877c0,4.577-4.418,8.306-9.87,8.306H742.7c-5.452,0-9.87-3.729-9.87-8.306V107.92c0-4.586,4.418-9.26,9.87-9.26H951.6C957.05,98.66,961.468,103.378,961.468,107.92Z" transform="translate(-57.39 90.53)" fill="#fff"/>
      </g>
      <path id="Path_769" data-name="Path 769" d="M961.469,108.53v24.2H732.84v-24.2a9.87,9.87,0,0,1,9.861-9.87H951.6A9.87,9.87,0,0,1,961.469,108.53Z" transform="translate(-111.167 130.967)" fill="#6adaf7" opacity="0.4"/>
      <circle id="Ellipse_1932" data-name="Ellipse 1932" cx="6.6" cy="6.6" r="6.6" transform="translate(627.61 40.435)" fill="#fff"/>
      <circle id="Ellipse_1933" data-name="Ellipse 1933" cx="6.6" cy="6.6" r="6.6" transform="translate(646.811 40.435)" fill="#fff"/>
      <circle id="Ellipse_1934" data-name="Ellipse 1934" cx="6.6" cy="6.6" r="6.6" transform="translate(666.011 240.054)" fill="#fff"/>
      <path id="Path_942" data-name="Path 942" d="M25.8,0A25.8,25.8,0,1,1,0,25.8,25.8,25.8,0,0,1,25.8,0Z" transform="translate(641.165 272.455)" fill="#6adaf7" opacity="0.2"/>
      <rect id="Rectangle_127" data-name="Rectangle 127" width="108.805" height="3.844" transform="translate(722.005 280.902)" fill="#21455c"/>
      <rect id="Rectangle_128" data-name="Rectangle 128" width="108.805" height="3.844" transform="translate(722.005 290.259)" fill="#6c63ff" opacity="0.2"/>
      <rect id="Rectangle_129" data-name="Rectangle 129" width="108.805" height="3.844" transform="translate(722.005 299.616)" fill="#6c63ff" opacity="0.2"/>
      <rect id="Rectangle_130" data-name="Rectangle 130" width="108.805" height="3.844" transform="translate(722.005 308.983)" fill="#6c63ff" opacity="0.2"/>
      <circle id="Ellipse_1936" data-name="Ellipse 1936" cx="25.801" cy="25.801" r="25.801" transform="translate(641.165 332.822)" fill="#6adaf7" opacity="0.2"/>
      <rect id="Rectangle_131" data-name="Rectangle 131" width="108.805" height="3.844" transform="translate(722.005 341.26)" fill="#21455c"/>
      <rect id="Rectangle_132" data-name="Rectangle 132" width="108.805" height="3.844" transform="translate(722.005 350.626)" fill="#6c63ff" opacity="0.2"/>
      <rect id="Rectangle_133" data-name="Rectangle 133" width="108.805" height="3.844" transform="translate(722.005 359.983)" fill="#6c63ff" opacity="0.2"/>
      <rect id="Rectangle_134" data-name="Rectangle 134" width="108.805" height="3.844" transform="translate(722.005 369.341)" fill="#6c63ff" opacity="0.2"/>
      <g transform="matrix(1, 0, 0, 1, -53.78, 40.44)" filter="url(#Path_770)">
        <path id="Path_770-2" data-name="Path 770" d="M592.374,362.115V695.927c0,9.923-9.578,18-21.4,18h-452.9c-11.822,0-21.4-8.076-21.4-18V362.115c0-9.94,9.578-20.075,21.4-20.075h452.9C582.8,342,592.374,352.175,592.374,362.115Z" transform="translate(16.67 -137.42)" fill="#fff"/>
      </g>
      <path id="Path_771" data-name="Path 771" d="M592.375,363.436V415.9H96.68V363.436A21.392,21.392,0,0,1,118.072,342h452.9a21.392,21.392,0,0,1,21.4,21.436Z" transform="translate(-37.113 -96.978)" fill="#6adaf7" opacity="0.41"/>
      <circle id="Ellipse_1937" data-name="Ellipse 1937" cx="14.305" cy="14.305" r="14.305" transform="translate(72.441 267.686)" fill="#fff"/>
      <circle id="Ellipse_1938" data-name="Ellipse 1938" cx="14.305" cy="14.305" r="14.305" transform="translate(114.076 267.686)" fill="#fff"/>
      <circle id="Ellipse_1939" data-name="Ellipse 1939" cx="14.305" cy="14.305" r="14.305" transform="translate(155.702 267.686)" fill="#fff"/>
      <path id="Path_774" data-name="Path 774" d="M212.348,741.214s-13.828,3.331-19.306,9.6a18.777,18.777,0,0,1-7.369,4.683v-9.472c3.163-5.3,6.362-11.222,6.362-11.222.141-.292,1.29-4.365,1.29-4.365,2.6-2.041-.141-9.172-.141-9.172s1.582-4.515.725-5.39-.15-3.2.574-4.215a5.3,5.3,0,0,0,.574-3.207c0-.884-1.149-2.182-3.022-2.907s.141-1.891,1.29-2.182,1.44-3.057.15-4.515.141-2.324.884-3.932-2.3-1.308-2.3-1.308V678.921h0s-.884-4.807-1.767-13.254-4.179-9.313-4.179-9.313a37.447,37.447,0,0,1-5.187-2.041,35.9,35.9,0,0,0-5.478-2.032,27.976,27.976,0,0,1-7.069-.981,21.777,21.777,0,0,0-4.824-1.043l-.495-.256a18.908,18.908,0,0,1-8.748-9.269c-.088-.194-.168-.4-.247-.592a21.147,21.147,0,0,0,2.306-3.057h0V638.8h0c2.306-4.065,8.968-4.992,9.6-9.622a5.129,5.129,0,0,0,.044-.636h0v-.468c-.088-1.3-.53-2.589-.619-3.9a7.952,7.952,0,0,1,0-1.122h0c.292-3.6,3.013-6.724,4.25-10.223a12.775,12.775,0,0,0,.654-2.916h0c0-.3.053-.6.062-.884a1.846,1.846,0,0,1,0-.221v-.627a13.643,13.643,0,0,0-4.5-9.843c-2.3-2-5.3-3.252-6.927-5.858-.742-1.211-1.1-2.651-1.917-3.817-1.52-2.2-4.321-3.1-6.963-3.419s-5.372-.212-7.908-1.052c-1.767-.583-3.428-1.626-5.24-2.156a10.02,10.02,0,0,0-10.771,3.888c-.954,1.4-1.582,3.066-2.872,4.153-2.651,2.227-7.122,1.263-9.437,3.835-1.272,1.414-1.414,3.34-1.264,5.3v.972c.08.707.186,1.4.274,2.085v.309c0,.1.053.424.071.636a3.944,3.944,0,0,1,0,.459V604.7a30.926,30.926,0,0,1-3.3,15.516c-2.174,4.285-5.416,8.226-5.982,13.006a13.165,13.165,0,0,0-.062,2.359c0,.088,0,.186,0,.274v.424l.053.486v.283c0,.1.062.424.1.645v.133c.574,3.26,1.873,6.477,2.562,9.719a27.048,27.048,0,0,1,.512,3.676h0a8.851,8.851,0,0,0,.053,1.184c.053.4,0,1.069,0,1.6a26.685,26.685,0,0,1-3.366,1.034c-2.015.292-7.952,5.531-7.493,6.839s-2.651,10.5-2.73,10.762h0L88.4,706.118s-2.571,2.474-1.767,4.073-.15,4.365-.15,4.365-4.338,1.891-3.375,3.057.521,3.349-.141,4.807-1.767,4.073,0,4.506.3,6.114.3,6.114,6.079-.7,5.637,2.916c-.141,1.149,4.25,4.312,6.088,5.576v17.389a52.715,52.715,0,0,1-7.21-2.448c-3.746-1.767-24.785-5.09-29.4,4.948s6.344,23.433,9.083,24.891a18.819,18.819,0,0,1,3.163,3.057c.583,1.016,3.9,1.308,3.9,1.308a24.981,24.981,0,0,1,4.321,2.474c.636.645,5.9,2.324,12.158,3.623h0s-5.036,11.61,3.19,10.656,12.238-5.01,18.043-5.01c2.315,0,6.618-.318,10.957-.707a28.053,28.053,0,0,1,3.225.76,41.736,41.736,0,0,0,7.493,1.6s6.486,3.534,9.94,2.651a2.271,2.271,0,0,0,.786-.415h.079a4.657,4.657,0,0,0,2.085-1.767c4.33.442,9.26,1.069,11.116,1.767,3.587,1.387,29.22-.53,29.22-.53s16.567.327,21.312,1.767,3.057-14.65-5.7-16.461a35.254,35.254,0,0,0-7.122-.627,16.437,16.437,0,0,0,1.652-2.015c3.154-.292,5.231-.468,5.231-.468s8.359-4.073,13.112-6.547a30.041,30.041,0,0,0,8.076-6.406s4.179-2.651,5.9-3.632,2.6-4.418,2.6-4.418C245.642,737.282,212.348,741.214,212.348,741.214Zm-37.526-37.252v-1.467C175.282,702.831,175.22,703.352,174.822,703.962Zm.133,10.294c.353.459.689.884.937,1.193.884,1.193-.76,1.767-.636,3.782,0,.451.071,1.069.106,1.767h0c-.177-2.872-.318-5.257-.406-6.742Z" transform="translate(-32.524 -124.88)" fill="url(#linear-gradient)"/>
      <path id="Path_775" data-name="Path 775" d="M99.982,782.978s-8.076-1.873-11.822-3.6-24.785-5.045-29.4,4.9,6.344,23.2,9.083,24.643,29.4-18.308,29.4-18.308l21.038,8.836,4.038-13.766Z" transform="translate(-32.569 -147.665)" fill="#21455c"/>
      <rect id="Rectangle_135" data-name="Rectangle 135" width="91.558" height="31.853" rx="15.927" transform="translate(76.311 638.044)" fill="#65617d"/>
      <path id="Path_776" data-name="Path 776" d="M207.187,802.729a15.9,15.9,0,0,1-15.9,15.9H131.552a15.927,15.927,0,0,1,0-31.853h59.7a15.9,15.9,0,0,1,15.9,15.9Z" transform="translate(-39.318 -148.754)" fill="#21455c" opacity="0.7"/>
      <path id="Path_777" data-name="Path 777" d="M154.828,805.88s-9.181,2.359-16.673,2.253-42.536,14.456-42.536,14.456-5.036,11.487,3.19,10.55,12.238-4.957,18.043-4.957,24.051-2.006,24.051-2.006l17.61-12.98Z" transform="translate(-36.812 -150.978)" fill="#fbbebe"/>
      <path id="Path_778" data-name="Path 778" d="M163.634,677.653l-16.461,3.252-1.069.212s-13.024-3.464-13.457-3.755S120.4,661.148,120.4,661.148a23.71,23.71,0,0,0,10.674-2.651,5.653,5.653,0,0,0,.495-.3,10.383,10.383,0,0,0,4.418-5.434c.08-.239.159-.486.23-.742a14.7,14.7,0,0,0-.141-7.069c-1.59-6.715,2.094-8.562,7.016-8.4,7.069.23,16.788,4.665,16.788,4.665a19.652,19.652,0,0,0,1.52,6.565c.079.2.168.4.247.592a18.794,18.794,0,0,0,8.748,9.172l.521.256a17.524,17.524,0,0,0,1.652.707C185.114,663.242,163.634,677.653,163.634,677.653Z" transform="translate(-39.874 -131.265)" fill="#fbbebe"/>
      <path id="Path_779" data-name="Path 779" d="M163.676,648.351a20.756,20.756,0,0,1-25.624,4.418,13.961,13.961,0,0,0,.088-7.837c-3.888-16.426,23.777-3.738,23.777-3.738a20.066,20.066,0,0,0,1.758,7.157Z" transform="translate(-41.896 -131.262)" opacity="0.1"/>
      <path id="Path_780" data-name="Path 780" d="M167.531,630.65a20.756,20.756,0,0,1-19.492,20.711h-1.255a20.756,20.756,0,1,1,20.747-20.711Z" transform="translate(-40.528 -128.158)" fill="#fbbebe"/>
      <path id="Path_781" data-name="Path 781" d="M163.634,680.422l-16.461,3.252-1.069.212s-13.024-3.464-13.457-3.755S120.4,663.916,120.4,663.916a23.709,23.709,0,0,0,10.674-2.651,5.638,5.638,0,0,0,.495-.3,19.351,19.351,0,0,0,14.049,6.185,20.281,20.281,0,0,0,2.934-.238c2.315-.354,4.648-.583,6.98-.822,4.462-.468,11.292-1.82,14.871-5.77l.521.256a17.5,17.5,0,0,0,1.652.707C185.114,666.01,163.634,680.422,163.634,680.422Z" transform="translate(-39.874 -134.033)" opacity="0.1"/>
      <path id="Path_782" data-name="Path 782" d="M179.67,722.539c.141,3.172,2.448,38.878,2.448,38.878H110.2l.486-22.505.389-18,.133-5.9.574-20.464-2.076-1.785L98.38,682.777h0c.088-.274,3.154-9.384,2.73-10.665s5.478-6.486,7.493-6.768a26.68,26.68,0,0,0,3.384-1.034c3.4-1.193,7.952-2.951,8.438-2.651.707.38,7.776-.274,8.076-.309h0a19.262,19.262,0,0,0,14.553,6.671,19.06,19.06,0,0,0,2.934-.23c2.315-.353,4.648-.583,6.98-.822,4.683-.495,11.973-1.962,15.392-6.379a21.981,21.981,0,0,1,4.824,1.034,28.215,28.215,0,0,0,7.069.972,35.956,35.956,0,0,1,5.478,2.015,38.112,38.112,0,0,0,5.187,2.015s3.313.884,4.179,9.225,1.767,13.121,1.767,13.121l-17.151,14.844S179.52,719.366,179.67,722.539Z" transform="translate(-37.311 -134.065)" fill="#6adaf7"/>
      <path id="Path_783" data-name="Path 783" d="M70.039,694.657l2.518,4.038L82,702.026l6.486-11.831-5.982-4.038-9.587-3.746-5.469,3.172Z" transform="translate(-8.97 -81.256)" fill="#fbbebe"/>
      <path id="Path_784" data-name="Path 784" d="M189.39,779.2s13.4-1.016,18.882-7.21,19.306-9.507,19.306-9.507,33.294-3.9,20.181,25.509c0,0-.884,3.313-2.6,4.321s-5.9,3.6-5.9,3.6l-51.16-4.471Z" transform="translate(-47.755 -145.906)" fill="#21455c"/>
      <path id="Path_785" data-name="Path 785" d="M212.189,803.271a15.9,15.9,0,0,1-2.651,8.836c-8.606.769-27.665,2.563-31.65,3.667-4.9,1.361-14.818-1.007-15.9-1.272h-.1s-1.909-5.8-2.819-9.507c-.415-1.679-.618-2.934-.353-3.031.884-.283,8.836-2.448,8.65-1.228s23.777-9.3,23.777-9.3l.733,9.225C194.3,803.421,212.189,799.269,212.189,803.271Z" transform="translate(-44.32 -149.297)" opacity="0.1"/>
      <path id="Path_786" data-name="Path 786" d="M236.946,795.621l-1.007,3.746a29.956,29.956,0,0,1-8.076,6.335c-4.754,2.457-13.112,6.486-13.112,6.486s-30.7,2.6-35.891,4.038-15.993-1.264-15.993-1.264-4.038-12.247-3.172-12.538,8.792-2.448,8.65-1.219,23.777-9.3,23.777-9.3Z" transform="translate(-44.434 -149.351)" fill="#21455c"/>
      <path id="Path_787" data-name="Path 787" d="M150.41,830.836s15.092,1.06,18.679,2.43,29.22-.53,29.22-.53,16.567.327,21.312,1.767,3.057-14.509-5.7-16.3-21.1.884-21.1.884l-15.613-2.094c-1.688-.212-12.812.106-12.812.106Z" transform="translate(-43.367 -152.262)" fill="#fbbebe"/>
      <path id="Path_788" data-name="Path 788" d="M83.31,787.66s19.943,1.767,25.421,5.063Z" transform="translate(-35.556 -148.857)" opacity="0.1"/>
      <path id="Path_789" data-name="Path 789" d="M221.217,772.85s-15.613,3.8-21.727,9.393Z" transform="translate(-49.081 -147.133)" opacity="0.1"/>
      <path id="Path_790" data-name="Path 790" d="M84.62,782.52c.318.106,9.181,1.272,8.968,2.112S84.62,782.52,84.62,782.52Z" transform="translate(-35.709 -148.258)" opacity="0.1"/>
      <path id="Path_791" data-name="Path 791" d="M68.86,806.513l1.149,4.321a18.362,18.362,0,0,1,3.172,3.031c.574,1.016,3.9,1.29,3.9,1.29a24.608,24.608,0,0,1,4.321,2.456c.866.866,10.232,3.6,19.024,4.754s25.076,3.313,28.54,4.418a41.321,41.321,0,0,0,7.493,1.59s6.486,3.455,9.94,2.589,9.366-16.567,9.366-16.567-22.77-5.3-23.486-7.069-22.646-9.746-22.646-9.746l-12.971.309Z" transform="translate(-33.874 -150.011)" opacity="0.1"/>
      <path id="Path_792" data-name="Path 792" d="M67.88,806.033l1.158,4.321a18.607,18.607,0,0,1,3.163,3.022c.583,1.016,3.9,1.3,3.9,1.3a24.605,24.605,0,0,1,4.321,2.456c.866.866,10.232,3.6,19.024,4.754s25.076,3.313,28.54,4.418a41.326,41.326,0,0,0,7.493,1.59s6.486,3.455,9.94,2.589,9.375-16.567,9.375-16.567-22.779-5.3-23.495-7.069S98.435,792,98.435,792L88.309,789.74Z" transform="translate(-33.76 -149.099)" fill="#21455c"/>
      <path id="Path_793" data-name="Path 793" d="M99.416,684.05,96.9,685.49l-4.86,33.152s-2.571,2.448-1.767,4.029-.15,4.33-.15,4.33-4.338,1.873-3.375,3.022.521,3.313-.141,4.754-1.767,4.038,0,4.471.3,6.053.3,6.053,6.079-.689,5.637,2.881c-.186,1.44,6.874,6.053,6.874,6.053s-8.023-14.562,9.949-12.538l1.546-8.2s1.546-4.621,0-6.061.353-8.288.353-8.288l.336-29.759Z" transform="translate(-35.829 -136.795)" fill="#6adaf7"/>
      <path id="Path_794" data-name="Path 794" d="M96.8,732.5c.318.521,10.02,1.6,10.656,3.331S96.8,732.5,96.8,732.5Z" transform="translate(-37.127 -142.435)" opacity="0.1"/>
      <path id="Path_795" data-name="Path 795" d="M93.34,741.354s1.317-4.118,4.418-3.375S93.34,741.354,93.34,741.354Z" transform="translate(-36.724 -143.063)" opacity="0.1"/>
      <path id="Path_796" data-name="Path 796" d="M91.43,747.94s2.324-5.478,5.487-5.063S91.43,747.94,91.43,747.94Z" transform="translate(-36.502 -143.641)" opacity="0.1"/>
      <path id="Path_797" data-name="Path 797" d="M207.227,747.587l-1.007,6.053s-10.418,19.024-12.255,19.315-12.105-12.688-12.105-12.688l-2.739-12.68,10.78-2.041,4.789-4.736S206.794,741.967,207.227,747.587Z" transform="translate(-46.71 -143.403)" fill="#fbbebe"/>
      <path id="Path_798" data-name="Path 798" d="M203.365,689.268l3.9,2.739V706.56s3.022-.292,2.3,1.3-2.156,2.448-.884,3.888,1.007,4.179-.15,4.471-3.172,1.44-1.29,2.156,3.022,2.023,3.022,2.889a5.2,5.2,0,0,1-.574,3.163c-.725,1.016-1.44,3.322-.574,4.179s-.725,5.3-.725,5.3,2.739,7.069.141,9.083c0,0-1.149,4.029-1.29,4.321,0,0,1.811-14.031-16.32-8.094l-.459-7.334c-.124-1.979,1.564-2.562.636-3.738s-3.269-3.9-2.165-4.612.725-2.023.292-3.031-1.962-1.007-.583-2.236,2.2-2.377,1.387-2.951-2.218-2.456-1.1-3.313,1.158-13.4,1.158-13.4S194.715,680.185,203.365,689.268Z" transform="translate(-47.752 -137.11)" fill="#6adaf7"/>
      <path id="Path_799" data-name="Path 799" d="M203.31,717.572s5.54-1.5,5.726,0S203.31,717.572,203.31,717.572Z" transform="translate(-49.525 -140.62)" opacity="0.1"/>
      <path id="Path_800" data-name="Path 800" d="M196.26,722.22s7.6-1.9,8.544-.424S196.26,722.22,196.26,722.22Z" transform="translate(-48.705 -141.124)" opacity="0.1"/>
      <path id="Path_801" data-name="Path 801" d="M194.35,726.811s11.4-1.582,12.132.742S194.35,726.811,194.35,726.811Z" transform="translate(-48.482 -141.712)" opacity="0.1"/>
      <path id="Path_802" data-name="Path 802" d="M196.26,732.5c.424.1,10.974.884,11.186,2.845S196.26,732.5,196.26,732.5Z" transform="translate(-48.705 -142.435)" opacity="0.1"/>
      <rect id="Rectangle_136" data-name="Rectangle 136" width="90.347" height="51.319" rx="10.47" transform="translate(62.801 596.55)" fill="#3f3d56"/>
      <circle id="Ellipse_1940" data-name="Ellipse 1940" cx="3.331" cy="3.331" r="3.331" transform="translate(104.648 618.878)" fill="#e7effd"/>
      <path id="Path_803" data-name="Path 803" d="M117.47,704.25s8.659,6.618,15.348,1.573C132.818,705.8,121.473,706.857,117.47,704.25Z" transform="translate(-39.533 -139.147)" opacity="0.1"/>
      <path id="Path_804" data-name="Path 804" d="M167.09,706.27s8.659,6.618,15.357,1.573C182.447,707.843,171.128,708.868,167.09,706.27Z" transform="translate(-45.309 -139.382)" opacity="0.1"/>
      <path id="Path_805" data-name="Path 805" d="M165.093,630.668a20.693,20.693,0,0,1-3.137,10.983,31.686,31.686,0,0,0-4.683-16.391c-2.881-4.418-11.628-12.176-17.672-10.011a4.294,4.294,0,0,0-2.651,2.828c-.592,2.262,1.158,3.207,2.271,5.01a15.365,15.365,0,0,1,2.1,10.356,12.872,12.872,0,0,1-.309,1.432c-.945,3.534-3.11,7.625-.884,10.541,1.564,2.032,4.913,2.73,5.372,5.257a3.2,3.2,0,0,1,0,.707c-.106,1.7-1.555,3.2-2.182,4.86a7.942,7.942,0,0,0,.442,5.885c1,2.58,2.6,5.178,2.987,7.891s-.451,5.24-1.431,7.8a34.688,34.688,0,0,0-2.386,7.334c-.689,4.789,1.06,10.329-1.953,14.138a2.068,2.068,0,0,1-1.317.884c-1.935.2-1.6-3.26-3.154-4.418a13.65,13.65,0,0,1-.415,6.017c-.733,1.891-2.651,3.481-4.639,3.172-.23-1.511-.459-3.022-.68-4.533a13.192,13.192,0,0,1-4.807,3,35.1,35.1,0,0,1,5.01-13.563c-5.072,2.448-8.032,7.732-10.674,12.706-1.652,3.11-3.349,6.512-2.774,9.985.23,1.414.884,2.757.972,4.179s-.38,3.093-1.705,3.632a3.1,3.1,0,0,1-3.349-1.034l-.141-.177-.23-.318a5.246,5.246,0,0,1-.38-.689,12.971,12.971,0,0,1-.813-2.651l-.1-.389c-1.334-5.893-2.545-11.964-1.564-17.928.362-2.191,1.025-4.365.945-6.592a12.1,12.1,0,0,0-.751-3.684c-1.175-3.3-3.446-6.326-4.736-9.64a.283.283,0,0,1,0-.08c-.68-1.767-1.016-3.95.239-5.363a10.744,10.744,0,0,1,2.4-1.626c2.509-1.635,3.64-4.736,4.091-7.7a25.935,25.935,0,0,0,.318-4.047c3.4-1.193,7.952-2.951,8.438-2.651.707.38,7.776-.274,8.076-.309a10.533,10.533,0,0,0,4.948-5.734c.08-.239.159-.486.23-.742a20.756,20.756,0,1,1,30.669-18.334Z" transform="translate(-38.09 -128.177)" opacity="0.1"/>
      <path id="Path_806" data-name="Path 806" d="M141.031,630.953c-.945,3.534-3.11,7.625-.884,10.541,1.564,2.032,4.913,2.73,5.372,5.257.353,2-1.423,3.676-2.138,5.575-1.714,4.524,2.748,8.977,3.42,13.766.742,5.2-3.048,9.94-3.808,15.136-.689,4.789,1.06,10.329-1.953,14.137a2.112,2.112,0,0,1-1.317.884c-1.935.2-1.608-3.269-3.154-4.418a13.491,13.491,0,0,1-.415,6.008c-.733,1.891-2.651,3.49-4.639,3.172l-.68-4.533a13.192,13.192,0,0,1-4.807,3,35.14,35.14,0,0,1,5.01-13.563c-5.072,2.448-8.032,7.731-10.674,12.706-1.652,3.11-3.349,6.512-2.774,9.976.23,1.423.884,2.766.972,4.188s-.38,3.093-1.705,3.632a3.154,3.154,0,0,1-3.534-1.2,9.066,9.066,0,0,1-1.423-3.667c-1.378-6.008-2.651-12.22-1.661-18.317.362-2.191,1.025-4.365.945-6.592-.177-4.869-3.764-8.836-5.522-13.4-.68-1.767-1.007-3.958.247-5.372a10.893,10.893,0,0,1,2.412-1.626c2.5-1.635,3.632-4.736,4.091-7.7a26.693,26.693,0,0,0-.274-9.622c-1.016-4.745-3.331-9.366-2.757-14.138s3.808-8.633,5.982-12.874a30.422,30.422,0,0,0,3.093-17.8c-.38-2.836-1.034-6.132.884-8.253,2.315-2.545,6.795-1.59,9.437-3.8,1.29-1.078,1.917-2.73,2.872-4.117a10.082,10.082,0,0,1,10.771-3.844c1.811.521,3.446,1.555,5.24,2.138,2.536.822,5.257.716,7.908,1.034s5.443,1.211,6.963,3.393c.813,1.158,1.175,2.58,1.917,3.782,1.59,2.58,4.63,3.817,6.927,5.8a13.457,13.457,0,0,1,3.782,14.358c-1.37,3.826-4.542,7.2-4.277,11.248.115,1.67.822,3.3.592,4.948-.636,4.595-7.3,5.5-9.6,9.534.186-6.6-1.078-13.4-4.683-18.918C154.3,617,145.555,609.243,139.511,611.4a4.294,4.294,0,0,0-2.651,2.828c-.592,2.262,1.149,3.207,2.271,5.01a15.251,15.251,0,0,1,1.9,11.716Z" transform="translate(-38.088 -125.121)" fill="#3f3d56"/>
      <g id="Group_172" data-name="Group 172" transform="translate(67.041 474.181)" opacity="0.2">
        <path id="Path_807" data-name="Path 807" d="M113.33,660.6a26.809,26.809,0,0,0-.574-6.185c-.884-4.029-2.651-7.952-2.827-12.026-.23,4.506,1.873,8.836,2.827,13.325A26.506,26.506,0,0,1,113.33,660.6Z" transform="translate(-105.694 -606.127)"/>
        <path id="Path_808" data-name="Path 808" d="M131.579,699.82c.353-.645.716-1.281,1.1-1.9-5.072,2.439-8.032,7.731-10.674,12.706-1.529,2.872-3.093,6-2.863,9.207.194-2.748,1.546-5.425,2.863-7.952C124.457,707.321,127.17,702.453,131.579,699.82Z" transform="translate(-106.767 -612.592)"/>
        <path id="Path_809" data-name="Path 809" d="M119.189,727.539a3.084,3.084,0,0,1-1.688,2.536,3.163,3.163,0,0,1-3.534-1.21,9.206,9.206,0,0,1-1.423-3.658,65.5,65.5,0,0,1-2.006-13.086,57.927,57.927,0,0,0,2.006,14.385,9.207,9.207,0,0,0,1.423,3.658,3.146,3.146,0,0,0,3.534,1.2c1.325-.539,1.847-2.2,1.714-3.631Z" transform="translate(-105.767 -614.245)"/>
        <path id="Path_810" data-name="Path 810" d="M145.995,632.27a13.916,13.916,0,0,1-.468,3.066c-.7,2.651-2.068,5.549-1.82,8.067.194-2.191,1.237-4.577,1.82-6.777A14.465,14.465,0,0,0,145.995,632.27Z" transform="translate(-109.625 -604.949)"/>
        <path id="Path_811" data-name="Path 811" d="M120.475,609.426a29.554,29.554,0,0,0-.247-4.595c-.15-1.122-.336-2.315-.4-3.481a26.384,26.384,0,0,0,.4,4.78A29.378,29.378,0,0,1,120.475,609.426Z" transform="translate(-106.849 -601.35)"/>
        <path id="Path_812" data-name="Path 812" d="M150.53,655.067v-.1c-.309,1.5-1.546,2.872-2.112,4.374a6.115,6.115,0,0,0-.353,2.819,5.577,5.577,0,0,1,.353-1.52C149.108,658.743,150.884,657.064,150.53,655.067Z" transform="translate(-110.132 -607.592)"/>
        <path id="Path_813" data-name="Path 813" d="M111.245,696.673c-.177-4.869-3.764-8.836-5.514-13.4a8.613,8.613,0,0,1-.565-2.218,7.378,7.378,0,0,0,.565,3.534c1.767,4.462,5.213,8.394,5.5,13.157C111.245,697.38,111.254,697.027,111.245,696.673Z" transform="translate(-105.139 -610.629)"/>
        <path id="Path_814" data-name="Path 814" d="M161.436,623.491c-2.88-4.418-11.637-12.176-17.672-10.02a4.259,4.259,0,0,0-2.651,2.827,3.1,3.1,0,0,0-.053,1.52,1.62,1.62,0,0,1,.053-.221,4.259,4.259,0,0,1,2.651-2.828c6.017-2.156,14.774,5.593,17.672,10.02,3.26,5,4.595,11.054,4.683,17.044C166.217,635.419,164.927,628.863,161.436,623.491Z" transform="translate(-109.312 -602.718)"/>
        <path id="Path_815" data-name="Path 815" d="M179.027,635.472c-.627,4.586-7.272,5.5-9.587,9.507V646.3c2.306-4.02,8.968-4.939,9.6-9.534a5.84,5.84,0,0,0,0-1.361A.361.361,0,0,1,179.027,635.472Z" transform="translate(-112.624 -605.315)"/>
        <path id="Path_816" data-name="Path 816" d="M183.895,616.68c-1.37,3.817-4.542,7.192-4.277,11.248v.177c.292-3.534,3.013-6.671,4.25-10.135a12.476,12.476,0,0,0,.707-4.93,12.256,12.256,0,0,1-.68,3.64Z" transform="translate(-113.807 -602.711)"/>
        <path id="Path_817" data-name="Path 817" d="M145.2,707.765a2.094,2.094,0,0,1-1.317.884c-1.935.2-1.6-3.269-3.154-4.418,0,.459.071.884.1,1.387,1.431,1.246,1.175,4.542,3.057,4.347a2.094,2.094,0,0,0,1.317-.884c1.767-2.165,1.891-4.9,1.847-7.731A10.18,10.18,0,0,1,145.2,707.765Z" transform="translate(-109.282 -612.991)"/>
        <path id="Path_818" data-name="Path 818" d="M138.926,711.031c-.725,1.891-2.651,3.534-4.63,3.172l-.689-4.533a13.156,13.156,0,0,1-4.559,2.916c-.088.459-.177.928-.247,1.387a13.189,13.189,0,0,0,4.807-3l.689,4.533c2,.318,3.905-1.281,4.63-3.172a10.179,10.179,0,0,0,.539-4.1,8.616,8.616,0,0,1-.539,2.8Z" transform="translate(-107.893 -613.792)"/>
        <path id="Path_819" data-name="Path 819" d="M147.975,690.913a22.823,22.823,0,0,0-.177,3.667,17.359,17.359,0,0,1,.177-2.368c.716-4.957,4.188-9.5,3.879-14.411C151.58,682.227,148.638,686.4,147.975,690.913Z" transform="translate(-110.103 -610.249)"/>
      </g>
      <g transform="matrix(1, 0, 0, 1, -53.78, 40.44)" filter="url(#Path_820)">
        <path id="Path_820-2" data-name="Path 820" d="M736.879,267.269V354.02c0,4.577-4.418,8.306-9.87,8.306H518.12c-5.452,0-9.87-3.729-9.87-8.306V267.269c0-4.595,4.418-9.269,9.87-9.269H727.01C732.461,258,736.879,262.674,736.879,267.269Z" transform="translate(-31.24 -127.63)" fill="#fff"/>
      </g>
      <path id="Path_821" data-name="Path 821" d="M736.879,267.87v24.2H508.25v-24.2a9.87,9.87,0,0,1,9.87-9.87H727.01A9.87,9.87,0,0,1,736.879,267.87Z" transform="translate(-85.023 -87.2)" fill="#6adaf7" opacity="0.4"/>
      <circle id="Ellipse_1941" data-name="Ellipse 1941" cx="6.6" cy="6.6" r="6.6" transform="translate(429.165 181.236)" fill="#fff"/>
      <circle id="Ellipse_1942" data-name="Ellipse 1942" cx="6.6" cy="6.6" r="6.6" transform="translate(448.365 181.236)" fill="#fff"/>
      <circle id="Ellipse_1943" data-name="Ellipse 1943" cx="6.6" cy="6.6" r="6.6" transform="translate(467.565 181.236)" fill="#fff"/>
      <rect id="Rectangle_137" data-name="Rectangle 137" width="108.805" height="3.844" transform="translate(551.789 225.91) rotate(180)" fill="#21455c"/>
      <rect id="Rectangle_138" data-name="Rectangle 138" width="108.805" height="3.844" transform="translate(551.789 235.276) rotate(180)" fill="#6c63ff" opacity="0.2"/>
      <rect id="Rectangle_139" data-name="Rectangle 139" width="108.805" height="3.844" transform="translate(551.789 244.642) rotate(180)" fill="#6c63ff" opacity="0.2"/>
      <rect id="Rectangle_140" data-name="Rectangle 140" width="108.805" height="3.844" transform="translate(551.789 253.99) rotate(180)" fill="#6c63ff" opacity="0.2"/>
      <path id="Path_822" data-name="Path 822" d="M291.456,431.741c6.088,4.082,15.321,2.138,15.321,2.138s13.934-6.6,18.061-6.6,14.137-4.082,14.137-4.082l-.336-2.748-1-8.288c6.353,4.948,13.4,3.243,16.877,2.88,3.729-.389,23.663-12.238,25.571-13.015a5.011,5.011,0,0,0,1.767-1.767h0a44.659,44.659,0,0,0,3.366-6.185h0c1.255-1.1,2.165-1.979,2.094-2.174a14.394,14.394,0,0,1,1.228-3.26,16,16,0,0,0,6.044-2.174,5.3,5.3,0,0,0,1.962-4.277s19.439-19.616,16.885-27.771,6.282-8.35,6.282-8.35,13.554-5.823,15.436-9.322c1.166-2.147,11.328-6.866,18.971-10.188l.945-.406c2.969,6.512,18.043,1.5,21.012-1.255,3.137-2.907,12.37-4.268,12.37-4.268s.389-38.065,3.34-42.925c1.4-2.3,1.767-9.817,1.7-17.071v-.778c4.126-.8,13.943-2.651,18.5-3.119,2.889-.292,5.894-2.094,8.209-3.844l.265.345a5.7,5.7,0,0,0,2.518.415,3.931,3.931,0,0,0,2.2-.415c1.767-.972,8.244-2.916,10.6-3.888s-.4-7.952-2.165-9.322-2.942-3.1-1.961-3.879-2.359-2.721-4.321-3.11-7.855-3.11-7.855-3.11-2.156-4.462-5.69-4.462-8.253-3.534-8.253-3.534c-.194-1.555-3.923-1.767-3.923-1.767s-14.137-10.868-16.5-9.516-8.836-2.129-8.836-2.129-7.952.884-9.817-.574h0a2.236,2.236,0,0,0-.477-1.317c-.424-1.317-2.474-3.119-4.418-4.621a18.243,18.243,0,0,0,.221-2.8,11.157,11.157,0,0,0-.044-1.219,1.574,1.574,0,0,0,0-.2c.1-.884.185-1.82.283-2.73a5.6,5.6,0,0,1,.68-2.571c.336-.513.822-.884,1.193-1.4a3.208,3.208,0,0,0,.238-.362l.062-.106c.053-.1.1-.194.141-.292a.48.48,0,0,0,.044-.1,4.089,4.089,0,0,0,.256-.831s0,0,0-.071.044-.256.053-.389v-.053a8.288,8.288,0,0,0-.442-3.331c-.592-1.838-1.511-3.605-1.608-5.522a17.916,17.916,0,0,0-.1-2.845c-.477-2.121-2.651-3.472-4.763-4.356-2.9-1.219-4.365-2.545-6.7-4.356-1.979-1.537-5.249-.76-7.749-.6-5.69.362-11.319,2.076-16.673,3.852a16.558,16.558,0,0,0-5.832,2.889,6.441,6.441,0,0,0-2.129,3.605h0a4.587,4.587,0,0,0-.071.981v.088a1.385,1.385,0,0,0,.044.371.521.521,0,0,0,0,.124,4.155,4.155,0,0,0,.106.451h0c.221.716.645,1.361.884,2.076a4.81,4.81,0,0,1,.133.477v.053l.08.468h0c.212,1.767-.442,3.605-.725,5.408a7.473,7.473,0,0,0-.088.778h0a9.392,9.392,0,0,0,.265,3.1h0a1.435,1.435,0,0,0,.115.362l.053.159c0,.106.08.2.115.309a2.027,2.027,0,0,1,.088.2c0,.088.079.177.124.265s.079.15.115.221a2.4,2.4,0,0,0,.141.239l.141.23.141.212.177.221c.053.062.1.133.159.194l.2.212.159.168.247.2.168.141.3.2.15.1a3.752,3.752,0,0,0,.495.256c1.131.521,2.545.7,3.234,1.688a2.394,2.394,0,0,1,.327.778v.371a15.622,15.622,0,0,0,.1,1.705,8.016,8.016,0,0,0,.044.884,2.854,2.854,0,0,0,.194.663,17.672,17.672,0,0,0,5.955,10c.062.3.124.654.2,1.051a19.564,19.564,0,0,1-5.717,2.987c-4.727,1.546-11.372,7.882-11.372,7.882s-3.313,23.857-4.109,26.8-1.387,14.182-1.387,14.182a32.7,32.7,0,0,1-1.962,6.989c-.831,1.643-.68,8.7,1.643,12.989a10.759,10.759,0,0,1-1.449,2.35c-4.71,5.443-18.847,5.249-23.565,5.249-4.338,0-5.681,2.651-5.858,3.048-8.633,2.448-36.581,10.426-39.894,11.875-3.923,1.714-6.088,18.67-6.088,18.67s-8.244,28.16-7.855,31.871-2.748,13.961-2.748,13.961,0,11.619-1.334,12.414h-.044c-1.37.583-1.175,6.185-1.175,6.185s1.007.3,2.589.7a44.931,44.931,0,0,1-3.181,9.658c-.61-.778-1.21-1.1-1.564-.194-.981,2.465-15.71,19.943-19.439,19.943-1.767,0-4.71,1.458-6.645,3.428C289.168,426.837,288.275,429.612,291.456,431.741Zm67.551-101.215c16.691,1.555,34.566-1.184,34.566-1.184a40.048,40.048,0,0,1-2.554,6.813C389.844,338.1,386.5,349.17,386.5,351.5s-5.3,22.328-6.866,23.3a5.823,5.823,0,0,0-1.714,2.474,23.291,23.291,0,0,0-1.034,2.969,11.941,11.941,0,0,0,.133,1.431c-1.175,1.078-2.412,2.209-3.534,3.207h0s-7.007,3.958-9.331,6.079-13.351,4.754-13.351,4.754a67.848,67.848,0,0,0-7.952,4.029c-3.4,2.059-6.812,4.665-7.7,7.237.389-4.338,1.016-9.56,1.431-12.892h.627c5.5-.336,4.683-5.593,4.418-6.892a2.49,2.49,0,0,0-.071-.292c3.932-4.277,12.768-36.121,11.584-39.62s.99-6.6,1.449-6.6,1.1-3.888.124-6.026S359.007,330.526,359.007,330.526Zm134.977-85.708-1.043.256v-.221a5.39,5.39,0,0,0,1.043.027Zm-57.053-29.3c-.159.194-.318.38-.486.565l-.2.212v-1.078Zm-19.669,37.676.071,1.1s-.106.663-.309,1.767ZM507.5,242.343l-3.428.583c.486-.177.963-.38,1.431-.6a3.253,3.253,0,0,1,1.087-.292,5.844,5.844,0,0,1,1.281.274,1.768,1.768,0,0,0-.371.1Z" transform="translate(-59.545 -76.668)" fill="url(#linear-gradient-2)"/>
      <path id="Path_823" data-name="Path 823" d="M402.224,410.224s-3.941,8.164-3.746,8.739S390,426.482,390,426.482l-9.446-6.751.963-4.621s10.6-9.552,11.372-10.656S402.224,410.224,402.224,410.224Z" transform="translate(-70.158 -104.234)" fill="#be6f72"/>
      <path id="Path_824" data-name="Path 824" d="M343.952,438.822c6.556,6.362,14.27,4.418,17.928,4.047s23.221-12.141,25.1-12.918a5,5,0,0,0,1.714-1.767h0a44.112,44.112,0,0,0,3.314-6.114c-.133,0-6.539,1.864-8.156,0,0,0-2.7-3.314-3.278-3.314s-.044-5.805-.044-5.805-6.892,3.879-9.207,6-13.1,4.718-13.1,4.718a66.214,66.214,0,0,0-7.758,4C345.348,430.807,340.232,435.208,343.952,438.822Z" transform="translate(-65.749 -105.237)" fill="#3f3d56"/>
      <path id="Path_825" data-name="Path 825" d="M343.952,440.756c6.556,6.362,14.27,4.418,17.928,4.047s23.221-12.141,25.1-12.918a5,5,0,0,0,1.714-1.767c-2.28-1.361-17.177,8.111-21.348,9.843s-14.721.778-20.694-1.767c-2.987-1.246,0-5.089,3.808-8.624C345.348,432.742,340.232,437.142,343.952,440.756Z" transform="translate(-65.749 -107.172)" opacity="0.1"/>
      <path id="Path_826" data-name="Path 826" d="M342.46,419.171s-2.748,20.623-2.05,23.327-17.23-9.251-17.23-9.251,6.273-12.927,4.418-15.9S342.46,419.171,342.46,419.171Z" transform="translate(-63.479 -105.635)" fill="#be6f72"/>
      <path id="Path_827" data-name="Path 827" d="M325.579,407s11.177,3.278,17.345,2.889c5.408-.336,4.595-5.549,4.312-6.839a2.5,2.5,0,0,0-.071-.292c3.861-4.241,12.529-35.847,11.372-39.32s.963-6.547,1.423-6.547,1.087-3.861.124-5.982,4.241-4.047,4.241-4.047c16.382,1.546,33.921-1.175,33.921-1.175a39.671,39.671,0,0,1-2.509,6.768c-1.158,1.926-4.418,12.909-4.418,15.224s-5.2,22.169-6.742,23.132a5.761,5.761,0,0,0-1.679,2.448,23.071,23.071,0,0,0-1.016,2.942c.574,12.918,15.224,7.908,17.345,6.185a5.643,5.643,0,0,0,.822-.839,5.363,5.363,0,0,0,1.1-3.4s19.077-19.439,16.576-27.559,6.185-8.288,6.185-8.288,13.3-5.779,15.145-9.251c1.14-2.129,11.116-6.812,18.626-10.108,4.7-2.059,8.438-3.534,8.438-3.534L462.995,328.2l-2.465-8.836-4.639-1.767-14.827-5.584-26.623-3.658-2.439.318-25.872,3.34s-37.809,10.753-41.626,12.459-5.973,18.555-5.973,18.555-8.094,27.948-7.714,31.624-2.73,13.8-2.73,13.8,0,11.487-1.308,12.308h-.044C325.393,401.392,325.579,407,325.579,407Z" transform="translate(-63.758 -93.061)" fill="#21455c"/>
      <path id="Path_828" data-name="Path 828" d="M369.43,349.913c16.382,1.546,33.921-1.175,33.921-1.175,1.158-3.64,17.354-13.66,17.354-13.66C407.416,331.8,369.43,349.913,369.43,349.913Z" transform="translate(-68.863 -96.126)" opacity="0.1"/>
      <path id="Path_829" data-name="Path 829" d="M389.28,407.375c.574,12.918,15.224,7.908,17.345,6.185a5.646,5.646,0,0,0,.822-.839c-5.125,1.891-14.2,3.34-17.15-8.27A23.086,23.086,0,0,0,389.28,407.375Z" transform="translate(-71.174 -104.248)" fill="#444053"/>
      <path id="Path_830" data-name="Path 830" d="M325.579,419.184s11.177,3.278,17.345,2.889c5.408-.336,4.595-5.549,4.312-6.839-5.655-.177-15.4-.716-20.455-2.244h-.044C325.393,413.573,325.579,419.184,325.579,419.184Z" transform="translate(-63.758 -105.242)" fill="#444053"/>
      <path id="Path_831" data-name="Path 831" d="M389.28,407.375c.574,12.918,15.224,7.908,17.345,6.185a5.646,5.646,0,0,0,.822-.839c-5.125,1.891-14.2,3.34-17.15-8.27A23.086,23.086,0,0,0,389.28,407.375Z" transform="translate(-71.174 -104.248)" opacity="0.1"/>
      <path id="Path_832" data-name="Path 832" d="M325.579,419.184s11.177,3.278,17.345,2.889c5.408-.336,4.595-5.549,4.312-6.839-5.655-.177-15.4-.716-20.455-2.244h-.044C325.393,413.573,325.579,419.184,325.579,419.184Z" transform="translate(-63.758 -105.242)" opacity="0.1"/>
      <path id="Path_833" data-name="Path 833" d="M294.121,461.517c5.973,4.047,15.021,2.121,15.021,2.121s13.678-6.556,17.725-6.556,13.9-4.02,13.9-4.02l-.336-2.73-1.59-13.077s-15.021-.38-15.613-1.767c0,0-2.7-6.636-3.667-4.188s-15.419,19.8-19.077,19.8c-1.767,0-4.63,1.44-6.53,3.393C291.876,456.649,290.993,459.4,294.121,461.517Z" transform="translate(-59.859 -107.31)" fill="#3f3d56"/>
      <path id="Path_834" data-name="Path 834" d="M353.07,336.65s12.529,7.952,9.057,9.64S353.07,336.65,353.07,336.65Z" transform="translate(-66.959 -96.355)" opacity="0.1"/>
      <path id="Path_835" data-name="Path 835" d="M347.18,353.89s10.789,10.241,6.742,10.515S347.18,353.89,347.18,353.89Z" transform="translate(-66.273 -98.362)" opacity="0.1"/>
      <path id="Path_836" data-name="Path 836" d="M334.09,390.75s5.478,10.3,3.411,12.088S334.09,390.75,334.09,390.75Z" transform="translate(-64.749 -102.653)" opacity="0.1"/>
      <path id="Path_837" data-name="Path 837" d="M402.343,401.639c-1.926,1.926,18.317-6.362,13.687-6.751S402.343,401.639,402.343,401.639Z" transform="translate(-72.679 -103.133)" opacity="0.1"/>
      <path id="Path_838" data-name="Path 838" d="M448.17,235.485l.645-.1c2.395-.362,11.089-1.723,18.882-3.419,1.9-.415,3.738-.839,5.425-1.29,5.973-1.564,9.976-3.252,7.431-4.63-3.384-1.838-5.169-5.169-6.106-8.041-.088-.283-.177-.557-.247-.822a21.124,21.124,0,0,1-.786-4.418s-21.772-7.714-17.53,0c2.076,3.773.68,6.866-1.29,9.03a16.859,16.859,0,0,1-4.692,3.534Z" transform="translate(-78.029 -81.535)" fill="#be6f72"/>
      <path id="Path_839" data-name="Path 839" d="M468.3,232.17s-7.784,5.593-15.746.963S434.227,274,434.227,274l-10.8,26.6s-6.989,5.779,1.705,8.288,28.01-2.509,32.9,4.816,14.182,8.447,15.065,8.447,4.621-27.568,4.621-27.568l.954-39.894Z" transform="translate(-74.84 -84.193)" opacity="0.1"/>
      <path id="Path_840" data-name="Path 840" d="M425.535,307.135c8.7,2.509,28-2.5,32.9,4.816a18.838,18.838,0,0,0,8.288,6.68,21.683,21.683,0,0,0,6.839,1.767c.124,0,.309-.5.521-1.378,1.352-5.575,4.1-26.181,4.1-26.181l.954-39.815-9.163-19.845-1.246-2.748a16.674,16.674,0,0,1-3.967,1.926,13.978,13.978,0,0,1-11.787-.963c-2.333-1.361-4.877,1.6-7.307,6.45-5.858,11.7-11.054,34.407-11.054,34.407l-10.789,26.6a9.275,9.275,0,0,0-.733.707C421.559,301.161,418.687,305.155,425.535,307.135Z" transform="translate(-74.886 -83.99)" fill="#f3f5f9"/>
      <path id="Path_841" data-name="Path 841" d="M472.623,307.066a50.233,50.233,0,0,0-.256,10.152,119.065,119.065,0,0,0,1.767,14.332,5.308,5.308,0,0,0,.239.884c4.7-2.059,8.438-3.534,8.438-3.534l-3.128-11.213c1.352-5.575,4.1-26.181,4.1-26.181l1.016-39.894-9.163-19.845c5.973-1.564,9.976-3.252,7.431-4.63-3.711-2.015-5.5-5.832-6.353-8.836a32.763,32.763,0,0,1-5.478,5.894l-.124.1-.689,6.724-.212,2.068-.451,4.294s2.121,50.683,3.667,53.581.769,8.474-.583,15.021C472.773,306.288,472.7,306.668,472.623,307.066Z" transform="translate(-80.543 -82.578)" opacity="0.1"/>
      <path id="Path_842" data-name="Path 842" d="M473.735,303.532c-1.352,6.547-.194,17.345,1.343,25.624s17.928,2.889,21.012,0,12.141-4.241,12.141-4.241.389-37.774,3.278-42.6c1.37-2.28,1.705-9.719,1.67-16.947,0-6.468-.345-12.733-.468-14.862v-.76S525.24,228.542,525.081,227s-3.852-1.767-3.852-1.767-13.881-10.8-16.2-9.446-8.668-2.121-8.668-2.121-8.058.884-9.72-.636a.884.884,0,0,1-.292-.716c.186-2.465-8.217-7.731-8.474-7.9,7.069,6.38-4.418,16.2-5.673,17.265l-.124.106-1.343,13.077s2.121,50.692,3.658,53.581S475.078,296.976,473.735,303.532Z" transform="translate(-80.657 -80.962)" fill="#6adaf7"/>
      <circle id="Ellipse_1945" data-name="Ellipse 1945" cx="0.963" cy="0.963" r="0.963" transform="translate(392.858 166.541)" fill="#444053"/>
      <path id="Path_843" data-name="Path 843" d="M472.74,222.615l5.849,5.664,8.589-14.323a.884.884,0,0,1-.3-.707c.194-2.474-8.209-7.74-8.474-7.9C485.49,211.721,474.039,221.537,472.74,222.615Z" transform="translate(-80.889 -81.071)" opacity="0.1"/>
      <circle id="Ellipse_1946" data-name="Ellipse 1946" cx="0.963" cy="0.963" r="0.963" transform="translate(394.784 197.379)" opacity="0.1"/>
      <circle id="Ellipse_1947" data-name="Ellipse 1947" cx="0.963" cy="0.963" r="0.963" transform="translate(394.784 196.99)" fill="#444053"/>
      <path id="Path_844" data-name="Path 844" d="M472.3,221.725l5.858,5.673,8.58-14.323a.884.884,0,0,1-.292-.716c.186-2.465-8.217-7.731-8.474-7.9C485.05,210.848,473.6,220.665,472.3,221.725Z" transform="translate(-80.838 -80.967)" fill="#6adaf7"/>
      <rect id="Rectangle_141" data-name="Rectangle 141" width="13.413" height="28.346" rx="1.7" transform="translate(398.804 195.018) rotate(-178.69)" fill="#3f3d56"/>
      <rect id="Rectangle_142" data-name="Rectangle 142" width="13.413" height="28.346" rx="1.7" transform="translate(398.804 195.018) rotate(-178.69)" opacity="0.1"/>
      <rect id="Rectangle_143" data-name="Rectangle 143" width="13.413" height="28.346" rx="1.7" transform="translate(398.88 195.644) rotate(-178.69)" fill="#3f3d56"/>
      <circle id="Ellipse_1948" data-name="Ellipse 1948" cx="2.112" cy="2.112" r="2.112" transform="translate(390.728 173.354)" fill="#67647e"/>
      <path id="Path_845" data-name="Path 845" d="M391.68,303.459c4.816,2.121,36.422-3.464,41.052-4.816s11.372-11.761,8.094-19.271,1.158-14.844,1.158-14.844,6.936-14.836,8.474-17.734a135.586,135.586,0,0,0,5.2-12.715,1.131,1.131,0,0,0-.274-.884c-1.246-1.909-6.079-5.3-6.079-5.3-1.361.495-1.537-3.4-1.484-6.274,0-1.6.133-2.88.133-2.88s-.645.654-1.688,1.537c-.38.318-.813.68-1.3,1.043a19.934,19.934,0,0,1-6.07,3.322c-4.63,1.361-11.177,7.687-11.177,7.687l1.926,29.591s-4.418,27.842-9.066,33.232-18.5,5.2-23.124,5.2S391.68,303.459,391.68,303.459Z" transform="translate(-71.453 -82.629)" opacity="0.1"/>
      <path id="Path_846" data-name="Path 846" d="M391.24,302.149c4.816,2.121,36.43-3.464,41.052-4.816s11.372-11.752,8.094-19.271,1.158-14.844,1.158-14.844,6.936-14.836,8.482-17.725a137.092,137.092,0,0,0,5.2-12.724,1.166,1.166,0,0,0-.274-.884c-1.255-1.909-6.088-5.3-6.088-5.3-1.361.495-1.529-3.4-1.476-6.265,0-1.608.124-2.889.124-2.889s-.636.654-1.679,1.537c-.389.327-.822.68-1.3,1.043a19.986,19.986,0,0,1-6.079,3.322c-4.621,1.37-11.177,7.687-11.177,7.687l1.926,29.6s-4.418,27.833-9.057,33.232-18.5,5.2-23.132,5.2S391.24,302.149,391.24,302.149Z" transform="translate(-71.402 -82.477)" fill="#6adaf7"/>
      <path id="Path_847" data-name="Path 847" d="M450.57,218.33s.177,1.016.486,2.571c1.034,5.3,3.534,16.85,5.3,16.408,1.281-.327,3.446-2.589,5.125-4.55-1.255-1.909-6.088-5.3-6.088-5.3-1.361.495-1.529-3.4-1.476-6.265l-1.555-1.343Z" transform="translate(-78.309 -82.582)" opacity="0.1"/>
      <path id="Path_848" data-name="Path 848" d="M451,217.45s.177,1.016.486,2.58c1.034,5.3,3.534,16.85,5.3,16.4,1.281-.318,3.446-2.58,5.125-4.542-1.255-1.909-6.088-5.3-6.088-5.3-1.361.495-1.529-3.4-1.476-6.265l-1.582-1.334Z" transform="translate(-78.359 -82.479)" fill="#6adaf7"/>
      <path id="Path_849" data-name="Path 849" d="M435.93,280.152s9.631-1.926,12.37-6.185,21.047-7.908,18.812-3.473-18.856,18.953-18.856,18.953l-7.184,10.285-9.6-2.43-4.038-7.855Z" transform="translate(-75.615 -88.419)" fill="#be6f72"/>
      <path id="Path_850" data-name="Path 850" d="M461.421,294.13s-9.331,3.473-10.736,8.094S461.421,294.13,461.421,294.13Z" transform="translate(-78.309 -91.405)" opacity="0.1"/>
      <path id="Path_851" data-name="Path 851" d="M467.9,300.23s.884,4.816-10.851,4.418Z" transform="translate(-79.063 -92.116)" opacity="0.1"/>
      <path id="Path_852" data-name="Path 852" d="M524.678,230.379l4.241-.389s4.621,3.473,8.094,3.473,5.584,4.418,5.584,4.418,5.787,2.7,7.714,3.084,5.2,2.315,4.241,3.084.186,2.509,1.926,3.861,4.418,8.288,2.121,9.251-8.677,2.889-10.409,3.852a4.78,4.78,0,0,1-3.853,0s-10.214-13.3-15.419-10.8-12.37,2.509-12.37,2.509L511,240.973Z" transform="translate(-85.343 -83.939)" opacity="0.1"/>
      <path id="Path_853" data-name="Path 853" d="M425.773,294.125a5.169,5.169,0,0,0,3.587,2.5,27.233,27.233,0,0,0,11.23-1.043s-19.439-6.185-.725-21.206h-5.01l-1.67-.636.769-3.994,1.1-36-4.073-.919s-3.26,23.707-4.038,26.6-1.361,14.067-1.361,14.067a32.367,32.367,0,0,1-1.926,6.936C422.8,282.17,423.025,290.007,425.773,294.125Z" transform="translate(-75.124 -84.27)" fill="#6adaf7"/>
      <path id="Path_854" data-name="Path 854" d="M427,299.514a5.187,5.187,0,0,0,3.6,2.5,27.206,27.206,0,0,0,11.222-1.043s-19.439-6.185-.716-21.206h-5.019l-1.67-.636C431.656,284.034,427.336,292.684,427,299.514Z" transform="translate(-75.565 -89.659)" opacity="0.1"/>
      <path id="Path_855" data-name="Path 855" d="M426.11,299.514a5.169,5.169,0,0,0,3.587,2.5,27.233,27.233,0,0,0,11.23-1.043s-19.439-6.185-.725-21.206h-5.01l-1.67-.636C430.784,284.034,426.463,292.684,426.11,299.514Z" transform="translate(-75.461 -89.659)" fill="none"/>
      <path id="Path_856" data-name="Path 856" d="M426.11,299.514a5.169,5.169,0,0,0,3.587,2.5,27.233,27.233,0,0,0,11.23-1.043s-19.439-6.185-.725-21.206h-5.01l-1.67-.636C430.784,284.034,426.463,292.684,426.11,299.514Z" transform="translate(-75.461 -89.659)" fill="#6adaf7"/>
      <path id="Path_857" data-name="Path 857" d="M455.44,221.781a17.566,17.566,0,0,0,19.854-3.773c-.088-.283-.177-.557-.247-.822a21.124,21.124,0,0,1-.786-4.418s-21.772-7.714-17.53,0C458.806,216.524,457.41,219.643,455.44,221.781Z" transform="translate(-78.876 -81.535)" opacity="0.1"/>
      <path id="Path_858" data-name="Path 858" d="M443.81,202.164v.168a9.733,9.733,0,0,0,.1,1.688,15.919,15.919,0,0,0,.239,1.582,17.539,17.539,0,0,0,33.789,2.262c.115-.336.23-.68.318-1.025a17.4,17.4,0,0,0,.636-4.674,11,11,0,0,0-.044-1.211,17.539,17.539,0,0,0-35.034,1.211Z" transform="translate(-77.522 -78.662)" fill="#be6f72"/>
      <path id="Path_859" data-name="Path 859" d="M443.81,202.329a7.578,7.578,0,0,1,.1,1.688,7.9,7.9,0,0,0,.044.884,2.582,2.582,0,0,0,.194.663c.707,1.661,3.022,2.739,4.542,1.67a4.869,4.869,0,0,0,1.37-1.767c1.626-3.013,3.879-6.477,7.422-6.539a18.214,18.214,0,0,1,4.418.99c1.484.38,3.2.415,4.294-.583.831-.76,1.228-2.068,2.359-2.342s2.156.769,2.651,1.767.928,2.2,1.97,2.721c.468.23,1.007.292,1.467.539,2.094,1.149,1.131,5.169,3.3,5.823a1.854,1.854,0,0,0,.212.053l.106-1.078c.194-1.962.4-3.914.592-5.885a17.539,17.539,0,0,0-35.034,1.211Z" transform="translate(-77.522 -78.66)" opacity="0.1"/>
      <path id="Path_860" data-name="Path 860" d="M474,174.144c2.059.884,4.206,2.218,4.665,4.321a16.788,16.788,0,0,1,.1,2.827c.1,1.9,1.007,3.658,1.582,5.478s.786,3.941-.371,5.487c-.362.486-.839.884-1.166,1.4a5.637,5.637,0,0,0-.672,2.554l-.954,9.481c-2.448-.451-1.361-4.692-3.534-5.876-.451-.247-.99-.309-1.458-.539-1.043-.521-1.449-1.714-1.97-2.721s-1.529-2.041-2.651-1.767-1.52,1.573-2.35,2.342c-1.1.99-2.836.945-4.294.574a17.294,17.294,0,0,0-4.418-.99c-3.534.062-5.805,3.534-7.422,6.539a4.8,4.8,0,0,1-1.37,1.767c-1.714,1.211-4.418-.309-4.736-2.333-.159-1.131.186-2.395-.459-3.349s-2.068-1.166-3.172-1.679c-2.819-1.3-3.693-4.816-3.225-7.767.336-2.121,1.184-4.312.495-6.353-.239-.707-.654-1.352-.884-2.059a5.563,5.563,0,0,1,1.979-5.584,16.179,16.179,0,0,1,5.726-2.872c5.257-1.767,10.771-3.464,16.364-3.826,2.448-.159,5.664-.928,7.608.6C469.719,171.635,471.15,172.934,474,174.144Z" transform="translate(-76.56 -76.823)" fill="#3f3d56"/>
      <circle id="Ellipse_1949" data-name="Ellipse 1949" cx="0.963" cy="0.963" r="0.963" transform="translate(391.895 151.308)" opacity="0.1"/>
      <circle id="Ellipse_1950" data-name="Ellipse 1950" cx="0.963" cy="0.963" r="0.963" transform="translate(391.895 150.928)" fill="#444053"/>
      <circle id="Ellipse_1951" data-name="Ellipse 1951" cx="0.963" cy="0.963" r="0.963" transform="translate(398.062 211.826)" opacity="0.1"/>
      <circle id="Ellipse_1952" data-name="Ellipse 1952" cx="0.963" cy="0.963" r="0.963" transform="translate(398.062 211.446)" fill="#444053"/>
      <circle id="Ellipse_1953" data-name="Ellipse 1953" cx="0.963" cy="0.963" r="0.963" transform="translate(394.784 227.827)" opacity="0.1"/>
      <circle id="Ellipse_1954" data-name="Ellipse 1954" cx="0.963" cy="0.963" r="0.963" transform="translate(394.784 227.439)" fill="#444053"/>
      <path id="Path_861" data-name="Path 861" d="M439.536,254.27s-2.121,14.394,0,16.9S439.536,254.27,439.536,254.27Z" transform="translate(-76.914 -86.765)" opacity="0.1"/>
      <path id="Path_862" data-name="Path 862" d="M510.266,284.52s4.047,8.721,0,17.08-6.556,11.761-5.2,17.1S510.266,284.52,510.266,284.52Z" transform="translate(-84.609 -90.287)" opacity="0.1"/>
      <path id="Path_863" data-name="Path 863" d="M294.12,464.1c5.973,4.047,15.021,2.121,15.021,2.121s13.678-6.556,17.725-6.556,13.9-4.02,13.9-4.02l-.336-2.73c-3.994.769-13.068,2.607-14.137,3.534-1.352,1.158-17.928,6.751-17.928,6.751s-11.283-1.414-14.429-6.053C291.876,459.228,290.992,461.976,294.12,464.1Z" transform="translate(-59.858 -109.889)" opacity="0.1"/>
      <g id="Group_173" data-name="Group 173" transform="translate(359.01 102.296)" opacity="0.1">
        <path id="Path_864" data-name="Path 864" d="M484.46,181.1v.1a.361.361,0,0,0,0-.1Z" transform="translate(-441.263 -180.47)"/>
        <path id="Path_865" data-name="Path 865" d="M439.419,198.76c1.1.5,2.5.689,3.172,1.67s.3,2.218.459,3.349c.3,2.023,3.022,3.534,4.736,2.342a4.824,4.824,0,0,0,1.37-1.767c1.617-3,3.879-6.468,7.422-6.53A18.617,18.617,0,0,1,461,198.8c1.484.371,3.2.424,4.294-.574.831-.76,1.228-2.068,2.35-2.342s2.165.76,2.651,1.767.928,2.191,1.97,2.713c.468.23,1.007.3,1.458.548,2.165,1.184,1.078,5.416,3.534,5.876l.954-9.49a5.665,5.665,0,0,1,.672-2.554c.327-.5.8-.884,1.166-1.387a4.241,4.241,0,0,0,.786-2.041,4.886,4.886,0,0,1-.786,3.579c-.362.486-.839.884-1.166,1.4a5.639,5.639,0,0,0-.672,2.554l-.954,9.481c-2.448-.451-1.361-4.692-3.534-5.876-.451-.247-.99-.309-1.458-.539-1.043-.521-1.449-1.714-1.97-2.721s-1.529-2.041-2.651-1.767-1.52,1.573-2.35,2.342c-1.1.99-2.836.945-4.294.574a17.3,17.3,0,0,0-4.418-.99c-3.534.062-5.805,3.534-7.422,6.539a4.8,4.8,0,0,1-1.37,1.767c-1.714,1.211-4.418-.309-4.736-2.333-.159-1.131.186-2.395-.459-3.349s-2.068-1.166-3.172-1.679c-2.58-1.184-3.534-4.232-3.313-7A6.308,6.308,0,0,0,439.419,198.76Z" transform="translate(-435.631 -181.733)"/>
        <path id="Path_866" data-name="Path 866" d="M435.756,181.358c.221.707.636,1.352.884,2.059a6.185,6.185,0,0,1,.221,2.536,5.514,5.514,0,0,0-.221-.99c-.239-.707-.654-1.352-.884-2.059a4.33,4.33,0,0,1-.115-2.015C435.676,181.049,435.712,181.2,435.756,181.358Z" transform="translate(-435.572 -180.519)"/>
      </g>
      <path id="Path_867" data-name="Path 867" d="M496.734,275.87c4.418-.972,14.835-4.047,14.835-4.047l1.864-.371c0-6.468-.345-12.733-.468-14.862h0s-8.836,2.889-10.983,4.418-8.677,1.158-8.677,1.158-10.214.574-18.7,10.02S492.3,276.842,496.734,275.87Z" transform="translate(-80.911 -87.035)" opacity="0.1"/>
      <path id="Path_868" data-name="Path 868" d="M540.042,258.234a2.571,2.571,0,0,1,.583,4.321c-2.35,1.944-5.779,4.268-9.048,4.6-5.461.548-18.555,3.181-19.907,3.446a.889.889,0,0,0-.2.053c-1.087.318-10.6,3.093-14.738,4-4.418.972-30.652,5.8-22.169-3.649A29.962,29.962,0,0,1,493.114,261h.336c.99.053,6.592.239,8.527-1.158a18,18,0,0,1,3.181-1.59,61.426,61.426,0,0,1,13.033-3.755l9.066-1.582a2.589,2.589,0,0,1,1.529.194Z" transform="translate(-80.906 -86.603)" fill="#be6f72"/>
      <path id="Path_869" data-name="Path 869" d="M525.542,230.379l4.241-.389s4.621,3.473,8.094,3.473,5.593,4.418,5.593,4.418,5.779,2.7,7.7,3.084,5.2,2.315,4.241,3.084.194,2.509,1.926,3.861,4.418,8.288,2.121,9.251-8.677,2.881-10.373,3.861a4.78,4.78,0,0,1-3.852,0s-10.285-13.3-15.454-10.8-12.37,2.509-12.37,2.509l-5.593-11.761Z" transform="translate(-85.439 -83.939)" fill="#6adaf7"/>
      <path id="Path_906" data-name="Path 906" d="M1066.619,753.151,1042.17,717.7s-.451-8.774-2.05-10.824-.345-6.618-.345-6.618,1.714-2.5.23-2.73-.23-5.814-.23-5.814l-.115-8.889s1.37-8.553.23-10.6a3.349,3.349,0,0,1,.115-3.649s1.37-4.9,0-6.185-1.034-8.889-.689-14.933-2.4-9.463-2.4-10.373-9.021-9.8-9.021-10.6-5.717-4.1-9.145-5.01-5.134-1.6-5.019-2.05-5.372-2.28-5.372-2.28-4.8-.345-6.627-2.739-7.422-3.084-7.581-3.11l-.106-.477a3.489,3.489,0,0,0-.1-.513c.424-.725.831-1.467,1.193-2.236.106-.23.212-.459.309-.7a9.719,9.719,0,0,0,5.629-1.767,7.678,7.678,0,0,0,2.739-5.469,11.956,11.956,0,0,0-1.343-6.07c-1-2.05-2.474-4.179-1.962-6.406.221-.963.8-1.767,1.087-2.748a7.2,7.2,0,0,0-.813-5.4c-.884-1.652-2.077-3.11-3.04-4.71a18.749,18.749,0,0,1-2.412-6.671,10.163,10.163,0,0,0-.884-3.631,6.706,6.706,0,0,0-2-2.023,20.067,20.067,0,0,0-12.282-3.72c-3.11.106-6.185.945-9.3.565a34.306,34.306,0,0,1-5.425-1.423c-3.835-1.131-8.253-1.6-11.593.592s-4.665,6.512-6.927,9.887c-2,2.978-4.922,5.478-6.45,8.642l.053-.186a10.444,10.444,0,0,0-.884,2.306,16.434,16.434,0,0,0,.5,7.564,5.276,5.276,0,0,0,1.847,3.375c1.113.724,2.651.548,3.994.778-.053.221-.106.433-.15.654a25.577,25.577,0,0,0-.574,5.425,26.119,26.119,0,0,0,18.688,25.014v.7a17.278,17.278,0,0,1-.124,1.953h0s-11.487-2.359-14.57-.76-9.145,2.845-10.055,3.755-3.2.23-5.257,5.584-2.289,10.833-4.913,13.342-4,4.215-4.117,6.035.345,2.28-.68,2.854-2.518,2.96-2.059,3.87a3.241,3.241,0,0,1-1.255,3.419,3.808,3.808,0,0,0-1.6,3.419s-.689,2.509-2.289,3.084-2.651,4.33-2.651,4.33l-5.187,5.955-10.205-11.3a4.321,4.321,0,0,0-6.106-.318l-5.045,4.533a10.055,10.055,0,0,0-5.045,3,13.254,13.254,0,0,0-2.651,3.9l-2.766,2.483a7.007,7.007,0,0,0-.707,7.74l6.583,7.281v.062a11.611,11.611,0,0,0-6.362,2.589c-9.817,8.659-9.94,16.647-8.447,20.323s13.934,17.672,13.934,17.672,7.237,9.4,17.672,14.4h0l-.08.08q-.309.336-.61.716l-.168.212-.159.221-.186.274-.15.23c-.062.106-.133.212-.194.327l-.124.212-.239.442a1.147,1.147,0,0,1-.071.15c-.1.2-.194.406-.283.618l-.1.239-.177.451a1.258,1.258,0,0,1-.1.292c-.026.1-.106.292-.15.451s-.071.212-.1.318-.1.327-.141.5l-.08.309c-.062.265-.124.53-.177.813l-.053.327-.106.583-.053.415c0,.186-.053.371-.071.565a1.98,1.98,0,0,1-.044.433l-.053.654v1.5c-.23,13.333.548,15.277.548,15.277s1.617,4.241,6.061,4.551a7.953,7.953,0,0,0,1.961-.106c5.938-1.025,19.872-3.419,24.741-2.509,2.96.548,8.421-.265,12.317-1l1.025-.194.716,2.262,2.262-.618c.725.424,1.378.8,1.917,1.1l1.211.7c2.253,7.652,11.407,5.036,11.407,5.036l2.174,1.255,22.09.574a45,45,0,0,0,7.8,3.746,6.863,6.863,0,0,0,1.113.239,49.013,49.013,0,0,0,6.141.115c1.688,0,3-.115,3-.115s-.221-5.982-.539-12.688a180.888,180.888,0,0,0,20.42-1.67c11.769-2.068,16.691-12.777,18.494-18.5a52.911,52.911,0,0,1,1.158,7.069,52.2,52.2,0,0,0,1.829,6.185,20.949,20.949,0,0,0,2.509,4.559c8.686-2.969,3.428-7.413,1.608-9.348s1.255-3.534,1.255-3.534,2.395-1.6,2.165-3.075-.336-3.084,7.431-2.969S1066.619,753.151,1066.619,753.151Zm-120.637-72.79c.1.654,1.175,7.67,2.156,9.525a12.31,12.31,0,0,1,.256,3.746c-4.595-.362-9.393-.557-9.393-.557a1.167,1.167,0,0,1,.247.583l-.725-.159-1.051-.265,8.482-12.892Zm-16.788,26.729,7.952,1.264.672.106a25.354,25.354,0,0,0-.415,3.764c0,.115.177.265.433.424a10.306,10.306,0,0,0-.15,1.882c.124.636,3.852,2,8.12,3.128-.053.23-.115.451-.177.654h0c-3.773-1.988-9.719-2.916-10.4-4.418s-20.906-8.536-20.906-8.536-.742-.4-2.015-1.007l5.3,1.007,1.458-.15a79.422,79.422,0,0,0,10.108,1.882Z" transform="translate(-209.436 -121.999)" fill="url(#linear-gradient-3)"/>
      <path id="Path_907" data-name="Path 907" d="M1044.427,778.958s-3.172,19.139-19.245,21.966-69.76,2.244-69.76,2.244-30.687-4.418-41.776-30.343-18.237-36.227-8.721-36.687,60.809,17.318,63.751,17.548S1047.263,714.3,1044.427,778.958Z" transform="translate(-213.248 -142.858)" fill="#65617d"/>
      <path id="Path_908" data-name="Path 908" d="M1044.427,778.958s-3.172,19.139-19.245,21.966-69.76,2.244-69.76,2.244-30.687-4.418-41.776-30.343-18.237-36.227-8.721-36.687,60.809,17.318,63.751,17.548S1047.263,714.3,1044.427,778.958Z" transform="translate(-213.248 -142.858)" opacity="0.05"/>
      <path id="Path_909" data-name="Path 909" d="M900.415,804.867s1.6,4.224,6.008,4.524a7.753,7.753,0,0,0,1.935-.106c5.885-1.016,19.7-3.4,24.573-2.492,2.925.548,8.341-.256,12.2-.99,2.562-.486,4.418-.937,4.418-.937s-4.533-15.021-5.1-15.516-20.384-12.37-20.384-12.37l-15.693-1.131h0a8.261,8.261,0,0,0-5.3,3.119c-1.661,2.006-3.075,5.3-3.172,10.692C899.638,802.941,900.415,804.867,900.415,804.867Z" transform="translate(-213.173 -147.482)" fill="#3f3d56"/>
      <path id="Path_910" data-name="Path 910" d="M900.421,804.876s1.6,4.224,6.008,4.524a66.266,66.266,0,0,1-4.268-6.185l.088-10.983a19.342,19.342,0,0,1,6.185-16.3h0s-8.262.557-8.491,13.811S900.421,804.876,900.421,804.876Z" transform="translate(-213.179 -147.491)" opacity="0.05"/>
      <path id="Path_911" data-name="Path 911" d="M976.323,776.993l14.606-11.434,22.973-22.646s-2.483-.124-6.229-.283c-.937.592-3.534,2.465-3.64,4.736-.115,2.766-6.185.186-9.384,1.767s-18.679,21.436-21.4,21.3-4.869-1.378-6,.548l-.088.124Z" transform="translate(-221.009 -143.615)" opacity="0.1"/>
      <path id="Path_912" data-name="Path 912" d="M903.46,779c.521.256,1.043.495,1.582.725,11.1,4.754,24.8,14.721,25.818,16.532.619,1.1,8.562,5.929,14.694,9.543,2.562-.486,4.418-.937,4.418-.937s-4.533-15.021-5.1-15.516-20.384-12.37-20.384-12.37L908.8,775.85h0A8.262,8.262,0,0,0,903.46,779Z" transform="translate(-213.594 -147.482)" opacity="0.1"/>
      <path id="Path_913" data-name="Path 913" d="M868.509,739.675c1.476,3.623,13.811,17.557,13.811,17.557s7.82,10.188,18.918,14.941,24.794,14.721,25.81,16.532c.663,1.166,9.5,6.494,15.737,10.153l1.4.813c1.219.716,2.28,1.334,3.093,1.767l1.635.945s3.791-3.049,7.564-6.106,7.44-6.07,7.493-6.238c.115-.336,1.59-4.188,1.246-4.418-.177-.115-.954-1.679-2.386-3.534a15.958,15.958,0,0,0-5.77-4.763,16.419,16.419,0,0,1-7.466-7.793s-.5-.362-1.246-.839a15.1,15.1,0,0,0-5.1-2.271c-2.492-.309-7.131-5.408-7.131-5.408a13.9,13.9,0,0,1-4.418-4.639c-1.246-2.607-18.75-14.544-20.376-15.657l42.571,27.338,10.188,6.547,14.606-11.434,22.973-22.646s-3.093-.15-7.59-.345c-11.169-.486-31.014-1.237-33.515-.68a19.123,19.123,0,0,1-6.185.415s-5.655.247-9.393-1.723-9.631-2.9-10.312-4.356-20.738-8.429-20.738-8.429-27.294-14.491-37.031-5.885S867.034,736.052,868.509,739.675Z" transform="translate(-209.445 -140.607)" fill="#65617d"/>
      <path id="Path_914" data-name="Path 914" d="M968.18,644.212l3.534,11.663,4.524,26.269,16.647,1.131,4.824-7.952,4.807-7.952s3-10.6,5.142-20.879c1.909-9.092,3.154-17.91,1.078-18.865-1.838-.884-3.04-3.905-3.826-7.2-.1-.406-.194-.822-.274-1.228a63.483,63.483,0,0,1-1.1-8.447s-34.875-1.811-30.042,12.573a22.778,22.778,0,0,1,1.308,7.643,17.313,17.313,0,0,1-.115,1.953,16.329,16.329,0,0,1-6.5,11.292Z" transform="translate(-221.127 -128.254)" fill="#ee8e9e"/>
      <path id="Path_915" data-name="Path 915" d="M960,645.21l1.246,19.81,2.836,16.877,3.172,7.811,2.827,42.748s27.3,3.163,33.939-.053a2.881,2.881,0,0,0,1.2-.937c8.023-12.114,5.4-47.193,5.4-47.193l3.057-22.646-2.041-11.752-4.931-.521-3.79-.406s-.884,1.051-2.085,2.651c-3.358,4.418-9.534,13.148-9.119,16.788.565,4.984-.68,10.082-2.651,10.868s-3.534,2.156-3.852.8-.68-1.7-.336-3.623-1.458-7.758-1.458-7.758-3.057-6.91-2.828-9.852-.345-6.344-1.246-7.139-2.156-1.582-1.131-5.2S973.74,635.8,973.74,635.8Z" transform="translate(-220.175 -131.179)" fill="#e3e8f4"/>
      <path id="Path_916" data-name="Path 916" d="M1000.784,693.024l1.131,33.859,6.539,3.623a2.81,2.81,0,0,0,1.2-.937c8.023-12.114,5.4-47.193,5.4-47.193l3.057-22.646-2.041-11.752-4.93-.521c1.908-9.092,3.154-17.9,1.078-18.865-1.838-.884-3.048-3.905-3.826-7.192h0l-3.534,23.954s.3,2.156.406,4.418a12.635,12.635,0,0,1-.292,4.224c-.8,2.032-.221,5.655-.221,5.655-2.05,3.605-3.066,10.267-3.534,16.7C1000.528,684.868,1000.784,693.024,1000.784,693.024Z" transform="translate(-224.918 -129.502)" opacity="0.1"/>
      <path id="Path_917" data-name="Path 917" d="M1008.586,620.78s5.708.716,7.519,3.093,6.565,2.713,6.565,2.713,5.434,1.767,5.3,2.271,1.59,1.131,4.983,2.032,9.057,4.2,9.057,4.983,8.951,9.631,8.951,10.532,2.713,4.3,2.377,10.3-.68,13.59.68,14.836,0,6.114,0,6.114a3.349,3.349,0,0,0-.115,3.623c1.131,2.041-.23,10.532-.23,10.532l.115,8.836s-1.246,5.549.23,5.77-.23,2.721-.23,2.721-1.246,4.524.345,6.565,2.032,10.762,2.032,10.762l24.237,35.211s.336,6.459-7.36,6.344-7.59,1.467-7.36,2.942-2.156,3.057-2.156,3.057-3.057,1.582-1.246,3.534,7.069,6.344-1.582,9.287a20.624,20.624,0,0,1-2.492-4.524,51.684,51.684,0,0,1-1.767-6.123s-.8-8.6-2.377-9.72-1.361-6.565-1.361-6.565,2.262-4.418-.884-6.229-49.136-27.285-49.136-27.285l-1.14-33.859s-.786-25.023,3.967-33.409c0,0-.566-3.623.23-5.655s-.115-8.606-.115-8.606Z" transform="translate(-225.006 -129.43)" fill="#21455c"/>
      <path id="Path_918" data-name="Path 918" d="M970.481,635.988s-11.381-2.342-14.438-.76-9.057,2.827-9.967,3.738-3.172.221-5.2,5.549S938.6,655.268,936,657.768s-3.967,4.188-4.082,6,.345,2.271-.68,2.836-2.492,2.942-2.032,3.852,23.548,20.835,23.548,20.835,1.131,7.581,2.156,9.507-1.131,28.425-3.4,30.236,15.286,1.643,15.286,1.643.8-17.389,1.476-18.29-.451-19.439-.451-19.439-.115-15.852,1.352-20.049,1.308-18.114,1.308-18.114,1.308-8.359,2.889-10.3S970.481,635.988,970.481,635.988Z" transform="translate(-216.581 -131.048)" opacity="0.1"/>
      <path id="Path_919" data-name="Path 919" d="M970.1,635.607s-11.39-2.35-14.447-.76-9.057,2.828-9.958,3.729-3.172.23-5.213,5.549-2.262,10.762-4.869,13.254-3.958,4.188-4.073,6,.336,2.262-.68,2.828-2.492,2.951-2.041,3.852,23.557,20.835,23.557,20.835,1.131,7.59,2.147,9.516-1.131,28.416-3.393,30.228,15.286,1.643,15.286,1.643.8-17.38,1.467-18.29-.451-19.439-.451-19.439-.115-15.852,1.361-20.04,1.308-18.122,1.308-18.122,1.3-8.359,2.88-10.3S970.1,635.607,970.1,635.607Z" transform="translate(-216.536 -131.004)" fill="#21455c"/>
      <path id="Path_920" data-name="Path 920" d="M974.138,623.254a22.779,22.779,0,0,1,1.308,7.643,25.662,25.662,0,0,0,7.413,1.078,25.934,25.934,0,0,0,22.391-12.848,63.492,63.492,0,0,1-1.1-8.447S969.27,608.869,974.138,623.254Z" transform="translate(-221.767 -128.246)" opacity="0.1"/>
      <path id="Path_921" data-name="Path 921" d="M954.72,601.252a25.933,25.933,0,1,0,.565-5.39,25.933,25.933,0,0,0-.565,5.39Z" transform="translate(-219.561 -124.137)" fill="#ee8e9e"/>
      <path id="Path_922" data-name="Path 922" d="M932.887,672.59l-6.185,1.926a3.243,3.243,0,0,1-1.246,3.4,3.773,3.773,0,0,0-1.582,3.393s-.68,2.492-2.271,3.057-2.6,4.3-2.6,4.3l-5.213,6s-1.926,1.59-1.582,2.377-2.041,1.025-2.041,1.025l1.246,20.155,10.762,2.032,6.68-.672,5.434-2.041,4.754-2.828,2.156-5.549,9.463-14.5Z" transform="translate(-214.375 -135.461)" fill="#21455c"/>
      <path id="Path_923" data-name="Path 923" d="M908.262,701.592s-13.819-19.925-24.122-9.172,4.188,28.2,7.581,27.63,19.6-1.476,19.6-1.476Z" transform="translate(-210.921 -137.399)" fill="#ee8e9e"/>
      <rect id="Rectangle_144" data-name="Rectangle 144" width="72.304" height="56.143" rx="1.54" transform="translate(667.15 523.586) rotate(27.04)" fill="#3f3d56"/>
      <rect id="Rectangle_145" data-name="Rectangle 145" width="60.773" height="45.797" transform="translate(670.029 530.745) rotate(27.04)" fill="#6adaf7"/>
      <circle id="Ellipse_1955" data-name="Ellipse 1955" cx="0.998" cy="0.998" r="0.998" transform="translate(656.573 549.039)" fill="#e6e8ec"/>
      <circle id="Ellipse_1956" data-name="Ellipse 1956" cx="1.643" cy="1.643" r="1.643" transform="translate(714.519 578.419)" fill="#e6e8ec"/>
      <path id="Path_924" data-name="Path 924" d="M901.79,707.072c-.115,14.95,30.8,18.122,30.8,18.122l7.9,1.246,3.534.566,1.476-14.632s-1.617-.247-3.649-.716c-2.987-.7-6.866-1.9-7.678-3.587C932.813,705.225,901.9,692.1,901.79,707.072Z" transform="translate(-213.399 -138.656)" fill="#ee8e9e"/>
      <path id="Path_925" data-name="Path 925" d="M955.36,595.873a3.092,3.092,0,0,1,1.891.884c.884.928.884,2.571,2.068,3.146a2.269,2.269,0,0,0,1.352.15c3-.424,4.754-3.826,7.643-4.754a7.607,7.607,0,0,1,5.063.433,3.826,3.826,0,0,1,1.679,1.078c.963,1.255.292,3.093.733,4.6.627,2.1,3.137,2.942,5.3,3.216s4.621.433,6.07,2.068a5.514,5.514,0,0,1,1.087,4.418,3.373,3.373,0,0,0,0,1.626c.6,1.7,3.534,1.44,4.3.106.566-.981.389-1.767,1.714-2.059a5.584,5.584,0,0,1,2.774.477,20.366,20.366,0,0,0,7.166,1.1,25.933,25.933,0,1,0-48.836-16.426Z" transform="translate(-219.635 -124.148)" opacity="0.1"/>
      <path id="Path_926" data-name="Path 926" d="M987.4,610.154a3.534,3.534,0,0,1,0-1.626,5.469,5.469,0,0,0-1.078-4.418c-1.449-1.635-3.9-1.767-6.07-2.068s-4.683-1.1-5.3-3.207c-.442-1.52.23-3.366-.733-4.612a3.826,3.826,0,0,0-1.679-1.078,7.661,7.661,0,0,0-5.063-.433c-2.889.884-4.639,4.33-7.643,4.754a2.27,2.27,0,0,1-1.352-.15c-1.14-.574-1.193-2.218-2.068-3.146-1.37-1.458-3.976-.512-5.664-1.6a5.205,5.205,0,0,1-1.829-3.349,16.328,16.328,0,0,1-.5-7.51c.99-4.215,4.754-7.069,7.157-10.7,2.235-3.349,3.534-7.59,6.865-9.808s7.687-1.767,11.487-.592a34,34,0,0,0,5.381,1.414c3.066.371,6.185-.459,9.216-.565a19.8,19.8,0,0,1,12.176,3.7,6.723,6.723,0,0,1,1.988,2.006,10.6,10.6,0,0,1,.884,3.605,18.487,18.487,0,0,0,2.386,6.627c.954,1.59,2.147,3.04,3,4.683a7.14,7.14,0,0,1,.813,5.363,28.7,28.7,0,0,0-1.078,2.73c-.5,2.209.954,4.321,1.944,6.362a11.9,11.9,0,0,1,1.325,6.035,7.573,7.573,0,0,1-2.713,5.425,9.719,9.719,0,0,1-5.743,1.767,20.145,20.145,0,0,1-7.307-1.1,5.683,5.683,0,0,0-2.775-.477c-1.325.274-1.149,1.078-1.714,2.059C990.934,611.594,988,611.851,987.4,610.154Z" transform="translate(-218.797 -122.312)" fill="#3f3d56"/>
      <path id="Path_927" data-name="Path 927" d="M975.418,777.755l14.606-11.434L1013,743.674s-3.093-.15-7.59-.345a4.958,4.958,0,0,0-1.6,3.093c-.115,2.775-6.185.194-9.384,1.767s-18.661,21.454-21.383,21.357-4.869-1.378-6,.548l-.088.124a3.225,3.225,0,0,1-1.723,1.025Z" transform="translate(-220.784 -143.696)" opacity="0.1"/>
      <path id="Path_928" data-name="Path 928" d="M943.44,775.93l7.343,23.433,1.149,3.676,3.534-.954,7.714-2.112,34.319-9.428a29.864,29.864,0,0,0,12.37-3.3,37.429,37.429,0,0,1,21.33-4.656c4.533.433,9.578-1.529,13.766-9.26,0,0,9.507-28.081-14.5-36.121s-25.147,4.268-25.147,4.268l-.327.2c-.937.592-3.534,2.465-3.64,4.736-.115,2.766-6.185.186-9.384,1.767s-18.679,21.436-21.4,21.3-4.869-1.378-6,.548l-.088.124c-.839,1.157-3.358,1.431-5.028,1.476h-1.564l-.212.071-1.767.513Z" transform="translate(-218.248 -142.667)" fill="#65617d"/>
      <path id="Path_929" data-name="Path 929" d="M945.59,727.937l3.534.565,1.476-14.6s-1.617-.247-3.649-.716C947.49,715.222,946.279,723.1,945.59,727.937Z" transform="translate(-218.498 -140.188)" opacity="0.1"/>
      <path id="Path_930" data-name="Path 930" d="M1038.252,652.594s10.532-3.057,7.952,26.835-22.09,48.8-22.09,48.8-22.417,9.852-32.5,8.27-17.442-1.926-17.442-1.926a25.627,25.627,0,0,0-10.188-2.721c-5.664-.221-17.548-3.738-17.778-4.869s2.942-17.778,1.59-19.024c0,0,15.852.654,17.433,1.767s3.852.318,5.549,0,6.91-4.86,17.212-.884c0,0,3.534.336,4.869-.565s3.534-.23,3.534-.23a9.974,9.974,0,0,0,2.457-1.246c.345-.451,3.057,0,3.057,0a1.2,1.2,0,0,0,1.7-.786,7.478,7.478,0,0,1,1.59-2.492s3.057-17.212,8.836-23.671c0,0,1.7-1.467,1.237-3.278S1024.662,648.971,1038.252,652.594Z" transform="translate(-218.568 -133.093)" opacity="0.1"/>
      <path id="Path_931" data-name="Path 931" d="M1037.931,649.955s10.532-3.057,7.952,26.835-22.09,48.8-22.09,48.8-22.426,9.852-32.5,8.27-17.442-1.926-17.442-1.926a25.622,25.622,0,0,0-10.2-2.686c-5.664-.221-17.557-3.729-17.778-4.869s2.942-17.778,1.582-19.024c0,0,15.852.654,17.442,1.767s3.844.327,5.549,0,6.9-4.86,17.2-.884c0,0,3.534.336,4.878-.566s3.534-.23,3.534-.23a9.842,9.842,0,0,0,2.465-1.246c.336-.451,3.057,0,3.057,0a1.2,1.2,0,0,0,1.7-.786,7.369,7.369,0,0,1,1.582-2.492s3.057-17.212,8.836-23.671c0,0,1.7-1.467,1.246-3.278S1024.35,646.368,1037.931,649.955Z" transform="translate(-218.53 -132.787)" fill="#21455c"/>
      <path id="Path_932" data-name="Path 932" d="M957.5,777.112l14.959,18.1.1-.106c.115-.345,1.582-4.2,1.246-4.418s-2.942-5.894-8.155-8.27a15.446,15.446,0,0,1-6.4-5.823Z" transform="translate(-219.884 -147.569)" opacity="0.1"/>
      <path id="Path_933" data-name="Path 933" d="M957.7,809.982l1.635.945s3.791-3.048,7.564-6.106,7.44-6.07,7.493-6.238c.115-.336,1.59-4.188,1.246-4.418-.177-.115-.954-1.679-2.386-3.534-10.135-2.836-3.685,4.2-2.819,4.524,0,0-12.37-2.836-13.024,10.6a15.9,15.9,0,0,0,.292,4.224Z" transform="translate(-219.869 -149.124)" opacity="0.1"/>
      <path id="Path_934" data-name="Path 934" d="M970.341,815.686l2.156,1.246,21.851.565a43.648,43.648,0,0,0,7.731,3.72,6.865,6.865,0,0,0,1.1.247,49.861,49.861,0,0,0,6.088.115c1.67,0,2.969-.115,2.969-.115s-1.034-27.559-1.767-30.466c-.38-1.387-2.209-1.078-4.011-.389a27.086,27.086,0,0,0-3.914,1.988s-9.287.884-10.762,1.7-5.655-.459-8.261,0-7.245-3.066-7.245-3.066c-12.688-4.188-5.558,3.623-4.648,3.967,0,0-12.37-2.836-13.024,10.6S970.341,815.686,970.341,815.686Z" transform="translate(-220.01 -149.129)" fill="#3f3d56"/>
      <path id="Path_935" data-name="Path 935" d="M1007.639,805.021c.239,5.7,4.692,12.786,7.343,16.532,1.67,0,2.969-.115,2.969-.115s-1.034-27.559-1.767-30.466c-.38-1.387-2.209-1.078-4.011-.389C1009.927,794.727,1007.453,800.444,1007.639,805.021Z" transform="translate(-225.72 -149.129)" fill="#565387"/>
      <path id="Path_936" data-name="Path 936" d="M1007.639,805.021c.239,5.7,4.692,12.786,7.343,16.532,1.67,0,2.969-.115,2.969-.115s-1.034-27.559-1.767-30.466c-.38-1.387-2.209-1.078-4.011-.389C1009.927,794.727,1007.453,800.444,1007.639,805.021Z" transform="translate(-225.72 -149.129)" opacity="0.1"/>
      <path id="Path_937" data-name="Path 937" d="M1003.372,805.8c1.5,5.514,1.484,11.69,3.879,15.419a6.871,6.871,0,0,0,1.1.247,49.862,49.862,0,0,0,6.088.115c1.67,0,2.969-.115,2.969-.115s-1.034-27.559-1.767-30.466c-.38-1.387-2.209-1.078-4.011-.389a27.092,27.092,0,0,0-3.914,1.988S1001.445,798.751,1003.372,805.8Z" transform="translate(-225.181 -149.132)" opacity="0.05"/>
      <path id="Path_938" data-name="Path 938" d="M918.09,744.65s10.851,3.534,20.049,16.046Z" transform="translate(-215.297 -143.85)" opacity="0.1"/>
      <g id="Group_174" data-name="Group 174" transform="translate(729.326 457.146)" opacity="0.1">
        <path id="Path_939" data-name="Path 939" d="M1017.862,590.88a.316.316,0,0,1-.071.239,7.745,7.745,0,0,1-.371.945,6.2,6.2,0,0,1,.442-1.184Z" transform="translate(-956.186 -583.096)"/>
        <path id="Path_940" data-name="Path 940" d="M948.376,584.358a10.763,10.763,0,0,1,.884-2.288c-.062.194-.124.389-.168.592a16.327,16.327,0,0,0,.5,7.51c.309,1.263.725,2.651,1.829,3.349,1.679,1.087,4.294.141,5.664,1.6.884.884.884,2.571,2.068,3.137a2.27,2.27,0,0,0,1.352.159c3-.424,4.745-3.826,7.643-4.763a7.67,7.67,0,0,1,5.063.442,3.755,3.755,0,0,1,1.679,1.078c.963,1.246.283,3.093.733,4.6.627,2.1,3.128,2.942,5.3,3.216s4.621.424,6.07,2.068a5.469,5.469,0,0,1,1.078,4.418,3.534,3.534,0,0,0,0,1.626c.6,1.7,3.534,1.44,4.3.1.557-.972.389-1.767,1.714-2.05a5.584,5.584,0,0,1,2.775.477,20.325,20.325,0,0,0,7.307,1.1,9.773,9.773,0,0,0,5.743-1.767,6.751,6.751,0,0,0,1.767-2.138,7.158,7.158,0,0,1-2.439,3.835,9.719,9.719,0,0,1-5.743,1.767,20.148,20.148,0,0,1-7.307-1.1,5.681,5.681,0,0,0-2.774-.477c-1.326.274-1.158,1.078-1.714,2.059-.769,1.334-3.7,1.59-4.3-.106a3.538,3.538,0,0,1,0-1.626,5.469,5.469,0,0,0-1.078-4.418c-1.449-1.635-3.9-1.767-6.07-2.068s-4.683-1.1-5.3-3.207c-.451-1.52.23-3.366-.733-4.612a3.826,3.826,0,0,0-1.679-1.078,7.66,7.66,0,0,0-5.063-.433c-2.889.884-4.639,4.33-7.643,4.754a2.271,2.271,0,0,1-1.352-.15c-1.14-.574-1.193-2.218-2.068-3.146-1.37-1.458-3.976-.513-5.664-1.6a5.205,5.205,0,0,1-1.829-3.349A15.771,15.771,0,0,1,948.376,584.358Z" transform="translate(-948.119 -582.07)"/>
      </g>
      <path id="Path_941" data-name="Path 941" d="M1018.7,686.512c-2.068,2.8-4.418,5.39-6.273,8.359s-3.137,6.415-2.757,9.879c1.9-1.944,2.775-4.639,3.967-7.069,2.032-4.144,5.063-7.652,7.625-11.487.486-.725,3.614-4.922,2.032-5.125C1021.988,680.919,1019.408,685.558,1018.7,686.512Z" transform="translate(-225.95 -136.448)" opacity="0.1"/>
      <path id="Path_943" data-name="Path 943" d="M25.8,0A25.8,25.8,0,1,1,0,25.8,25.8,25.8,0,0,1,25.8,0Z" transform="translate(588.165 211.455)" fill="#6adaf7" opacity="0.2"/>
    </g>
    <g id="Group_175" data-name="Group 175" transform="translate(1118.392 573.953)">
      <g id="Group_147" data-name="Group 147" transform="translate(4.206)">
        <path id="Path_611" data-name="Path 611" d="M4.5,27.266V3.144A2.215,2.215,0,0,1,6.744.9h5.7a7.741,7.741,0,0,1,7.76,7.76,7.438,7.438,0,0,1-1.589,4.675,8.889,8.889,0,0,1,4.114,7.386,8.778,8.778,0,0,1-8.789,8.789H6.837A2.3,2.3,0,0,1,4.5,27.266ZM9.081,11.933h3.553A3.313,3.313,0,0,0,15.907,8.66a3.252,3.252,0,0,0-3.272-3.272H9.081Zm0,13h5.142a4.207,4.207,0,0,0,0-8.415H9.081Z" transform="translate(-4.5 -0.059)" fill="#21455c"/>
        <path id="Path_612" data-name="Path 612" d="M30.5,27.266V3.144a2.244,2.244,0,1,1,4.488,0V25.022H46.114a2.244,2.244,0,1,1,0,4.488H32.837A2.3,2.3,0,0,1,30.5,27.266Z" transform="translate(-6.191 -0.059)" fill="#21455c"/>
        <path id="Path_613" data-name="Path 613" d="M75.841,4.394a15.036,15.036,0,0,1,4.114,10.378A15.21,15.21,0,0,1,75.841,25.15a13.372,13.372,0,0,1-19.821,0A15.637,15.637,0,0,1,52,14.679,15.131,15.131,0,0,1,56.02,4.3,14.124,14.124,0,0,1,66.118,0,13.02,13.02,0,0,1,75.841,4.394Zm-.467,10.285a10.783,10.783,0,0,0-2.8-7.2,8.663,8.663,0,0,0-6.451-2.9,8.914,8.914,0,0,0-6.638,2.9,10.6,10.6,0,0,0-2.8,7.2,9.956,9.956,0,0,0,2.8,7.106,8.767,8.767,0,0,0,6.638,2.9,9.014,9.014,0,0,0,6.451-2.9A10.193,10.193,0,0,0,75.374,14.679Z" transform="translate(-7.589 0)" fill="#21455c"/>
        <path id="Path_614" data-name="Path 614" d="M112.642,4.394a15.036,15.036,0,0,1,4.114,10.378,15.209,15.209,0,0,1-4.114,10.378,13.372,13.372,0,0,1-19.821,0A14.794,14.794,0,0,1,88.8,14.772,15.131,15.131,0,0,1,92.82,4.394a13.632,13.632,0,0,1,10-4.394A13.222,13.222,0,0,1,112.642,4.394Zm-.561,10.285a10.783,10.783,0,0,0-2.8-7.2,8.663,8.663,0,0,0-6.451-2.9,8.914,8.914,0,0,0-6.638,2.9,10.6,10.6,0,0,0-2.8,7.2,9.955,9.955,0,0,0,2.8,7.106,8.767,8.767,0,0,0,6.638,2.9,9.014,9.014,0,0,0,6.451-2.9A10.193,10.193,0,0,0,112.081,14.679Z" transform="translate(-9.983 0)" fill="#21455c"/>
        <path id="Path_615" data-name="Path 615" d="M150.2,3.144V27.266a2.275,2.275,0,0,1-2.244,2.244,2.215,2.215,0,0,1-2.244-2.244v-17.2l-5.89,8.134a2.182,2.182,0,0,1-1.87.935h0a2.441,2.441,0,0,1-1.87-.935l-5.89-8.134v17.2a2.244,2.244,0,1,1-4.488,0V3.144A2.275,2.275,0,0,1,127.944.9h.094a2.025,2.025,0,0,1,1.776.935l8.134,11.313,8.134-11.313A2.182,2.182,0,0,1,147.952.9h0A2.275,2.275,0,0,1,150.2,3.144Z" transform="translate(-12.383 -0.059)" fill="#21455c"/>
        <path id="Path_616" data-name="Path 616" d="M162.5,27.266V3.144A2.215,2.215,0,0,1,164.744.9h13.37a2.275,2.275,0,0,1,2.244,2.244,2.215,2.215,0,0,1-2.244,2.244H166.988v7.48h9.537a2.275,2.275,0,0,1,2.244,2.244,2.215,2.215,0,0,1-2.244,2.244h-9.537v9.817a2.275,2.275,0,0,1-2.244,2.244A2.087,2.087,0,0,1,162.5,27.266Z" transform="translate(-14.776 -0.059)" fill="#21455c"/>
        <path id="Path_617" data-name="Path 617" d="M210.541,4.394a15.036,15.036,0,0,1,4.114,10.378,15.209,15.209,0,0,1-4.114,10.378,13.372,13.372,0,0,1-19.821,0,14.794,14.794,0,0,1-4.02-10.378,15.131,15.131,0,0,1,4.02-10.378,13.633,13.633,0,0,1,10-4.394A13.222,13.222,0,0,1,210.541,4.394Zm-.561,10.285a10.783,10.783,0,0,0-2.8-7.2,8.663,8.663,0,0,0-6.451-2.9,8.914,8.914,0,0,0-6.638,2.9,10.6,10.6,0,0,0-2.8,7.2,9.955,9.955,0,0,0,2.8,7.106,8.767,8.767,0,0,0,6.638,2.9,9.014,9.014,0,0,0,6.451-2.9A9.8,9.8,0,0,0,209.98,14.679Z" transform="translate(-16.35 0)" fill="#21455c"/>
        <path id="Path_618" data-name="Path 618" d="M244.154,26.144a2.38,2.38,0,0,1-1.4,2.9c-.187,0-.468.093-.935.093h0a3,3,0,0,1-1.589-.467,3.8,3.8,0,0,1-1.309-1.4,11.069,11.069,0,0,1-.842-4.862,3.326,3.326,0,0,0-.467-1.776,5,5,0,0,0-1.215-1.215,6.25,6.25,0,0,0-2.244-.935h-4.862v8.882a2.244,2.244,0,1,1-4.488,0V3.144A2.16,2.16,0,0,1,227.044.9h7.293a8.766,8.766,0,0,1,5.61,15.52,5.352,5.352,0,0,1,1.4,1.5,7.624,7.624,0,0,1,1.309,4.394,12.5,12.5,0,0,0,.187,2.431A2.184,2.184,0,0,1,244.154,26.144Zm-5.7-16.455a4.19,4.19,0,0,0-4.207-4.207h-5.049V13.9h5.049A4.313,4.313,0,0,0,238.45,9.689Z" transform="translate(-18.828 -0.059)" fill="#21455c"/>
        <path id="Path_619" data-name="Path 619" d="M252.6,27.266V3.144A2.16,2.16,0,0,1,254.844.9h4.862a14.3,14.3,0,0,1,0,28.61h-4.862A2.215,2.215,0,0,1,252.6,27.266Zm4.488-2.337h2.524a9.77,9.77,0,0,0,0-19.541h-2.524Z" transform="translate(-20.636 -0.059)" fill="#21455c"/>
      </g>
      <g id="Group_148" data-name="Group 148" transform="translate(-0.024 42.331)">
        <path id="Path_620" data-name="Path 620" d="M131.828,45.3a892.233,892.233,0,0,1,116.964,8.6,13.982,13.982,0,0,1,3.646.748c1.683.841,4.207,2.057,4.207,3.085-.094,1.122-2.524,2.711-4.3,2.992a38.46,38.46,0,0,1-11.313.467A637.809,637.809,0,0,0,117.8,55.022c-29.451,1.215-58.622,3.927-86.858,10A40.539,40.539,0,0,1,5.515,62.6,19.429,19.429,0,0,1,1.4,59.977C-1.03,57.827-.376,56.05,3.551,55.3c11.687-2.057,23.281-4.394,35.155-5.8C67.97,46.046,97.608,45.111,131.828,45.3Z" transform="translate(0.024 -45.276)" fill="#21455c"/>
      </g>
    </g>
  </g>
</svg>
