<svg xmlns="http://www.w3.org/2000/svg" width="25" height="20" viewBox="0 0 25 20">
  <g id="paper-plane" transform="translate(-796 -751)">
    <path id="paper-plane-2" data-name="paper-plane" d="M24.986,10.456s0,0,0,0a.538.538,0,0,0-.055-.172,0,0,0,0,1,0,0l0,0a.469.469,0,0,0-.1-.127c-.008-.008-.016-.013-.025-.02a.372.372,0,0,0-.1-.059.342.342,0,0,0-.07-.017.327.327,0,0,0-.054-.013h0a.217.217,0,0,0-.039,0H24.52l-.033.007-24.155,6a.473.473,0,0,0-.328.42.534.534,0,0,0,.218.513l6.92,4.387,1.214,8.094c0,.006,0,.013,0,.018a.564.564,0,0,0,0,.119.546.546,0,0,0,.008.059.541.541,0,0,0,.046.134c0,.008,0,.018.009.025l0,.007c.005.01.013.017.019.027a.481.481,0,0,0,.063.078s.006.009.01.012.013.007.02.012A.4.4,0,0,0,8.615,30c.011,0,.022.011.033.015a.353.353,0,0,0,.115.022h.027a.386.386,0,0,0,.3-.158l4.61-3.693,4.827,3.77a.369.369,0,0,0,.227.081.356.356,0,0,0,.131-.026.463.463,0,0,0,.259-.3l5.8-18.913A.572.572,0,0,0,25,10.54.644.644,0,0,0,24.986,10.456Zm-4.82,3.362L10.182,22.64a.449.449,0,0,0-.043.05.19.19,0,0,0-.015.017c-.009.011-.017.023-.025.036s-.013.024-.02.037a.56.56,0,0,0-.038.094c0,.006-.005.011-.007.018s0,0,0,.005L8.887,27.365,7.98,21.319ZM9.532,28.327l1.134-4.5,1.766,1.38.505.395-1.716,1.375Z" transform="translate(796 740.958)" fill="#fff"/>
  </g>
</svg>
