<svg xmlns="http://www.w3.org/2000/svg" width="19.943" height="18.615" viewBox="0 0 19.943 18.615">
  <path id="linkedin-logo_2_" data-name="linkedin-logo (2)" d="M11.267,18.615H7.038c0-.007,0-.084,0-.21.015-3.38.046-11.341,0-12.295h4.229V7.882a.112.112,0,0,1-.009.014l0,.006a.1.1,0,0,0-.014.02h.028V7.882a4.186,4.186,0,0,1,3.809-2.065A4.616,4.616,0,0,1,18.553,7.19a6.013,6.013,0,0,1,1.39,4.253v7.17H15.716v-6.69c0-1.849-.74-2.826-2.141-2.826a2.349,2.349,0,0,0-2.168,1.52,2.7,2.7,0,0,0-.14,1.013v6.983Zm-6.574,0H0V5.817H4.693v12.8ZM2.333,4.653H2.306A2.241,2.241,0,0,1,0,2.326,2.242,2.242,0,0,1,2.361,0,2.236,2.236,0,0,1,4.693,2.326,2.242,2.242,0,0,1,2.333,4.653Z" fill="#fff"/>
</svg>
