<svg xmlns="http://www.w3.org/2000/svg" width="22.602" height="18.613" viewBox="0 0 22.602 18.613">
  <path id="twitter-logo-silhouette_1_" data-name="twitter-logo-silhouette (1)" d="M22.6,2.2a9.167,9.167,0,0,1-2.663.743A4.724,4.724,0,0,0,21.98.342a9.163,9.163,0,0,1-2.952,1.14A4.6,4.6,0,0,0,15.649,0a4.669,4.669,0,0,0-4.635,4.7,4.945,4.945,0,0,0,.118,1.07A13.1,13.1,0,0,1,1.573.859,4.743,4.743,0,0,0,3.007,7.132a4.519,4.519,0,0,1-2.1-.587V6.6a4.7,4.7,0,0,0,3.717,4.615,4.723,4.723,0,0,1-1.22.159,4.623,4.623,0,0,1-.876-.082,4.661,4.661,0,0,0,4.331,3.265A9.237,9.237,0,0,1,1.1,16.566,9.819,9.819,0,0,1,0,16.5a12.992,12.992,0,0,0,7.11,2.111c8.525,0,13.188-7.16,13.188-13.368l-.014-.609A9.412,9.412,0,0,0,22.6,2.2Z" fill="#fff"/>
</svg>
