<svg xmlns="http://www.w3.org/2000/svg" xmlns:xlink="http://www.w3.org/1999/xlink" width="246.361" height="246.361" viewBox="0 0 246.361 246.361">
  <defs>
    <filter id="Ellipse_1959" x="0" y="0" width="246.361" height="246.361" filterUnits="userSpaceOnUse">
      <feOffset dx="6" dy="6" input="SourceAlpha"/>
      <feGaussianBlur stdDeviation="10" result="blur"/>
      <feFlood flood-color="#333" flood-opacity="0.09"/>
      <feComposite operator="in" in2="blur"/>
      <feComposite in="SourceGraphic"/>
    </filter>
  </defs>
  <g id="Group_183" data-name="Group 183" transform="translate(-1556.522 -1180.522)">
    <g transform="matrix(1, 0, 0, 1, 1556.52, 1180.52)" filter="url(#Ellipse_1959)">
      <circle id="Ellipse_1959-2" data-name="Ellipse 1959" cx="91.596" cy="91.596" r="91.596" transform="matrix(1, -0.02, 0.02, 1, 24, 27.2)" fill="#fff"/>
    </g>
    <g id="open-book" transform="translate(1625.716 1249.496)">
      <path id="Path_1336" data-name="Path 1336" d="M66.967,145.105H43.16v53.962H76.49l6.348,6.348,6.348-6.348h33.329V145.105Zm0,0" transform="translate(-34.725 -118.115)" fill="#e6e6e6"/>
      <path id="Path_1337" data-name="Path 1337" d="M272.344,145.105H256.473v60.31l6.348-6.348H296.15V145.105Zm0,0" transform="translate(-208.359 -118.115)" fill="#ccc"/>
      <path id="Path_1338" data-name="Path 1338" d="M296.15,435.207v6.348H256.473l6.348-6.348Zm0,0" transform="translate(-208.359 -354.255)" fill="#6adaf7"/>
      <path id="Path_1339" data-name="Path 1339" d="M43.16,435.207v6.348H82.838l-6.348-6.348Zm0,0" transform="translate(-34.725 -354.255)" fill="#6adaf7"/>
      <path id="Path_1340" data-name="Path 1340" d="M193.349,76.007V73.09a15.872,15.872,0,1,0-12.7,0v2.917Zm0,0" transform="translate(-138.888 -34.732)" fill="#f8cf26"/>
      <path id="Path_1341" data-name="Path 1341" d="M230.974,262.376H226.41a3.175,3.175,0,0,1-3.081-2.4l-.985-3.944h12.7l-.985,3.944A3.175,3.175,0,0,1,230.974,262.376Zm0,0" transform="translate(-180.579 -208.404)" fill="#0071bc"/>
      <path id="Path_1342" data-name="Path 1342" d="M205.277,221.9h19.046v6.348H205.277Zm0,0" transform="translate(-166.687 -180.624)" fill="#6adaf7"/>
      <path id="Path_1343" data-name="Path 1343" d="M231.642,2.219a23.674,23.674,0,0,0-17.978-.838l1.062,2.992A20.633,20.633,0,0,1,238.5,11.942l2.6-1.827A23.806,23.806,0,0,0,231.642,2.219Zm0,0" transform="translate(-173.514 0)" fill="#6adaf7"/>
      <path id="Path_1344" data-name="Path 1344" d="M359.423,72.924a23.927,23.927,0,0,0-1.206-2.811l-2.83,1.428a20.638,20.638,0,0,1,1.045,2.44Zm0,0" transform="translate(-288.875 -57.072)" fill="#6adaf7"/>
      <path id="Path_1345" data-name="Path 1345" d="M117.159,108.778V54.816a1.587,1.587,0,0,0-1.588-1.587H93.241c.048-.527.111-1.051.111-1.588a17.458,17.458,0,0,0-34.916,0c0,.537.063,1.061.111,1.588H36.216a1.587,1.587,0,0,0-1.587,1.587v60.31a1.587,1.587,0,0,0,1.587,1.588h79.355a1.587,1.587,0,0,0,1.588-1.588ZM113.984,56.4v50.788H82.242a1.585,1.585,0,0,0-1.122.465l-3.64,3.64V83.384h.7a4.76,4.76,0,0,0,4.62-3.605l.686-2.743h1.935A1.587,1.587,0,0,0,87,75.449V69.1a1.587,1.587,0,0,0-1.587-1.587H83.829V67.2A17.471,17.471,0,0,0,92.688,56.4h21.3ZM67.958,73.862V70.687H83.829v3.175Zm12.251,3.174-.492,1.971a1.587,1.587,0,0,1-1.541,1.2H73.612a1.587,1.587,0,0,1-1.541-1.2l-.492-1.973ZM75.894,37.358a14.284,14.284,0,0,1,5.713,27.371,1.588,1.588,0,0,0-.952,1.454v1.33H77.481V58.647l5.883-5.883L81.12,50.52l-5.226,5.226L70.667,50.52l-2.244,2.244,5.884,5.883v8.866H71.132v-1.33a1.588,1.588,0,0,0-.953-1.454,14.284,14.284,0,0,1,5.714-27.371ZM37.8,56.4H59.1A17.472,17.472,0,0,0,67.958,67.2v.317H66.371A1.587,1.587,0,0,0,64.784,69.1v6.348a1.587,1.587,0,0,0,1.587,1.587h1.935l.685,2.744a4.762,4.762,0,0,0,4.62,3.6h.7v27.911l-3.64-3.639a1.585,1.585,0,0,0-1.122-.465H37.8Zm0,57.136v-3.174H68.888l3.174,3.174Zm76.181,0H79.725l3.174-3.174h31.085Zm0,0" transform="translate(-27.781 -27.825)" fill="#21455c"/>
      <path id="Path_1346" data-name="Path 1346" d="M77.293,247.5H94.751v3.174H77.293Zm0,0" transform="translate(-62.509 -201.46)" fill="#21455c"/>
      <path id="Path_1347" data-name="Path 1347" d="M77.293,281.625H99.512V284.8H77.293Zm0,0" transform="translate(-62.509 -229.241)" fill="#21455c"/>
      <path id="Path_1348" data-name="Path 1348" d="M77.293,315.754h26.981v3.174H77.293Zm0,0" transform="translate(-62.509 -257.021)" fill="#21455c"/>
      <path id="Path_1349" data-name="Path 1349" d="M77.293,349.883h26.981v3.174H77.293Zm0,0" transform="translate(-62.509 -284.802)" fill="#21455c"/>
      <path id="Path_1350" data-name="Path 1350" d="M77.293,384.016h26.981v3.174H77.293Zm0,0" transform="translate(-62.509 -312.586)" fill="#21455c"/>
      <path id="Path_1351" data-name="Path 1351" d="M77.293,213.367h3.174v3.174H77.293Zm0,0" transform="translate(-62.509 -173.679)" fill="#21455c"/>
      <path id="Path_1352" data-name="Path 1352" d="M111.422,213.367h11.11v3.174h-11.11Zm0,0" transform="translate(-90.289 -173.679)" fill="#21455c"/>
      <path id="Path_1353" data-name="Path 1353" d="M341.8,247.5h17.458v3.174H341.8Zm0,0" transform="translate(-277.813 -201.46)" fill="#21455c"/>
      <path id="Path_1354" data-name="Path 1354" d="M316.2,281.625h22.219V284.8H316.2Zm0,0" transform="translate(-256.976 -229.241)" fill="#21455c"/>
      <path id="Path_1355" data-name="Path 1355" d="M290.6,315.754h26.981v3.174H290.6Zm0,0" transform="translate(-236.14 -257.021)" fill="#21455c"/>
      <path id="Path_1356" data-name="Path 1356" d="M290.6,349.883h26.981v3.174H290.6Zm0,0" transform="translate(-236.14 -284.802)" fill="#21455c"/>
      <path id="Path_1357" data-name="Path 1357" d="M290.6,384.016h26.981v3.174H290.6Zm0,0" transform="translate(-236.14 -312.586)" fill="#21455c"/>
      <path id="Path_1358" data-name="Path 1358" d="M418.59,213.367h3.174v3.174H418.59Zm0,0" transform="translate(-340.321 -173.679)" fill="#21455c"/>
      <path id="Path_1359" data-name="Path 1359" d="M341.8,213.367h11.11v3.174H341.8Zm0,0" transform="translate(-277.813 -173.679)" fill="#21455c"/>
      <path id="Path_1360" data-name="Path 1360" d="M6.848,421.711H37v-3.175H6.848a3.174,3.174,0,0,1-3.175-3.174V401.078H.5v14.284A6.349,6.349,0,0,0,6.848,421.711Zm0,0" transform="translate(0 -326.474)" fill="#21455c"/>
      <path id="Path_1361" data-name="Path 1361" d="M.5,366.949H3.675v3.174H.5Zm0,0" transform="translate(0 -298.694)" fill="#21455c"/>
      <path id="Path_1362" data-name="Path 1362" d="M495.379,213.367h3.174V246.7h-3.174Zm0,0" transform="translate(-402.827 -173.679)" fill="#21455c"/>
    </g>
  </g>
</svg>
